<svg xmlns="http://www.w3.org/2000/svg"><defs><font horiz-adv-x="1435"><font-face units-per-em="2048" ascent="1536" descent="-512"/><glyph unicode="ﬁ" horiz-adv-x="1355" d="M53 117q89 9 164 35 8 60 8 112v553q-78 19-149 27-15 47-8 114 75 23 157 29v12q0 257 132 413.5T719 1569q121 0 250.5-26t222.5-70q-3-178-68-306-84-21-184 0-30 81-33 205-95 25-211 25-59 0-101.5-11t-53.5-26q-29-37-49.5-126T471 1012v-29h225q155 0 441 25l22-21q-8-271-8-581V305q0-77 6-151 92-10 154-37 0-82-13-119-110 4-266 4-65 0-157.5-2T748-2q-15 38-15 119 69 7 164 35 8 49 8 104v561H471V307q0-77 6-153 90-7 154-37 0-78-13-119-168 4-266 4-64 0-155-2T68-2Q53 36 53 117z"/><glyph unicode="ﬂ" horiz-adv-x="1343" d="M53 117q80 8 164 37 8 60 8 112v551q-59 17-149 27-18 54-8 114 92 24 157 29v14q0 259 125 413.5T674 1569q116 0 241-33 124 28 218 33l22-21q-8-273-8-590V307q0-79 6-153 92-10 154-37 0-82-13-119-110 4-268 4-63 0-156-2T743-2q-14 35-14 119 89 9 164 35 8 60 8 114v1077q-120 54-225 54-53 0-91-10.5t-48-24.5q-26-38-46-130t-20-216v-35l248-2q0-91-8-162H471V307q0-79 6-153 88-7 154-37 0-82-13-119-140 4-278 4-62 0-150.5-2T68-2Q53 36 53 117z"/><glyph unicode="ﬃ" horiz-adv-x="2035" d="M53 117q89 9 164 35 8 60 8 112v553q-59 17-149 27-18 54-8 114 91 24 157 29 7 154 75.5 271.5t181 179T733 1499q177 0 338-51 127 121 332 121 122 0 252-26t223-70q-3-178-68-306-84-21-184 0-30 81-33 205-95 25-213 25-61 0-103.5-11t-53.5-26q-30-37-51-125.5t-21-222.5v-29h225q155 0 441 25l22-21q-8-271-8-581V305q0-77 6-151 92-10 154-37 0-82-13-119-110 4-266 4-65 0-158-2t-127-2q-14 35-14 119 69 7 164 35 8 49 8 104v561h-434V307q0-77 6-153 90-7 154-37 0-78-13-119-168 4-266 4-64 0-155-2T748-2q-15 38-15 119 89 9 164 35 8 60 8 112v553H471V305q0-81 6-151 90-7 154-37 0-82-13-119-168 4-266 4-65 0-156-2T68-2Q53 36 53 117zm418 866h434v16q0 152 47 273-134 55-252 55-50 0-89-10t-50-23q-33-40-60-122t-30-189z"/><glyph unicode="ﬄ" horiz-adv-x="2023" d="M53 117q89 9 164 35 8 60 8 112v553q-59 17-149 27-18 54-8 114 91 24 157 29 7 154 75.5 271.5t181 179T733 1499q170 0 328-49 122 119 293 119 116 0 241-33 125 28 217 33l23-21q-8-273-8-590V307q0-79 6-153 92-10 154-37 0-82-13-119-110 4-268 4-63 0-156-2t-127-2q-14 35-14 119 89 9 164 35 8 60 8 114v1077q-120 54-225 54-53 0-91-10.5t-48-24.5q-26-38-46-130t-20-216v-33l248-2q0-93-8-164h-240V307q0-79 6-153 88-7 154-37 0-82-13-119-140 4-278 4-62 0-150.5-2T748-2q-15 38-15 119 80 8 164 37 8 60 8 112v551H471V305q0-81 6-151 90-7 154-37 0-82-13-119-168 4-266 4-65 0-156-2T68-2Q53 36 53 117zm418 866h434v18q0 158 45 271-134 55-250 55-50 0-89-10t-50-23q-33-40-60-122t-30-189z"/><glyph horiz-adv-x="0"/><glyph horiz-adv-x="0"/><glyph horiz-adv-x="682"/><glyph horiz-adv-x="0"/><glyph horiz-adv-x="428"/><glyph horiz-adv-x="428"/><glyph horiz-adv-x="428"/><glyph unicode="!" horiz-adv-x="620" d="M160 117q0 56 43.5 94.5T311 250q62 0 105-39t43-94q0-58-43.5-102T311-29q-63 0-107 44t-44 102zm0 1052q0 117 12 193 79 14 139 14 58 0 144-14 8-63 8-186 0-281-70-797-48-10-84-10-38 0-71 10-78 502-78 790z"/><glyph unicode="&quot;" horiz-adv-x="800" d="M76 1573q89 29 221 26l20-20q-11-302-45-510-67-28-137-16-53 295-59 520zm387 0q89 29 221 26l21-20q-11-294-46-510-67-28-137-16-53 295-59 520z"/><glyph unicode="#" horiz-adv-x="1212" d="M76 197q-17 87 0 163h217l43 248H147q-11 32-11 79t11 85h218l38 213q41 3 88.5-6.5T571 952l-32-180h239l39 213q41 3 88.5-6.5T985 952l-33-180h183q9-35 9-83.5t-9-80.5H924l-45-248h186q19-72 0-163H850L813-18q-41-3-88.5 5T645 10l33 187H436L399-20q-39-3-88 6t-80 24l33 187H76zm389 163h242l43 248H510z"/><glyph unicode="$" horiz-adv-x="946" d="M63 72q5 151 41 278 59 18 138-6 8-108 18-166 66-23 137-28v305l-47 16q-50 17-92.5 39.5t-84 55-65.5 77T84 739q0 67 28 120.5t76 86.5 104.5 53 121.5 27v141q62 23 133 0v-139q164-7 295-55-2-130-27-250-83-18-137 8-6 67-21 135-77 13-110 15V618l86-28q248-87 248-254 0-128-95.5-222T530 2v-139q-75-18-133 0V0Q172 10 63 72zm256 706q0-59 95-106v205q-37-3-54-11-41-32-41-88zm211-620q47 8 64 20 45 34 45 107 0 61-109 118V158z"/><glyph unicode="%" horiz-adv-x="1499" d="M37 1014q0 94 39.5 180.5t118 144.5 176.5 58q75 0 135-29.5t96.5-79.5 56-113.5T678 1040q0-93-39.5-179t-118-144T344 659q-147 0-227 102.5T37 1014zm211 41q0-106 31-176t86-70q41 0 57 16 47 63 47 176 0 106-31.5 176t-87.5 70q-39 0-57-18-45-61-45-174zm6-1010l870 1378q72-18 125-84L377-35Q294-9 254 45zm567 287q0 70 23 137.5T908.5 592t105.5 89 139 34q146 0 226.5-104t80.5-253q0-69-23.5-136.5t-65.5-122T1265 11t-139-34Q980-23 900.5 80T821 332zm209 41q0-106 31.5-176t87.5-70q39 0 55 16 47 63 47 176 0 106-31 176t-87 70q-18 0-34.5-6t-21.5-12q-47-63-47-174z"/><glyph unicode="&" horiz-adv-x="1538" d="M41 324q0 260 291 415-92 161-92 271 0 97 36 175.5t95.5 126 132 72.5 149.5 25q128 0 212.5-75t84.5-201q0-116-75-222.5T635 723q127-174 340-371 153 181 180 357-68 24-156 34 0 75 17 121 38 0 128-3t142-3q76 0 211 6 12-35 12-112-58-31-153-45-68-236-271-451 135-109 218-109 80 0 172 33 44-31 51-98-64-43-152.5-72.5T1210-20q-128 0-305 124Q721-37 477-37 357-37 258.5 6t-158 126.5T41 324zm254 77q0-106 84-177.5T586 152q109 0 200 45-222 195-378 424-113-99-113-220zm182 668q0-98 84-240 81 59 118.5 119.5T717 1055q0 68-34.5 116t-86.5 48q-27 0-54-8t-36-19q-11-15-20-49.5t-9-73.5z"/><glyph unicode="'" horiz-adv-x="413" d="M76 1573q89 29 221 26l20-20q-11-302-45-510-67-28-137-16-53 295-59 520z"/><glyph unicode="(" horiz-adv-x="714" d="M154 662q0 277 96 549.5T561 1776q93-18 131-84-151-280-213.5-531T416 647q0-515 276-1022-51-67-135-82-212 292-307.5 567T154 662z"/><glyph unicode=")" horiz-adv-x="714" d="M23-371Q173-92 236 161.5T299 674q0 517-276 1024 50 63 135 78 212-290 307.5-564.5T561 659q0-276-96.5-550.5T154-457q-91 18-131 86z"/><glyph unicode="*" horiz-adv-x="804" d="M39 1212q-3 96 55 185 60-21 136.5-64.5T358 1253q-105 165-139 273 82 53 184 47 13-63 15-161t-4-142q1 2 22.5 40t33 57 33.5 53.5 42 61 39 46.5q79-42 131-137-85-78-256-162 210 6 307-17 5-90-53-182-111 36-269 144 37-55 80-133.5T586 899q-82-53-185-47-26 122-10 303-2-3-23-40t-33-56.5-33-53.5-40.5-60-38.5-46q-83 42-133 137 89 78 256 160-213-6-307 16z"/><glyph unicode="+" horiz-adv-x="1105" d="M133 451q-31 79 0 174h332v336q87 26 174 0V625h338q26-88 0-174H639V117q-81-31-174 0v334H133z"/><glyph unicode="," horiz-adv-x="593" d="M78-227q56 58 96.5 131T215 37q0 87-88 119 7 68 56.5 110.5T299 309q81 0 129.5-48T477 135q0-118-104.5-247T139-297q-25 8-42.5 27T78-227z"/><glyph unicode="-" horiz-adv-x="780" d="M131 418q-18 88 4 178l510 10q22-94 2-180z"/><glyph unicode="." horiz-adv-x="593" d="M123 143q0 70 50 117t124 47 124-47 50-117q0-72-50.5-122T297-29 173.5 21 123 143z"/><glyph unicode="/" horiz-adv-x="892" d="M41-141l602 1583q104-14 188-74L233-211q-113 15-192 70z"/><glyph unicode="0" horiz-adv-x="1177" d="M72 532q0 74 18.5 147t59 142T248 942.5t142.5 84.5 184.5 32q99 0 186-33t149-88.5 107-128 67-152 22-159.5q0-74-19-147t-59.5-142-98-121.5T787 3 602-29q-99 0-186 33T267 92.5t-106.5 128-66.5 152T72 532zm252-43q0-89 28.5-168.5T422 193q18-21 59.5-34.5T563 145q78 0 136.5 33.5t91 91.5 48 126T854 543q0 89-27.5 169.5T758 838q-18 21-60 34t-84 13q-77 0-135-33.5T388 761t-48.5-125.5T324 489z"/><glyph unicode="1" horiz-adv-x="782" d="M49 950q207 80 486 103l22-21q-8-273-8-586V313q0-81 6-157 119-10 203-37 0-82-17-121-136 4-315 4-75 0-186-2T88-2Q70 34 70 119q119 9 225 39 8 52 8 114v566H68q-19 53-19 112z"/><glyph unicode="2" horiz-adv-x="989" d="M66 938q82 51 186 86t201 35q171 0 274.5-84.5T831 756q0-260-405-523l-109-67v-6h390q34 80 63 209 70 11 150-9 5-137-17-342L881-2Q756 2 393 2H123Q78 62 74 182q96 58 179 118t160 128.5T535 567t45 129q0 79-55.5 134T379 885q-49 0-100-15-15-79-15-196-79-28-147-15-51 145-51 279z"/><glyph unicode="3" horiz-adv-x="913" d="M18 938q82 52 191.5 86.5T428 1059q168 0 270.5-82.5T801 760q0-93-63-174T569 457q136-26 209.5-100.5T852 174q0-224-200-369T55-371q-35 48-24 117 154 30 278.5 79.5T517-49.5 600 111q0 93-66 148.5T371 315q-49 0-95-4l-22 19q-15 82 22 162 113 2 194 66.5T551 715q0 73-55 121.5T350 885q-57 0-119-15-14-74-14-192-78-28-147-14-52 145-52 274z"/><glyph unicode="4" horiz-adv-x="1032" d="M23 236l524 768q116 38 237 38l23-20V246l225-17q0-86-14-157H807v-394q-91-33-211-36l-23 20V72H66q-43 59-43 164zm208 8h342v577h-4l-55-172z"/><glyph unicode="5" horiz-adv-x="874" d="M31-254q149 33 270.5 87t202 136T584 143q0 116-68 187t-182 71q-116 0-215-26l-21 22v611l21 20h190q149 0 461 4l21-20q-3-80-21-154H336V565q64 6 123 6 158 0 267.5-100T836 211q0-114-47.5-211t-141-174.5T403-303 55-371q-32 50-24 117z"/><glyph unicode="6" horiz-adv-x="1079" d="M78 524q0 67 10 133t35.5 139T188 935t101 131 141 117.5 188.5 95T858 1346q40-34 43-109-133-48-230-100.5t-172.5-120-117.5-153T330 674h6q138 166 309 166 167 0 275-106.5T1028 461q0-114-44-209.5T868.5 96t-160-92.5T528-29q-97 0-176 38.5T223 107t-83.5 135T92 388.5 78 524zm256-18q21-154 89-257.5T584 145q38 0 74.5 11.5T711 180q31 25 51 84t20 133q0 116-60 190.5T582 662q-129 0-248-156z"/><glyph unicode="7" horiz-adv-x="950" d="M31 1012l20 20q222-4 441-4h382q46-51 56-151Q634 282 395-379q-158 3-227 96l-4 31L725 858H229q-22-124-28-264-32-10-75.5-10T53 594q-27 190-22 418z"/><glyph unicode="8" horiz-adv-x="1081" d="M74 301q0 215 272 348v6q-116 65-175.5 133.5T111 940t41.5 159.5T258 1228t142 83.5 151 31.5q187 0 294-81.5T952 1063q0-97-62.5-175.5T717 754v-9q142-71 218.5-151t76.5-180q0-83-39-163T867 108 700.5 6 489-33q-198 0-306.5 84T74 301zm231 45q0-57 21-99t56.5-64 74.5-32 82-10q53 0 105.5 15.5T713 186q53 50 53 148 0 37-20 70.5t-60.5 65-82.5 56T498 582q-91-43-142-104.5T305 346zm53 678q0-59 55-107.5T578 811q143 91 143 186 0 68-58 120t-141 52q-35 0-72.5-10.5T401 1139q-43-40-43-115z"/><glyph unicode="9" horiz-adv-x="1079" d="M53 569q0 92 28.5 172t77 137.5 112.5 99 135.5 61.5 144.5 20q97 0 176.5-40t129-101.5 83.5-140 47.5-151T1001 487q0-70-10-138.5T955.5 204 891 59 790-77.5t-141-122-188.5-99T221-369q-40 37-43 111 136 51 235 108T587.5-19t116 168T750 358h-5Q605 190 434 190q-167 0-274 106.5T53 569zm244 66q0-117 60.5-190.5T498 371q126 0 243 151-21 156-86.5 259.5T498 885q-40 0-77-10.5T369 852q-32-27-52-86t-20-131z"/><glyph unicode=":" horiz-adv-x="593" d="M127 135q0 64 50 109t120 45q71 0 120.5-45T467 135q0-68-50-116T297-29q-69 0-119.5 48.5T127 135zm0 690q0 64 50 109t120 45q71 0 120.5-45T467 825q0-68-50-115.5T297 662q-69 0-119.5 48T127 825z"/><glyph unicode=";" horiz-adv-x="593" d="M72-227q56 58 96.5 131T209 37q0 87-88 119 7 67 55.5 110T287 309q85 0 134.5-47.5T471 135q0-117-105-245.5T131-297q-56 20-59 70zm55 1052q0 64 50 109t120 45q71 0 120.5-45T467 825q0-68-50-115.5T297 662q-69 0-119.5 48T127 825z"/><glyph unicode="<" horiz-adv-x="1105" d="M88 477q-23 77 0 164l868 410q63-63 74-156L307 559l723-334q-9-87-76-157z"/><glyph unicode="=" horiz-adv-x="1105" d="M133 270q-31 81 0 174h844q26-87 0-174H133zm0 359q-30 80 0 176h844q26-89 0-176H133z"/><glyph unicode=">" horiz-adv-x="1105" d="M72 221l723 336L74 891q6 84 73 160l867-410q23-80 0-164L145 68q-61 58-73 153z"/><glyph unicode="?" horiz-adv-x="854" d="M63 1313q56 36 159 63t204 27q195 0 296-98t101-256q0-76-27.5-143T725 791t-86.5-87-86.5-77.5-60-67.5-17-156q-34-22-94-29t-111 3q-32 118-32 205 0 32 24 66t60.5 62 79 61.5 79 64T541 905t24 78q0 95-59 165.5T358 1219q-33 0-73-7-30-116-37-211-82-23-150-10-35 146-35 322zM229 117q0 56 43.5 94.5T379 250q61 0 104-38.5t43-94.5q0-58-43-102T379-29q-62 0-106 44t-44 102z"/><glyph unicode="@" horiz-adv-x="1914" d="M76 393q0 198 73 372.5t202.5 302T670 1269t411 74q170 0 316-63t244-168 153-243 55-287q0-272-163-441.5T1268-29q-40 0-75 45.5T1137 133Q993-29 858-29q-109 0-186.5 68T558 217.5 522 469q0 225 127 381t295 156q221 0 420-113V303q0-81 6-149 65 0 130 34t87 72q60 103 60 252 0 187-80.5 336.5t-228.5 235-337 85.5q-128 0-271.5-49.5T537 1024Q301 805 301 471q0-195 80.5-352t222-245.5T920-215q103 0 173.5 11.5T1264-160q48-42 45-114-200-119-455-119-161 0-304.5 59T302-172.5 137 77 76 393zm690 133q0-149 46-257.5T934 160q66 0 184 125v497q-81 49-155 49-45 0-77-9.5T844 799q-33-41-55.5-117T766 526z"/><glyph unicode="A" d="M10 123q67 7 164 39l420 1188q101 32 237 32l441-1220q74-8 151-39 1-11 1-22 0-55-13-103-70 4-287 4-59 0-159.5-2T821-2q-16 55-16 125l194 37-92 256q-182 10-313 10H453l-91-266 181-37v-20q0-53-13-105-74 4-262 4-46 0-126-2T27-2Q10 56 10 123zm494 457h346L713 967l-8 186h-5z"/><glyph unicode="B" horiz-adv-x="1253" d="M45 123q75 8 178 39 10 49 10 160v606q0 155-10 282-103 31-178 39 0 70 16 125 41 0 139-2t158-2q84 0 215 5t177 5q152 0 253-91t101-226q0-89-47-168T903 764q147-36 226-122.5t79-195.5q0-82-36.5-162.5t-102-145.5T902 32.5 680-8q-48 0-151 5T358 2q-60 0-158-2T61-2Q45 53 45 123zm442 47h136q69 0 125 6.5t82 14 34 14.5q80 66 80 198 0 106-83.5 168T635 633H487V170zm0 631h101q128 0 189 57.5T838 999q0 87-54 147t-133 60q-5 0-164-6V801z"/><glyph unicode="C" horiz-adv-x="1232" d="M70 662q0 107 27.5 212t85.5 200.5 138.5 169T516 1360t246 43q221 0 389-60 0-220-47-385-25-4-50-4-51 0-98 17-5 95-26 225-73 12-207 12-69 0-140.5-16.5T485 1153q-29-25-60-74t-60-141-29-193q0-123 25.5-226T438 335.5t137.5-126T776 164q103 0 180 18 20 127 29 250 49 16 100 16 26 0 52-4 30-158 30-399-214-76-440-76-161 0-288 54T232 172 111 391.5 70 662z"/><glyph unicode="D" horiz-adv-x="1398" d="M45 123q75 8 178 39 10 49 10 125v641q0 155-10 282-103 31-178 39 0 70 16 125 41 0 139-2t158-2q72 0 208 5t196 5q135 0 243-50.5t178.5-141 108-214T1329 705q0-134-46-261.5t-127-228-203.5-162T688-8q-42 0-151 5T358 2q-60 0-158-2T61-2Q45 53 45 123zm442 47h179q71 0 147 16t102 37q148 117 148 400 0 88-14.5 171t-46 158-76.5 131.5-110 89.5-142 33q-69 0-187-4V170z"/><glyph unicode="E" horiz-adv-x="1202" d="M45 123q75 8 178 39 10 49 10 125v641q0 152-10 282-103 31-178 39 0 70 16 125 41 0 139-2t158-2h236q354 0 481 4l23-22q1-36 1-70 0-177-26-307-42-9-79.5-9t-71.5 9q-9 119-33 225H487V782q92 0 387 9l23-21q-3-92-23-152-203 6-387 9V172h428q45 127 74 252 23 4 46 4 50 0 104-16 0-174-23-392l-20-22Q969 2 614 2H362q-61 0-160.5-2T61-2Q45 53 45 123z"/><glyph unicode="F" horiz-adv-x="1114" d="M45 123q75 8 178 39 10 49 10 160v606q0 155-10 282-103 31-178 39 0 70 16 125 41 0 140-2t159-2h236q354 0 481 4l21-22q1-39 1-76 0-180-24-326-42-9-80.5-9t-72.5 9q-6 125-31 250H487V754q130 0 392 8l20-21q-3-91-20-151-132 4-392 8V332q0-90 9-170 109-8 223-39v-20q0-57-14-105-86 4-343 4-61 0-160-2T61-2Q45 53 45 123z"/><glyph unicode="G" horiz-adv-x="1386" d="M70 662q0 107 27.5 212t86 201T324 1243.5t199.5 116T778 1403q227 0 398-60v-23q0-190-48-349-28-4-54-4-52 0-97 16-6 113-27 225-89 13-207 13-80 0-153.5-17T489 1165q-30-27-63-77t-63.5-145T332 745q0-125 26.5-231T438 325.5t140-129T778 150q78 0 166 12v41q0 155-10 282-109 31-201 39 0 69 19 125 39 0 134.5-2t162.5-2q225 0 282 4 13-48 13-103 0-11-1-22-73-31-147-39-8-91-8-307V82Q907-31 676-31q-146 0-263 54T222 172 109 392 70 662z"/><glyph unicode="H" horiz-adv-x="1572" d="M45 123q75 8 178 39 10 49 10 153v613q0 155-10 282-103 31-178 39 0 70 16 125 41 0 139-2t158-2q219 0 291 4 13-52 13-105v-20q-84-31-166-39-9-123-9-311V799h603v129q0 143-11 282-103 31-178 39 0 67 17 125 41 0 138.5-2t157.5-2q219 0 291 4 13-52 13-105v-20q-84-31-166-39-9-123-9-311V332q0-90 9-170 82-8 166-39v-20q0-53-13-105-72 4-291 4-60 0-157.5-2T918-2q-17 58-17 125 75 8 178 39 11 67 11 153v303q-253 15-402 15H487V332q0-90 9-170 82-8 166-39v-20q0-53-13-105-72 4-291 4-60 0-158-2T61-2Q45 53 45 123z"/><glyph unicode="I" horiz-adv-x="718" d="M45 123q75 8 178 39 10 49 10 125v641q0 155-10 282-103 31-178 39 0 70 16 125 41 0 139-2t158-2q219 0 291 4 13-52 13-105v-20q-84-31-166-39-9-114-9-282V332q0-90 9-170 82-8 166-39v-20q0-53-13-105-72 4-291 4-60 0-158-2T61-2Q45 53 45 123z"/><glyph unicode="J" horiz-adv-x="671" d="M-111-313q163 63 242.5 160T211 104v824q0 155-10 282-103 31-178 39 0 70 16 125 41 0 139.5-2t159.5-2q217 0 289 4 13-48 13-103 0-11-1-22-84-31-166-39-8-101-8-282V76q0-242-141.5-369T-72-440q-40 45-40 109 0 9 1 18z"/><glyph unicode="K" horiz-adv-x="1415" d="M45 123q75 8 178 39 10 49 10 153v613q0 155-10 282-103 31-178 39 0 70 16 125 41 0 139-2t158-2q219 0 291 4 13-52 13-105v-20q-84-31-166-39-9-123-9-311V713l476 499-172 35q0 72 16 127 44 0 134.5-2t139.5-2q197 0 265 4 12-48 12-103v-22q-81-31-154-39L811 809l426-647q93-13 162-39v-21q0-56-13-106-80 4-253 4h-111L627 618 487 477V332q0-90 9-170 82-8 166-39v-20q0-53-13-105-72 4-291 4-60 0-158-2T61-2Q45 53 45 123z"/><glyph unicode="L" horiz-adv-x="1161" d="M45 123q75 8 178 39 10 49 10 125v641q0 155-10 282-103 31-178 39 0 70 16 125 43 0 144.5-2t163.5-2q254 0 336 4 14-48 14-105v-20q-115-31-223-39-9-114-9-282V172h428q45 149 74 291 23 4 48 4 48 0 106-16 0-198-23-431l-22-22Q971 2 616 2H358q-60 0-158-2T61-2Q45 53 45 123z"/><glyph unicode="M" horiz-adv-x="1892" d="M25 123q80 8 180 41l100 1046q-111 32-182 39 0 70 16 125 40 0 129-2t140-2q164 0 272-6l244-854 4-211h6l289 1065q111 6 247 6 217 0 287 4 13-48 13-103 0-11-1-22-85-31-167-39l96-1048q86-8 170-39v-20q0-53-13-105-70 4-286 4-59 0-155-2t-136-2q-16 55-16 125l180 39-78 827 8 209h-6L1034 23Q930-10 797-10L516 989l-20 209h-7L391 164l168-41q1-11 1-22 0-55-13-103-72 4-268 4-37 0-117-2T41-2Q25 53 25 123z"/><glyph unicode="N" horiz-adv-x="1525" d="M45 123q75 8 178 39 10 49 10 125v641q0 155-10 282-103 31-178 39 0 70 16 125 43 0 136-2t141-2q146 0 207-8l528-905 51-209h6v680q0 155-10 282-103 31-178 39 0 70 16 125 44 0 135-2t134-2q184 0 256 4 13-48 13-103 0-11-1-22-84-31-166-39-8-101-8-282V23q-139-33-281-33L481 946l-51 209h-6V332q0-99 8-170 82-8 166-39v-22q0-55-12-103-72 4-260 4-42 0-131-2T61-2Q45 53 45 123z"/><glyph unicode="O" horiz-adv-x="1417" d="M70 662q0 107 29 213.5t86 202.5 135 170 184 117.5 225 43.5q194 0 336-93t212.5-249.5T1348 711q0-107-29-214.5t-86.5-203-135-169.5T914 6.5 690-37q-149 0-268 54T227 166 110.5 387.5 70 662zm266 83q0-120 24-223.5t71.5-186 129-130T748 158q53 0 115 20.5t83 42.5q56 62 95.5 166t39.5 240q0 121-23.5 224T987 1036.5t-128 130-187 47.5q-54 0-116-20t-85-43q-56-62-95.5-166T336 745z"/><glyph unicode="P" horiz-adv-x="1200" d="M45 123q75 8 178 39 10 49 10 125v641q0 155-10 282-103 31-178 39 0 70 16 125 41 0 139-2t158-2q74 0 209.5 5t184.5 5q102 0 182-31.5t129-85.5 74.5-122.5T1163 993q0-90-42.5-180.5t-113-160.5T839 538t-202-44q-90 0-150 8V332q0-90 9-170 109-8 223-39v-20q0-57-14-105-86 4-343 4-61 0-160-2T61-2Q45 53 45 123zm442 555q39-4 127-4 45 0 94 10.5t77 21.5 34 17q78 68 78 221 0 65-21.5 122t-73 98.5T678 1206q-69 0-191-4V678z"/><glyph unicode="Q" horiz-adv-x="1417" d="M70 662q0 107 29 213.5t86 202.5 135 170 184 117.5 225 43.5q194 0 336-93t212.5-249.5T1348 711q0-156-58.5-304.5T1116 143 852-14q144-170 334-170 62 0 114 8 29-42 29-94 0-21-4-43-137-58-352-58-82 0-179.5 87.5T569-27Q409 0 295 98T125.5 340.5 70 662zm266 83q0-120 24-223.5t71.5-186 129-130T748 158q53 0 115 20.5t83 42.5q56 62 95.5 166t39.5 240q0 121-23.5 224T987 1036.5t-128 130-187 47.5q-54 0-116-20t-85-43q-56-62-95.5-166T336 745z"/><glyph unicode="R" horiz-adv-x="1327" d="M45 123q75 8 178 39 10 49 10 160v606q0 155-10 282-103 31-178 39 0 70 16 125 41 0 139-2t158-2q73 0 208 5t186 5q102 0 182.5-28.5t129-77.5 74-109.5T1163 1036q0-116-71.5-225T903 637l236-475q98-12 170-39v-21q0-56-13-106-82 4-256 4H924L655 565h-10q-70 0-158 10V332q0-90 9-170 82-8 166-39v-20q0-53-13-105-72 4-291 4-60 0-158-2T61-2Q45 53 45 123zm442 625q49-5 125-5 45 0 92.5 9t75 18 33.5 14q82 63 82 193 0 97-57.5 163T678 1206q-69 0-191-4V748z"/><glyph unicode="S" horiz-adv-x="1110" d="M66 66q6 201 49 376 28 8 58 8 45 0 93-18 6-113 27-244 91-36 242-36 56 0 108.5 16.5T709 195q59 56 59 172 0 123-209 206l-156 62q-63 25-110.5 52t-97 70T119 861 92 997q0 85 29 155t76.5 115.5 111.5 77 131 45 138 13.5q99 0 213.5-21t201.5-57q-3-192-37-334-38-9-70-9-46 0-79 19-6 100-27 195-88 27-217 27-49 0-97.5-9.5T406 1196q-52-45-52-129 0-37 18.5-69.5t52-57.5 64.5-42 72-34l172-71q301-121 301-355 0-97-34.5-182.5T903 106 748 5.5 543-31Q404-31 275.5-4.5T66 66z"/><glyph unicode="T" horiz-adv-x="1294" d="M27 1354l20 20q127-4 481-4h236q354 0 481 4l23-20q1-33 1-64 0-191-26-354-44-9-81.5-9t-69.5 9q-5 119-33 264H774V332q0-99 8-170 108-8 222-39v-19q0-56-15-106-86 4-344 4-71 0-186.5-2T295-2q-21 54-21 125 94 7 236 39 10 49 10 125v913H233q-25-148-30-264-37-10-75.5-10T49 936q-24 162-24 329 0 44 2 89z"/><glyph unicode="U" horiz-adv-x="1443" d="M12 1249q0 67 17 125 41 0 138.5-2t158.5-2q216 0 288 4 13-52 13-105v-20q-84-31-166-39-6-76-6-282V563q0-217 73.5-317.5T768 145q68 0 130 22.5t85 47.5q16 19 30.5 47t30 93.5T1059 500v428q0 155-10 282-102 31-179 39 0 67 17 125 43 0 134-2t140-2q182 0 254 4 13-48 13-103 0-11-1-22-85-31-165-39-9-114-9-282V543q0-127-31.5-230t-97-182.5T949 7 692-37Q447-37 324 85.5T201 479v449q0 143-11 282-103 31-178 39z"/><glyph unicode="V" d="M8 1249q0 67 17 125 41 0 138.5-2t158.5-2q218 0 290 4 13-52 13-105v-20l-181-37 283-796 10-197h6l338 993-194 37q0 68 14 125 39 0 126-2t134-2q185 0 248 4 11-50 11-101 0-12-1-24-77-31-151-39L848 23Q744-10 610-10L172 1210q-97 32-164 39z"/><glyph unicode="W" horiz-adv-x="2015" d="M8 1249q0 67 17 125 41 0 138.5-2t155.5-2q219 0 291 4 13-52 13-105v-20l-183-37 199-786 8-205h4l281 1131q102 30 248 30l237-954 6-205h7l235 994-192 34q0 61 12 123 39 0 125-2t133-2q183 0 246 4 11-50 11-101 0-12-1-24-77-31-152-39L1542 23q-104-33-266-33l-223 854-13 219h-6L772 23Q726 8 646.5-1T498-10L172 1210q-97 32-164 39z"/><glyph unicode="X" horiz-adv-x="1390" d="M6 123q72 7 176 39l359 530-359 518q-97 32-164 39 0 67 17 125 41 0 142-2t165-2q231 0 307 4 13-51 13-125l-166-37 247-358 238 358-164 35q0 70 14 127 38 0 121.5-2t128.5-2q185 0 248 4 11-50 11-101 0-12-1-24-77-31-151-39L844 709l381-547q72-8 153-39v-22q0-55-12-103-74 4-309 4-66 0-169.5-2T743-2q-16 55-16 125l184 37-268 385-254-385 160-37q1-11 1-22 0-55-13-103-72 4-261 4-46 0-129.5-2T23-2Q6 56 6 123z"/><glyph unicode="Y" horiz-adv-x="1359" d="M8 1247q0 66 17 127 42 0 145-2t168-2q225 0 299 4 13-48 13-103 0-11-1-22l-176-37 264-487 256 487-186 37q0 68 14 125 38 0 125-2t137-2q189 0 250 4 13-52 13-105v-20q-77-31-152-39L811 506V332q0-99 8-170 107-8 221-39v-20q0-57-14-105-84 4-344 4-71 0-186.5-2T332-2q-19 56-19 125 92 7 234 39 10 49 10 125v211l-385 710q-97 32-164 39z"/><glyph unicode="Z" horiz-adv-x="1220" d="M51 162l729 1038H305q-26-136-33-225-40-10-78-9.5t-73 9.5q-26 132-26 309 0 34 1 70l23 20q127-4 481-4h442q56-71 70-160L377 172h545q42 119 73 252 22 4 46 4 50 0 106-16 0-175-23-394l-22-20Q975 2 621 2H78Q50 72 50 138q0 12 1 24z"/><glyph unicode="[" horiz-adv-x="745" d="M225-408v2130l21 21q298-6 493-6 15-79 0-158-112-16-288-20V-244q176-4 288-20 12-79 0-158-185 0-493-6z"/><glyph unicode="\" horiz-adv-x="892" d="M61 1368q84 59 189 74L852-141q-79-55-190-70z"/><glyph unicode="]" horiz-adv-x="745" d="M6-264q112 16 289 20v1803q-177 4-289 20-15 79 0 158 196 0 494 6l20-21V-408l-20-20q-308 6-494 6-12 79 0 158z"/><glyph unicode="^" horiz-adv-x="1040" d="M117 858l334 508q61 12 131 12l342-520q-48-72-129-96l-281 358-283-358q-81 28-114 96z"/><glyph unicode="_" horiz-adv-x="1024" d="M0-102h1024v-156H0v156z"/><glyph unicode="`" horiz-adv-x="849" d="M117 1452l14 45q97 54 225 51l217-381q-29-68-108-80z"/><glyph unicode="a" horiz-adv-x="1056" d="M63 225q0 80 52 149t139 117 178 80.5T623 625q-3 109-36 168t-108 59q-85 0-139-12-16-56-16-158-54-27-105-27-26 0-51 7-59 97-59 235 190 111 415 111 44 0 85-6.5t90-28 85-56 60-96.5 24-143V307q0-81 9-149 45 6 131 26 36-32 36-82-56-56-130.5-93.5T770-29q-34 0-67.5 39.5T647 115Q568 50 485.5 11.5T332-27q-127 0-198 65.5T63 225zm254 64q0-53 36-90t102-37q73 0 168 71v230q-89-10-168-30t-97-34-29.5-47-11.5-63z"/><glyph unicode="b" horiz-adv-x="1148" d="M-2 1495q181 64 403 74l21-21q-8-273-8-590v-55q137 98 293 98 167 0 269.5-134.5T1079 506q0-128-55.5-250.5T865 52 639-29Q480-29 330 74 233-15 172-41q-60 15-78 68 74 112 74 239v1090q-97 26-162 33-11 37-11 72 0 17 3 34zM414 240q47-42 106.5-68.5T637 145q31 0 62.5 12t41.5 25q38 49 62 120.5T827 451q0 97-24 179.5T728 767t-120 54q-79 0-194-61V240z"/><glyph unicode="c" horiz-adv-x="952" d="M70 473q0 75 21 150.5T153.5 767t98 120 133 83 162.5 31q195 0 344-69-6-191-53-299-42-11-78-11-46 0-80 19-4 117-12 176-48 10-129 10-40 0-80-8t-56-24q-37-42-60.5-114.5T319 530q0-64 13-124.5t41.5-118T455 195t125-35q114 0 284 69 39-36 45-106-76-61-188-106.5T510-29Q397-29 311.5 9.5T174 117 96 275.5 70 473z"/><glyph unicode="d" horiz-adv-x="1167" d="M70 469q0 110 37.5 209.5T206 848t141.5 111.5T512 1001q99 0 211-49v404q-106 26-172 33-11 37-11 72 0 17 3 34 187 64 413 74l21-21q-8-273-8-590V307q0-81 6-149 51 7 131 26 37-29 37-82-56-56-131-93.5T870-29q-41 0-76 48.5T739 141Q580-29 434-29q-118 0-202 68T109 217.5 70 469zm249 57q0-149 51-257.5T506 160q75 0 217 135v498q-97 34-193 34-97 0-124-30-36-41-61.5-117.5T319 526z"/><glyph unicode="e" horiz-adv-x="999" d="M70 467q0 132 59 255.5T297.5 927t241.5 81q87 0 155-24.5T804 920t69.5-92 38-105T922 616q0-74-15-118l-22-21q-238 4-428 4H317q5-60 21.5-114t46-102 80.5-76.5T582 160q119 0 297 71 39-33 45-104-81-63-195.5-109.5T514-29Q401-29 314 9.5T174.5 116 96 272.5 70 467zm252 147h106q157 0 246 7 0 48-7 84.5t-24.5 69-52.5 50-86 17.5q-25 0-57.5-10.5T401 807q-63-80-79-193z"/><glyph unicode="f" horiz-adv-x="776" d="M53 117q89 9 164 35 8 60 8 114v551q-59 17-149 27-12 35-12 72 0 21 4 42 92 24 157 29v14q0 254 125.5 411T670 1569q150 0 297-68-3-178-54-303-39-9-72-9-46 0-81 17 0 94-12 180-53 11-95 11-40 0-72.5-11.5T537 1362q-27-38-46.5-132.5T471 1016v-35l248-2q0-91-8-162H471V307q0-79 6-153 137-7 242-37 0-85-12-119-226 4-355 4-64 0-155-2T68-2Q53 36 53 117z"/><glyph unicode="g" horiz-adv-x="1069" d="M37-266q0 162 203 278-25 29-25 82 0 86 111 207-111 29-173.5 107.5T90 612q0 71 28 139t81 124.5 138.5 91T528 1001q125 0 213-43 86 96 238 172 78-51 94-163-70-35-229-84 74-86 74-211 0-72-28-139.5T809 409t-142-90-200-34h-14q-21-37-21-74t8-45q12-14 207-14 165 0 264-74.5t99-200.5q0-207-150.5-316.5T436-549q-86 0-156 18t-114 46.5T92-418t-42.5 76T37-266zm227 61q0-70 56.5-120T500-375q164 0 241 49 17 11 32 56.5t15 89.5q0 129-247 129-130 0-205 16-72-78-72-170zm58 871q0-93 51-156.5T504 446q33 0 67.5 8.5T618 471q25 16 46.5 67T686 639q0 77-54 139t-140 62q-30 0-63.5-6.5T383 819q-25-21-43-64.5T322 666z"/><glyph unicode="h" horiz-adv-x="1245" d="M27 117q87 9 163 35 9 67 9 114v1090q-97 26-162 33-12 35-12 68 0 19 4 38 181 64 401 74l23-21q-9-308-9-590v-32q157 82 310 82 132 0 218.5-81.5T1059 686V307q0-79 6-153 93-10 154-37 0-85-15-119-106 4-262 4-56 0-138.5-2T690-2q-12 30-12 119 79 15 127 35 8 60 8 114v316q0 60-6 100t-23.5 75.5-53 52.5-89.5 17q-102 0-197-39V307q0-67 7-153 84-10 143-37 0-85-12-119-106 4-256 4-65 0-158-2T41-2Q27 33 27 117z"/><glyph unicode="i" horiz-adv-x="684" d="M61 117q80 8 164 37 8 55 8 112v529q-91 24-161 32-12 40-12 75 0 16 3 32 181 64 402 74l22-21q-8-273-8-590v-90q0-79 6-153 92-10 154-37 0-85-12-119-110 4-267 4-65 0-157.5-2T76-2Q61 36 61 117zm119 1179q0 68 52 130.5t118 62.5q58 0 104-38.5t46-96.5q0-70-51-130.5T328 1163q-54 0-101 39t-47 94z"/><glyph unicode="j" horiz-adv-x="618" d="M-12-449q105 78 161 199t56 305v740q-90 24-162 32-11 38-11 73 0 17 3 34 181 64 403 74l21-21q-8-320-8-606V27q0-129-35-230t-96-166-129.5-105T39-537q-51 26-51 88zm164 1745q0 68 52 130.5t120 62.5q57 0 102-38.5t45-96.5q0-70-51-130.5T299 1163q-54 0-100.5 39t-46.5 94z"/><glyph unicode="k" horiz-adv-x="1232" d="M27 117q87 9 163 35 9 67 9 114v1090q-97 26-162 33-12 35-12 68 0 19 4 38 181 64 401 74l23-21q-9-308-9-590V578l162 53 176 196-141 35q0 73 16 119 29 0 131.5-2t174.5-2q70 0 188 4 12-37 12-117-96-34-159-41L768 567q123-233 223-348 41-46 72.5-64t81.5-18q33 0 63 6 25-40 25-81 0-12-2-23-36-21-126-41.5T936-23q-173 0-356 496l-136-33V307q0-67 7-153 90-10 153-37 0-85-12-119-110 4-266 4-65 0-158-2T41-2Q27 33 27 117z"/><glyph unicode="l" horiz-adv-x="641" d="M27 117q87 9 163 35 9 67 9 114v1090q-97 26-162 33-12 35-12 68 0 19 4 38 181 64 401 74l23-21q-9-308-9-590V307q0-67 7-153 90-10 153-37 0-85-12-119-110 4-270 4-62 0-154.5-2T41-2Q27 33 27 117z"/><glyph unicode="m" horiz-adv-x="1820" d="M61 117q89 9 164 35 8 60 8 114v525q-73 22-161 32-13 38-13 72 0 19 4 37 159 59 343 74l26-17q15-44 29-100 143 119 297 119 184 0 258-140 158 140 321 140 135 0 217-81t82-241V307q0-79 6-153 93-10 154-37 0-87-14-119-106 4-264 4-55 0-137.5-2T1266-2q-11 37-11 119 74 14 127 35 9 67 9 114v316q0 59-5.5 99t-20.5 75.5-45.5 53T1241 827q-98 0-190-61 6-38 6-80V307q0-55 4-153 68-13 115-37 0-82-13-119-94 4-225 4-56 0-136.5-2T696-2q-14 35-14 119 75 17 121 35 8 60 8 114v316q0 47-3 80t-12 66.5-25 53.5-43.5 32.5T662 827q-93 0-183-55V307q0-79 6-153 72-10 121-37 0-81-10-119-98 4-236 4-65 0-157.5-2T76-2Q61 36 61 117z"/><glyph unicode="n" horiz-adv-x="1280" d="M61 117q89 9 164 35 8 60 8 114v525q-73 22-161 32-13 39-13 73 0 19 4 36 159 59 343 74l26-17q17-50 31-106 159 125 325 125 133 0 219.5-81.5T1094 686V307q0-79 6-153 91-10 153-37 0-87-14-119-106 4-262 4-56 0-138.5-2T725-2q-12 40-12 119 79 15 127 35 8 60 8 114v316q0 59-6 99t-23.5 75.5-53 53T676 827q-89 0-197-67V307q0-79 6-153 85-10 144-37 0-82-13-119-106 4-256 4-65 0-157.5-2T76-2Q61 36 61 117z"/><glyph unicode="o" horiz-adv-x="1087" d="M70 473q0 96 33.5 190T197 834.5 351.5 960t205.5 48q153 0 258.5-66.5t154-177.5 48.5-258q0-96-33.5-190t-94-171.5T735.5 19 530-29q-224 0-342 137.5T70 473zm249 53q0-64 13.5-127.5t41-122 77-95T565 145q33 0 69 9t48 26q38 45 62 117.5T768 453q0 64-13.5 127.5t-41 122-77 95T522 834q-33 0-68.5-8.5T406 801q-38-45-62.5-118.5T319 526z"/><glyph unicode="p" horiz-adv-x="1183" d="M33-397q89 9 164 35 8 60 8 114V791q-72 22-162 32-12 38-12 72 0 19 4 37 160 59 342 74l26-17 27-94q141 113 311 113 167 0 270-135t103-361q0-128-55.5-250.5T900 58 674-23q-112 0-223 68v-252q0-79 6-153 130-7 241-37 0-82-12-117-226 4-354 4-64 0-155.5-2T47-514q-14 35-14 117zm418 643q46-42 105.5-68T674 152q31 0 61.5 11.5T776 188q40 49 64 120.5T864 457q0 97-24 179.5T765 773t-120 54q-79 0-194-61V246z"/><glyph unicode="q" horiz-adv-x="1138" d="M70 473q0 112 37.5 212.5t99 170.5T348 967t164 41q75 0 155.5-28T809 909q95 88 160 111 56-14 73-66-73-112-73-266v-895q0-79 6-153 90-10 153-37 0-82-12-117-210 6-264 6-61 0-177.5-3T508-514q-14 35-14 117 126 10 221 35 8 60 8 114V51Q564-23 434-23q-118 0-202 68T109 223 70 473zm249 57q0-97 22-178t68.5-133.5T520 166q82 0 203 31v602q-100 35-188 35-100 0-129-33-36-42-61.5-117.5T319 530z"/><glyph unicode="r" horiz-adv-x="964" d="M61 117q89 9 164 35 8 60 8 114v525q-73 22-161 32-13 39-13 73 0 19 4 36 159 59 345 74l24-17q27-68 45-170 129 182 289 182 104 0 180-28 0-233-39-375-40-14-78.5-14T754 598q-14 143-29 211-14 2-43 2-111 0-203-156V307q0-79 6-153 154-11 242-37 0-87-14-119-148 4-351 4-65 0-158.5-2T76-2Q61 36 61 117z"/><glyph unicode="s" horiz-adv-x="899" d="M70 35q0 160 39 307 34 12 70.5 12t74.5-12q2-70 18-186 55-25 160-25 90 0 122 26t32 91q0 47-32.5 77T455 383q-21 9-61 24.5t-63 25-58 26.5-56 31.5-45.5 37-38 46.5-22.5 56.5-9 69.5q0 65 23 117.5t60.5 86 87.5 56 102.5 32T483 1001q208 0 332-38 0-152-39-277-36-9-69-9-40 0-76 13-10 86-33 156-43 16-104 16-54 0-87.5-7.5t-47.5-24-17.5-30T338 764q0-37 27-66t70.5-49.5 96-40.5T637 562t96.5-58 70.5-83 27-116q0-158-114-243T420-23Q208-23 70 35z"/><glyph unicode="t" horiz-adv-x="784" d="M31 958q79 24 159 29l97 281q16 1 33 1 57 0 114-16V981l324-2q1-19 1-37 0-67-9-125H434V369q0-215 96-215 90 0 199 41 41-41 41-108v-9Q704 33 611 2T420-29q-232 0-232 295v551q-62 17-149 27-12 35-12 72 0 21 4 42z"/><glyph unicode="u" horiz-adv-x="1241" d="M27 862q0 72 14 119 34 0 125.5-2t159.5-2h90l20-21q-4-190-4-544 0-250 137-250 86 0 219 127v530q-67 27-153 43 0 72 14 119 35 0 124.5-2t156.5-2h88l22-21q-6-174-6-542V307q0-89 8-149 47 6 132 26 36-32 36-82-56-56-131-93.5T936-29q-40 0-74.5 46.5T807 135Q654-29 485-29q-141 0-220 85.5T186 307v512q-65 26-159 43z"/><glyph unicode="v" horiz-adv-x="1159" d="M25 862q0 68 14 119 24 0 96-2t119-2q25 0 121.5 2t171.5 2q12-36 12-81 0-18-2-38l-137-37 166-471 2-170h6l219 643-143 35q0 73 16 119 34 0 121.5-2t144.5-2q54 0 172 4 13-45 13-89 0-15-2-30-51-25-125-35L713 23Q588-10 461-10L152 827q-47 23-127 35z"/><glyph unicode="w" horiz-adv-x="1708" d="M25 862q0 68 14 119 24 0 95-2t114-2q35 0 129.5 2t157.5 2q12-36 12-81 0-18-2-38l-142-37 136-471 4-170h6l190 777q104 28 289 28l150-635 4-170h6l182 643-143 35q0 73 16 119 34 0 119.5-2t142.5-2q54 0 168 4 14-44 14-90 0-14-1-29-51-25-125-35L1305 23q-122-33-275-33L889 596l-6 176h-6L690 23Q568-10 420-10L147 827q-58 25-122 35z"/><glyph unicode="x" horiz-adv-x="1185" d="M20 117q84 11 148 35l272 362-250 313q-50 21-145 35 0 68 14 119 25 0 105-2t125-2q29 0 64 .5t96 1.5 116 2q12-36 12-81 0-18-2-38l-98-31 170-213 150 209-109 35q0 70 17 119 28 0 108.5-2t140.5-2 162 4q14-42 14-88 0-15-2-31-53-25-131-35L745 496l275-344q85-10 141-35 1-16 1-31 0-46-13-88-126 4-201 4-82 0-185-2T633-2q-17 49-17 119l113 35-188 235-170-235 127-35q1-13 1-24 0-55-12-95-208 4-231 4-42 0-118.5-2T35-2Q20 52 20 117z"/><glyph unicode="y" horiz-adv-x="1159" d="M25 862q0 68 14 119 24 0 96-2t119-2q25 0 121.5 2t171.5 2q12-36 12-81 0-18-2-38l-137-37 166-471 2-170h6l219 643-143 35q0 73 16 119 34 0 121.5-2t144.5-2q54 0 172 4 13-45 13-89 0-15-2-30-51-25-125-35L715 18q-46-125-88.5-217.5t-94-169.5T423-486t-122-40q-146 0-231 47-1 9-1 17 0 67 42 114h28q261 0 367 270l31 78h-80L152 827q-47 23-127 35z"/><glyph unicode="z" horiz-adv-x="1001" d="M72 170l559 661H293q-26-109-33-190-40-8-75.5-8t-67.5 8q-17 138-17 278v42l19 20q125-4 469-4h291q47-73 47-152L350 150h385q44 106 68 223 27 4 54 4 46 0 93-12 1-28 1-58 0-126-17-289L913-2Q788 2 434 2H109Q72 74 72 170z"/><glyph unicode="{" horiz-adv-x="868" d="M143 715q148 80 228 149 10 12 10 90 0 64-8 218.5t-8 193.5q0 83 36.5 152.5t102 119.5 148 84.5T834 1778q52-41 55-127-189-87-244-156-13-16-26-93t-13-124V866q0-55-56-101t-161-95q96-36 156.5-86.5T606 477V39q0-48 13-122t26-91q53-69 242-154 15-86-56-135-100 22-182 58t-147 87-101 122-36 155q0 41 8 187t8 204q0 70-10 82-90 97-207 152-21 64-21 131z"/><glyph unicode="|" horiz-adv-x="641" d="M219-426v2167h203V-426H219z"/><glyph unicode="}" horiz-adv-x="868" d="M-20-336q187 86 243 156 13 16 26 93t13 124v412q0 55 55.5 100.5T477 645q-95 36-155 86.5T262 838v438q0 48-13 122t-26 91q-52 69-241 153-15 88 55 136 100-22 182.5-58t147.5-87 101-122 36-155q0-41-8.5-187T487 965q0-68 11-82 90-97 207-152 20-61 20-131-145-78-227-149-11-14-11-91 0-64 8.5-218T504-51q0-83-36.5-152.5T365.5-323t-148-84.5T35-463q-52 41-55 127z"/><glyph unicode="~" horiz-adv-x="1024" d="M57 489q64 70 148.5 125.5T348 670q46 0 98-17.5t90.5-38 87.5-38 89-17.5q38 0 95.5 25T913 643q63-43 66-113-63-70-148-125t-143-55-123.5 28-128 55.5T324 461q-38 0-96.5-25T123 377q-63 43-66 112z"/><glyph unicode="¡" horiz-adv-x="620" d="M158-195q0 286 69 795 48 10 86 10 37 0 70-10 78-483 78-788 0-134-12-193-72-16-138-16-80 0-145 16-8 60-8 186zm6 1059q0 58 42 101t103 43q64 0 108-43t44-101q0-57-44-96t-108-39q-61 0-103 39t-42 96z"/><glyph unicode="¢" horiz-adv-x="940" d="M63 498q0 114 46 222.5t138.5 191T459 1018v164q59 22 133 0v-158q165-5 301-68-6-191-53-299-91-26-148 9-4 117-12 176-25 4-88 8V184q96 2 266 70 39-36 45-107-59-47-143-86.5T592 4v-166q-75-18-133 0V-2Q358 5 281 46.5T157 156 86.5 310 63 498zm244 57q0-108 36.5-205T459 211v633q-48-11-62-25-39-42-64.5-114T307 555z"/><glyph unicode="£" horiz-adv-x="952" d="M31 168q93 11 132.5 83T209 459H98q-24 75 0 147h113q14 192 123.5 319.5T608 1053q125 0 271-47 0-185-39-310-69-9-142 11-7 94-22 167-37 9-94 9-32 0-62-10t-39-23q-34-50-41-244h203q25-66 0-147H434q-20-172-158-269h392q37 89 63 195 76 9 152-12 8-161-19-355L844-2Q723 2 383 2H51Q26 86 31 168z"/><glyph unicode="¤" horiz-adv-x="978" d="M90 840q26 57 90 90l142-113q76 51 167 51 90 0 166-45l140 111q26-10 50.5-35t39.5-55L774 705q49-77 49-170 0-85-47-164l113-142q-27-59-90-90L657 252q-76-51-168-51-83 0-165 45L184 135q-27 12-51 36.5T96 225l109 140q-49 77-49 170 0 84 47 163zm240-305q0-70 45.5-118T489 369t114 48 46 118-45.5 117.5T489 700q-68 0-113.5-47.5T330 535z"/><glyph unicode="¥" horiz-adv-x="980" d="M29 913q0 57 12 119 33 0 103-2t110-2q152 0 213 4 10-46 10-119l-115-24 166-246 168 244-108 26q0 67 8 119 27 0 88-2t92-2q25 0 84 2t82 2q8-35 8-119-51-19-112-28L664 629h174q19-51 0-121H606v-96h232q19-50 0-121H606v-19q0-69 6-125 112-9 193-30 3-61-12-119-78 4-301 4-62 0-164-2T184-2q-16 52-16 119 77 4 205 30 8 36 8 95v49H150q-15 60 0 121h231v96H150q-14 59 0 121h163L131 885q-55 20-102 28z"/><glyph unicode="¦" horiz-adv-x="632" d="M215 66v1183h203V66H215z"/><glyph unicode="§" horiz-adv-x="987" d="M53 526q0 99 53.5 178T258 856q-119 94-119 223 0 83 36.5 148t95 102 123.5 55.5 130 18.5q186 0 346-57-3-166-39-295-80-19-141 8-3 96-14 170-67 24-168 24-34 0-66-7.5t-39-14.5q-43-40-43-109 0-45 31.5-83t82.5-67 112-56.5 122-59 112-68 82.5-89.5T934 582q0-100-54-179.5T727 250q119-93 119-221 0-83-36.5-148t-95-102-123-55.5T463-295q-189 0-346 57 3 176 39 295 79 19 139-8 3-78 16-170 67-24 168-24 33 0 65.5 7.5T584-123q41 38 41 109 0 45-31.5 83t-82 67T400 192.5t-122 59-111.5 68-82 89.5T53 526zm223 56q0-35 18.5-64.5T352 461t74-46 96-48.5 94-47.5q95 109 95 207 0 29-15 55.5T659 628t-60 42.5-69.5 37.5-80.5 38.5-80 39.5q-93-104-93-204z"/><glyph unicode="¨" horiz-adv-x="849" d="M80 1241q0 64 43.5 117t107.5 53q48 0 88.5-35t40.5-84q0-64-44.5-115.5T209 1124q-51 0-90 34.5T80 1241zm407 0q0 62 45.5 116t106.5 54q52 0 90.5-34.5T768 1292q0-65-43.5-116T616 1124q-47 0-88 35t-41 82z"/><glyph unicode="©" horiz-adv-x="1533" d="M63 662q0 192 93.5 354T412 1272t354 94 354-94 256-256 94-354-94-354.5T1120 51 766-43q-144 0-274.5 55.5t-224 150-149 225T63 662zm162 0q0-151 71-278.5T491.5 181 766 106q151 0 276 74.5t196 202 71 279.5q0 151-71 278t-196 202-276 75-275.5-74.5-195-201.5T225 662zm158-7q0 56 16 112.5T449.5 876t82.5 92.5 116.5 64.5 148.5 24q141 0 229-37 0-153-27-246-58-11-122 10-2 36-15 113-31 8-102 8-74 0-98-16-20-12-45-64.5T592 698q0-123 52.5-194.5T795 432q53 0 86 10l14 127q68 21 127 11 18-99 18-252-113-47-266-47-190 0-290.5 105T383 655z"/><glyph unicode="ª" horiz-adv-x="751" d="M68 805q0 47 35 88.5t93 72.5 117.5 52.5T438 1055q-7 112-78 112-48 0-88-6-12-35-12-74-60-31-121-22-42 58-45 143 136 76 314 76 31 0 60.5-4t64.5-17.5 60.5-34.5 42.5-59 17-88V791q54 7 90 14 29-19 29-60-42-42-97-69t-112-27q-54 0-96 72-114-74-223-74-176 0-176 158zm213 45q0-26 19-45t50-19q38 0 90 27v119q-125-14-137-23-22-18-22-59z"/><glyph unicode="«" horiz-adv-x="1234" d="M98 453q-6 57 15 122l415 404q63-20 103-82L360 516l281-373Q605 75 524 43zm498 0q-6 59 14 122l416 404q62-19 102-82L858 516l281-373q-36-68-117-100z"/><glyph unicode="¬" horiz-adv-x="1105" d="M92 451q-27 85 0 174h903V0q-95-23-174 0v451H92z"/><glyph unicode="­" horiz-adv-x="780" d="M131 418q-18 88 4 178l510 10q22-94 2-180z"/><glyph unicode="®" horiz-adv-x="1079" d="M20 1090q0 138 70.5 254.5T281 1528t260 67q139 0 258-67t189.5-183.5T1059 1090q0-139-70.5-255.5T799 651t-258-67q-141 0-260.5 67t-190 183.5T20 1090zm142 0q0-158 110.5-267.5T541 713q156 0 266.5 109.5T918 1090q0 156-110.5 266T541 1466q-158 0-268.5-109.5T162 1090zm155-140l64 15v288l-64 17q-3 50 9 80l260 2q74 0 112.5-41t38.5-99q0-82-90-135 18-36 30-57t34.5-41.5T758 958q5 0 35 5 18-25 22-68-55-33-133-33-38 0-80 59t-63 126l-39 4v-84l45-17q7-45-4-76H328q-14 29-11 76zm183 189h28q43 0 58.5 15t15.5 44q0 23-15 38t-42 15h-45v-112z"/><glyph unicode="¯" horiz-adv-x="849" d="M131 1137q-31 93 0 180h584q36-88 0-180H131z"/><glyph unicode="°" horiz-adv-x="745" d="M68 1065q0 126 89.5 215.5T373 1370t215.5-89.5T678 1065t-89.5-215.5T373 760t-215.5 89.5T68 1065zm141 0q0-71 47.5-119.5T373 897t116.5 48.5T537 1065t-47.5 119.5T373 1233t-116.5-48.5T209 1065z"/><glyph unicode="±" horiz-adv-x="1105" d="M150 0q-27 82 0 174h808q26-87 0-174H150zm0 575q-27 83 0 175h315v301q87 26 174 0V750h319q26-88 0-175H639V281q-81-31-174 0v294H150z"/><glyph unicode="²" horiz-adv-x="765" d="M78 1020q175 106 267.5 186t92.5 144q0 51-26 83.5t-68 32.5q-33 0-57-6-24-73-27-157-65-12-125 0-34 99-37 249 147 66 293 66 118 0 194.5-68t76.5-149q0-94-75-181.5T391 1067l-102-55h377q21-72 0-148l-19-18q-94 4-358 4H104q-26 65-26 170z"/><glyph unicode="³" horiz-adv-x="768" d="M84 1552q147 66 299 66 113 0 192.5-52t79.5-128q0-54-33-96t-90-66q79-19 118.5-69t39.5-115q0-101-98-181t-246-80q-132 0-260 39 0 142 25 254 55 12 114 6 16-92 33-141 31-8 78-8 28 0 61 7t43 13q31 20 31 72 0 39-35.5 65.5T348 1165q-29 0-43-2l-18 17q-3 70 24 133 61 0 93 24.5t32 55.5-27 52-71 21q-36 0-72-4-21-50-24-125-58-14-121 0-37 88-37 215z"/><glyph unicode="´" horiz-adv-x="849" d="M291 1155l207 342q113 27 256 27l20-56-387-389q-68 9-96 76z"/><glyph unicode="µ" horiz-adv-x="1220" d="M160-498q8 339 8 801v655q105 31 229 31l21-20q-4-174-4-545 0-116 39.5-189T555 162q93 0 213 123v673q109 31 229 31l23-20q-6-174-6-553V307q0-81 6-149 51 7 131 26 37-29 37-82-56-56-131-93.5T915-29q-40 0-73.5 44T788 127Q660-29 547-29 420-29 360 94h-6q7-347 68-563-111-53-242-53z"/><glyph unicode="¶" horiz-adv-x="1177" d="M31 854q0 109 48.5 207t129 166.5 187 108.5 220.5 40q42 0 133-3t144-3q183 0 242 4 15-59 12-125-84-31-166-39-8-101-8-276V178q0-139-46.5-258.5t-124-199-177-124.5T420-449q-80 0-156 17t-123 51q0 136 90 229l29 11q41-43 101-69t118-26q122 0 174 39 26 20 46 102.5T719 123v272q-81-22-205-22-64 0-130.5 19t-130 59-113 95.5T61 682 31 854zm411 66q0-150 65.5-252.5T666 565h53v652q-18 2-60 2-96 0-149-41-25-17-46.5-88T442 920z"/><glyph unicode="·" horiz-adv-x="614" d="M143 477q0 68 52 130.5T315 670q57 0 102.5-38.5T463 535q0-70-51-130.5T291 344q-54 0-101 39t-47 94z"/><glyph unicode="¸" horiz-adv-x="849" d="M240-461q194 80 194 176 0 38-34.5 64T303-199l-20 21L385 41h104L438-84q100-3 156.5-46.5T651-244q0-108-111-197T274-559q-40 40-34 98z"/><glyph unicode="¹" horiz-adv-x="651" d="M84 948q56 2 137 23 6 37 6 78v415H98q-17 44-12 97 152 52 340 61l16-20v-529q0-36 4-102 62-5 132-23 0-54-11-102-41 4-235 4-64 0-137.5-2T94 846q-10 44-10 102z"/><glyph unicode="º" horiz-adv-x="747" d="M63 956q0 79 40 153t121 124.5 184 50.5q161 0 243-85t82-224q0-58-23.5-115.5t-66-104.5-109-76.5T389 649q-159 0-242.5 83.5T63 956zm220 29q0-48 11.5-92t41-78.5T408 780q49 0 65 19 43 53 43 147 0 47-12 91.5t-42 79-73 34.5q-48 0-61-16-45-58-45-150z"/><glyph unicode="»" horiz-adv-x="1236" d="M94 879q39 71 119 98l424-410q6-61-14-123L207 41q-67 24-101 84l269 381zm500 0q39 71 119 98l424-410q6-59-15-123L707 41q-67 24-101 84l268 381z"/><glyph unicode="¼" horiz-adv-x="1880" d="M154 768q56 2 137 23 6 37 6 77v416H168q-17 43-12 96 155 53 340 62l16-21V893q0-36 4-102 61-5 131-23 0-58-10-102-41 4-236 4-64 0-137-2t-100-2q-10 44-10 102zM446 45l871 1378q72-18 125-84L569-35Q486-9 446 45zm715 332l334 438q109 0 199-37V373l131-11q5-60-6-118h-125V68q-89-29-191-29l-16 18v187h-293q-36 52-33 133zm150-8h176v235z"/><glyph unicode="½" horiz-adv-x="1880" d="M154 768q56 2 137 23 6 37 6 77v416H168q-17 43-12 96 155 53 340 62l16-21V893q0-36 4-102 61-5 131-23 0-58-10-102-41 4-236 4-64 0-137-2t-100-2q-10 44-10 102zM446 45l871 1378q72-18 125-84L569-35Q486-9 446 45zm738 180q175 106 267.5 186t92.5 144q0 52-26 84.5t-68 32.5q-33 0-57-6-24-73-27-158-65-12-125 0-34 99-37 250 145 65 293 65 118 0 194-68t76-149q0-94-74.5-181.5T1497 272l-102-55h377q20-71 0-147l-19-19q-94 4-358 4h-185q-26 65-26 170z"/><glyph unicode="¾" horiz-adv-x="1880" d="M90 1372q147 66 299 66 113 0 193-52.5t80-128.5q0-54-33-95.5t-90-65.5q79-19 118-69t39-116q0-101-98-180.5T352 651q-132 0-260 39 0 142 25 254 55 12 114 6 16-92 33-141 31-8 78-8 28 0 61 7t43 13q31 20 31 72 0 39-35.5 65.5T354 985q-29 0-43-2l-18 16q-3 71 24 134 61 0 93 24t32 55-27.5 52.5T344 1286q-36 0-72-4-21-50-24-125-58-14-121 0-37 88-37 215zM446 45l871 1378q72-18 125-84L569-35Q486-9 446 45zm715 332l334 438q109 0 199-37V373l131-11q5-60-6-118h-125V68q-89-29-191-29l-16 18v187h-293q-36 52-33 133zm150-8h176v235z"/><glyph unicode="¿" horiz-adv-x="854" d="M31-68Q31-4 50.5 52T99 147t67.5 76 73 62.5 67.5 55 49 52.5q23 38 23 182 36 23 95 30t110-3q32-101 32-205 0-35-33.5-73T501 251t-96.5-72-82-84.5T289-2q0-96 59-167t148-71q33 0 73 7 30 115 37 213 78 22 150 8 35-146 35-322-56-36-159-63t-204-27q-195 0-296 98T31-68zm297 932q0 58 43 101t104 43q62 0 106-43t44-101q0-57-43.5-96T475 729q-62 0-104.5 39T328 864z"/><glyph unicode="À" d="M10 123q67 7 164 39l420 1188q101 32 237 32l441-1220q74-8 151-39 3-67-12-125-70 4-287 4-59 0-159.5-2T821-2q-16 55-16 125l194 37-92 256q-182 10-313 10H453l-91-266 181-37q3-63-13-125-74 4-262 4-46 0-126-2T27-2Q10 56 10 123zm363 1606q34 100 143 155l383-287q-3-73-61-110l-453 194zM504 580h346L713 967l-8 186h-5z"/><glyph unicode="Á" d="M10 123q67 7 164 39l420 1188q101 32 237 32l441-1220q74-8 151-39 3-67-12-125-70 4-287 4-59 0-159.5-2T821-2q-16 55-16 125l194 37-92 256q-182 10-313 10H453l-91-266 181-37q3-63-13-125-74 4-262 4-46 0-126-2T27-2Q10 56 10 123zm494 457h346L713 967l-8 186h-5zm37 1013l397 277q98-53 133-164l-10-47-461-178q-44 41-59 112z"/><glyph unicode="Â" d="M10 123q67 7 164 39l420 1188q101 32 237 32l441-1220q74-8 151-39 3-67-12-125-70 4-287 4-59 0-159.5-2T821-2q-16 55-16 125l194 37-92 256q-182 10-313 10H453l-91-266 181-37q3-63-13-125-74 4-262 4-46 0-126-2T27-2Q10 56 10 123zm363 1440l274 270q70 12 148 12l288-272q-24-65-86-107l-276 174-272-174q-59 39-76 97zm131-983h346L713 967l-8 186h-5z"/><glyph unicode="Ã" d="M10 123q67 7 164 39l420 1188q101 32 237 32l441-1220q74-8 151-39 3-67-12-125-70 4-287 4-59 0-159.5-2T821-2q-16 55-16 125l194 37-92 256q-182 10-313 10H453l-91-266 181-37q3-63-13-125-74 4-262 4-46 0-126-2T27-2Q10 56 10 123zm350 1479q47 89 119 145.5t137 56.5q41 0 89.5-29.5t93-59T874 1686q23 0 62.5 27.5t73.5 68.5q62-21 86-76-49-91-121-148t-137-57q-42 0-91 29.5t-93 58.5-72 29q-24 0-63-26t-75-68q-67 22-84 78zM504 580h346L713 967l-8 186h-5z"/><glyph unicode="Ä" d="M10 123q67 7 164 39l420 1188q101 32 237 32l441-1220q74-8 151-39 3-67-12-125-70 4-287 4-59 0-159.5-2T821-2q-16 55-16 125l194 37-92 256q-182 10-313 10H453l-91-266 181-37q3-63-13-125-74 4-262 4-46 0-126-2T27-2Q10 56 10 123zm377 1503q0 62 43.5 115t106.5 53q46 0 83-34t37-83q0-61-41.5-109.5T514 1516q-49 0-88 32.5t-39 77.5zM504 580h346L713 967l-8 186h-5zm295 1046q0 61 43 114.5t102 53.5q51 0 89-33.5t38-83.5q0-62-42.5-110T922 1516q-45 0-84 33t-39 77z"/><glyph unicode="Å" d="M10 123q67 7 164 39l420 1188q101 32 237 32l441-1220q74-8 151-39 3-67-12-125-70 4-287 4-59 0-159.5-2T821-2q-16 55-16 125l194 37-92 256q-182 10-313 10H453l-91-266 181-37q3-63-13-125-74 4-262 4-46 0-126-2T27-2Q10 56 10 123zm482 1548q0 83 76 154t173 71q107 0 166.5-54.5T967 1677q0-80-77-151.5T717 1454q-107 0-166 54.5T492 1671zm12-1091h346L713 967l-8 186h-5zm137 1101q0-35 27-64.5t63-29.5q35 0 64 19 22 18 22 63 0 36-27 65t-63 29q-39 0-63-16-8-7-15.5-25.5T641 1681z"/><glyph unicode="Æ" horiz-adv-x="1849" d="M8 123q67 7 164 39l467 1044-178 43q0 70 16 125 44 0 129.5-2t130.5-2h506q352 0 479 4l23-22q6-222-25-377-87-18-151 0-9 119-33 225h-397V741q93 0 383 9l20-21q-3-91-20-151l-383 8V172h424q42 119 73 252 69 11 150-12 0-174-23-392l-20-22q-127 4-481 4h-246q-60 0-159-2T717-2q-17 58-17 125 77 8 179 39 10 49 10 125v299H551L360 160l181-37q3-63-13-125-74 4-262 4-46 0-126-2T25-2Q8 56 8 123zm613 618h268v457h-66z"/><glyph unicode="Ç" horiz-adv-x="1232" d="M70 662q0 107 27.5 212t85.5 200.5 138.5 169T516 1360t246 43q221 0 389-60 0-220-47-385-78-12-148 13-5 95-26 225-73 12-207 12-69 0-140.5-16.5T485 1153q-29-25-60-74t-60-141-29-193q0-123 25.5-226T438 335.5t137.5-126T776 164q103 0 180 18 20 127 29 250 73 24 152 12 30-158 30-399-203-73-432-76l-20-53q100-3 156.5-46.5T928-244q0-108-111-197T551-559q-41 41-35 98 195 80 195 176 0 38-34.5 64T580-199l-21 21 72 153Q448-5 319.5 92.5t-189 243T70 662z"/><glyph unicode="È" horiz-adv-x="1202" d="M45 123q75 8 178 39 10 49 10 125v641q0 152-10 282-103 31-178 39 0 70 16 125 41 0 139-2t158-2h236q354 0 481 4l23-22q6-222-25-377-83-18-151 0-9 119-33 225H487V782q92 0 387 9l23-21q-3-92-23-152-203 6-387 9V172h428q45 127 74 252 70 11 150-12 0-174-23-392l-20-22Q969 2 614 2H362q-61 0-160.5-2T61-2Q45 53 45 123zm221 1606q34 100 144 155l383-287q-3-72-62-110l-452 194z"/><glyph unicode="É" horiz-adv-x="1202" d="M45 123q75 8 178 39 10 49 10 125v641q0 152-10 282-103 31-178 39 0 70 16 125 41 0 139-2t158-2h236q354 0 481 4l23-22q6-222-25-377-83-18-151 0-9 119-33 225H487V782q92 0 387 9l23-21q-3-92-23-152-203 6-387 9V172h428q45 127 74 252 70 11 150-12 0-174-23-392l-20-22Q969 2 614 2H362q-61 0-160.5-2T61-2Q45 53 45 123zm389 1470l397 277q99-54 134-164l-11-47-460-178q-45 42-60 112z"/><glyph unicode="Ê" horiz-adv-x="1202" d="M45 123q75 8 178 39 10 49 10 125v641q0 152-10 282-103 31-178 39 0 70 16 125 41 0 139-2t158-2h236q354 0 481 4l23-22q6-222-25-377-83-18-151 0-9 119-33 225H487V782q92 0 387 9l23-21q-3-92-23-152-203 6-387 9V172h428q45 127 74 252 70 11 150-12 0-174-23-392l-20-22Q969 2 614 2H362q-61 0-160.5-2T61-2Q45 53 45 123zm221 1440l275 270q71 12 147 12l289-272q-24-65-86-107l-277 174-272-174q-59 39-76 97z"/><glyph unicode="Ë" horiz-adv-x="1202" d="M45 123q75 8 178 39 10 49 10 125v641q0 152-10 282-103 31-178 39 0 70 16 125 41 0 139-2t158-2h236q354 0 481 4l23-22q6-222-25-377-83-18-151 0-9 119-33 225H487V782q92 0 387 9l23-21q-3-92-23-152-203 6-387 9V172h428q45 127 74 252 70 11 150-12 0-174-23-392l-20-22Q969 2 614 2H362q-61 0-160.5-2T61-2Q45 53 45 123zm236 1503q0 62 43 115t106 53q46 0 83.5-34t37.5-83q0-61-41.5-109.5T408 1516q-49 0-88 32.5t-39 77.5zm411 0q0 61 43.5 114.5T838 1794q51 0 89-33.5t38-83.5q0-62-43-110t-107-51q-45 0-84 33t-39 77z"/><glyph unicode="Ì" horiz-adv-x="718" d="M4 1729q34 100 143 155l383-287q-3-73-61-110L16 1681zM45 123q75 8 178 39 10 49 10 125v641q0 155-10 282-103 31-178 39 0 70 16 125 41 0 139-2t158-2q219 0 291 4 16-62 13-125-84-31-166-39-9-114-9-282V332q0-90 9-170 82-8 166-39 3-63-13-125-72 4-291 4-60 0-158-2T61-2Q45 53 45 123z"/><glyph unicode="Í" horiz-adv-x="718" d="M45 123q75 8 178 39 10 49 10 125v641q0 155-10 282-103 31-178 39 0 70 16 125 41 0 139-2t158-2q219 0 291 4 16-62 13-125-84-31-166-39-9-114-9-282V332q0-90 9-170 82-8 166-39 3-63-13-125-72 4-291 4-60 0-158-2T61-2Q45 53 45 123zm127 1470l397 277q98-53 133-164l-10-47-461-178q-44 41-59 112z"/><glyph unicode="Î" horiz-adv-x="718" d="M4 1563l275 270q71 12 147 12l289-272q-24-65-86-107l-277 174-272-174q-59 39-76 97zM45 123q75 8 178 39 10 49 10 125v641q0 155-10 282-103 31-178 39 0 70 16 125 41 0 139-2t158-2q219 0 291 4 16-62 13-125-84-31-166-39-9-114-9-282V332q0-90 9-170 82-8 166-39 3-63-13-125-72 4-291 4-60 0-158-2T61-2Q45 53 45 123z"/><glyph unicode="Ï" horiz-adv-x="718" d="M18 1626q0 62 43.5 115t106.5 53q46 0 83.5-34t37.5-83q0-61-42-109.5T145 1516q-49 0-88 32.5T18 1626zM45 123q75 8 178 39 10 49 10 125v641q0 155-10 282-103 31-178 39 0 70 16 125 41 0 139-2t158-2q219 0 291 4 16-62 13-125-84-31-166-39-9-114-9-282V332q0-90 9-170 82-8 166-39 3-63-13-125-72 4-291 4-60 0-158-2T61-2Q45 53 45 123zm385 1503q0 61 43 114.5t102 53.5q51 0 89-33.5t38-83.5q0-62-42.5-110T553 1516q-45 0-84 33t-39 77z"/><glyph unicode="Ð" horiz-adv-x="1402" d="M49 123q75 8 178 39 11 54 11 125v334H61q-23 80 0 155h177v152q0 143-11 282-103 31-178 39 0 67 17 125 41 0 138.5-2t157.5-2q72 0 208 5t196 5q135 0 243-50.5t178.5-141 108-214T1333 705q0-134-46-261.5t-127-228-203.5-162T692-8q-42 0-151 5T362 2q-60 0-157.5-2T66-2Q49 56 49 123zm443 47h178q71 0 147.5 16T920 223q147 116 147 400 0 88-14.5 171t-46 158-76.5 131.5-110 89.5-142 33q-68 0-186-4V776h215q20-78 0-155H492V170z"/><glyph unicode="Ñ" horiz-adv-x="1525" d="M45 123q75 8 178 39 10 49 10 125v641q0 155-10 282-103 31-178 39 0 70 16 125 43 0 136-2t141-2q146 0 207-8l528-905 51-209h6v680q0 155-10 282-103 31-178 39 0 70 16 125 44 0 135-2t134-2q184 0 256 4 15-58 12-125-84-31-166-39-8-101-8-282V23q-139-33-281-33L481 946l-51 209h-6V332q0-99 8-170 82-8 166-39 3-67-12-125-72 4-260 4-42 0-131-2T61-2Q45 53 45 123zm375 1479q47 89 119 145.5t137 56.5q41 0 89.5-29.5t93-59T934 1686q22 0 61.5 27t73.5 69q62-21 86-76-49-91-121-148t-137-57q-42 0-91 29.5t-93 58.5-72 29q-24 0-62.5-26t-74.5-68q-67 22-84 78z"/><glyph unicode="Ò" horiz-adv-x="1417" d="M70 662q0 107 29 213.5t86 202.5 135 170 184 117.5 225 43.5q194 0 336-93t212.5-249.5T1348 711q0-107-29-214.5t-86.5-203-135-169.5T914 6.5 690-37q-149 0-268 54T227 166 110.5 387.5 70 662zm266 83q0-120 24-223.5t71.5-186 129-130T748 158q53 0 115 20.5t83 42.5q56 62 95.5 166t39.5 240q0 121-23.5 224T987 1036.5t-128 130-187 47.5q-54 0-116-20t-85-43q-56-62-95.5-166T336 745zm26 984q34 100 144 155l383-287q-3-72-62-110l-452 194z"/><glyph unicode="Ó" horiz-adv-x="1417" d="M70 662q0 107 29 213.5t86 202.5 135 170 184 117.5 225 43.5q194 0 336-93t212.5-249.5T1348 711q0-107-29-214.5t-86.5-203-135-169.5T914 6.5 690-37q-149 0-268 54T227 166 110.5 387.5 70 662zm266 83q0-120 24-223.5t71.5-186 129-130T748 158q53 0 115 20.5t83 42.5q56 62 95.5 166t39.5 240q0 121-23.5 224T987 1036.5t-128 130-187 47.5q-54 0-116-20t-85-43q-56-62-95.5-166T336 745zm194 848l398 277q98-53 133-164l-10-47-461-178q-45 42-60 112z"/><glyph unicode="Ô" horiz-adv-x="1417" d="M70 662q0 107 29 213.5t86 202.5 135 170 184 117.5 225 43.5q194 0 336-93t212.5-249.5T1348 711q0-107-29-214.5t-86.5-203-135-169.5T914 6.5 690-37q-149 0-268 54T227 166 110.5 387.5 70 662zm266 83q0-120 24-223.5t71.5-186 129-130T748 158q53 0 115 20.5t83 42.5q56 62 95.5 166t39.5 240q0 121-23.5 224T987 1036.5t-128 130-187 47.5q-54 0-116-20t-85-43q-56-62-95.5-166T336 745zm26 818l275 270q71 12 147 12l289-272q-24-65-86-107l-276 174-273-174q-59 39-76 97z"/><glyph unicode="Õ" horiz-adv-x="1417" d="M70 662q0 107 29 213.5t86 202.5 135 170 184 117.5 225 43.5q194 0 336-93t212.5-249.5T1348 711q0-107-29-214.5t-86.5-203-135-169.5T914 6.5 690-37q-149 0-268 54T227 166 110.5 387.5 70 662zm266 83q0-120 24-223.5t71.5-186 129-130T748 158q53 0 115 20.5t83 42.5q56 62 95.5 166t39.5 240q0 121-23.5 224T987 1036.5t-128 130-187 47.5q-54 0-116-20t-85-43q-56-62-95.5-166T336 745zm14 857q47 89 119 145.5t137 56.5q41 0 89.5-29.5t93-59T864 1686q22 0 61.5 27t73.5 69q62-21 86-76-49-91-121-148t-137-57q-42 0-91 29.5t-93 58.5-72 29q-24 0-62.5-26t-74.5-68q-67 22-84 78z"/><glyph unicode="Ö" horiz-adv-x="1417" d="M70 662q0 107 29 213.5t86 202.5 135 170 184 117.5 225 43.5q194 0 336-93t212.5-249.5T1348 711q0-107-29-214.5t-86.5-203-135-169.5T914 6.5 690-37q-149 0-268 54T227 166 110.5 387.5 70 662zm266 83q0-120 24-223.5t71.5-186 129-130T748 158q53 0 115 20.5t83 42.5q56 62 95.5 166t39.5 240q0 121-23.5 224T987 1036.5t-128 130-187 47.5q-54 0-116-20t-85-43q-56-62-95.5-166T336 745zm41 881q0 62 43 115t106 53q46 0 83.5-34t37.5-83q0-61-41.5-109.5T504 1516q-49 0-88 32.5t-39 77.5zm411 0q0 61 43.5 114.5T934 1794q51 0 89-33.5t38-83.5q0-62-43-110t-107-51q-45 0-84 33t-39 77z"/><glyph unicode="×" horiz-adv-x="1105" d="M172 793q46 71 123 122l256-258 258 258q71-44 125-120L674 535l258-256q-53-77-125-121L551 412 297 158q-70 41-123 123l254 254z"/><glyph unicode="Ø" horiz-adv-x="1417" d="M70 662q0 107 29 213.5t86 202.5 135 170 184 117.5 225 43.5q143 0 266-55l86 159q84-6 131-65l-92-174q110-93 169-240t59-323q0-107-29-214.5t-86.5-203-135-169.5T914 6.5 690-37q-147 0-270 55l-88-161q-87 19-127 73l88 168q-109 92-166 239.5T70 662zm266 83q0-252 96-411l442 821q-88 59-202 59-54 0-116-20t-85-43q-56-62-95.5-166T336 745zm203-528q86-59 209-59 53 0 115 20.5t83 42.5q56 62 95.5 166t39.5 240q0 256-98 413z"/><glyph unicode="Ù" horiz-adv-x="1443" d="M12 1249q0 67 17 125 41 0 138.5-2t158.5-2q216 0 288 4 16-62 13-125-84-31-166-39-6-76-6-282V563q0-217 73.5-317.5T768 145q68 0 130 22.5t85 47.5q16 19 30.5 47t30 93.5T1059 500v428q0 155-10 282-102 31-179 39 0 67 17 125 43 0 134-2t140-2q182 0 254 4 15-58 12-125-85-31-165-39-9-114-9-282V543q0-127-31.5-230t-97-182.5T949 7 692-37Q447-37 324 85.5T201 479v449q0 143-11 282-103 31-178 39zm381 480q34 100 144 155l383-287q-3-72-62-110l-452 194z"/><glyph unicode="Ú" horiz-adv-x="1443" d="M12 1249q0 67 17 125 41 0 138.5-2t158.5-2q216 0 288 4 16-62 13-125-84-31-166-39-6-76-6-282V563q0-217 73.5-317.5T768 145q68 0 130 22.5t85 47.5q16 19 30.5 47t30 93.5T1059 500v428q0 155-10 282-102 31-179 39 0 67 17 125 43 0 134-2t140-2q182 0 254 4 15-58 12-125-85-31-165-39-9-114-9-282V543q0-127-31.5-230t-97-182.5T949 7 692-37Q447-37 324 85.5T201 479v449q0 143-11 282-103 31-178 39zm549 344l397 277q99-54 134-164l-11-47-460-178q-45 42-60 112z"/><glyph unicode="Û" horiz-adv-x="1443" d="M12 1249q0 67 17 125 41 0 138.5-2t158.5-2q216 0 288 4 16-62 13-125-84-31-166-39-6-76-6-282V563q0-217 73.5-317.5T768 145q68 0 130 22.5t85 47.5q16 19 30.5 47t30 93.5T1059 500v428q0 155-10 282-102 31-179 39 0 67 17 125 43 0 134-2t140-2q182 0 254 4 15-58 12-125-85-31-165-39-9-114-9-282V543q0-127-31.5-230t-97-182.5T949 7 692-37Q447-37 324 85.5T201 479v449q0 143-11 282-103 31-178 39zm381 314l275 270q70 12 147 12l289-272q-24-65-86-107l-277 174-272-174q-59 39-76 97z"/><glyph unicode="Ü" horiz-adv-x="1443" d="M12 1249q0 67 17 125 41 0 138.5-2t158.5-2q216 0 288 4 16-62 13-125-84-31-166-39-6-76-6-282V563q0-217 73.5-317.5T768 145q68 0 130 22.5t85 47.5q16 19 30.5 47t30 93.5T1059 500v428q0 155-10 282-102 31-179 39 0 67 17 125 43 0 134-2t140-2q182 0 254 4 15-58 12-125-85-31-165-39-9-114-9-282V543q0-127-31.5-230t-97-182.5T949 7 692-37Q447-37 324 85.5T201 479v449q0 143-11 282-103 31-178 39zm396 377q0 62 43 115t106 53q46 0 83.5-34t37.5-83q0-61-41.5-109.5T535 1516q-49 0-88 32.5t-39 77.5zm411 0q0 61 43.5 114.5T965 1794q51 0 89-33.5t38-83.5q0-62-43-110t-107-51q-45 0-84 33t-39 77z"/><glyph unicode="Ý" horiz-adv-x="1359" d="M8 1247q0 66 17 127 42 0 145-2t168-2q225 0 299 4 15-58 12-125l-176-37 264-487 256 487-186 37q0 68 14 125 38 0 125-2t137-2q189 0 250 4 16-62 13-125-77-31-152-39L811 506V332q0-99 8-170 107-8 221-39 3-69-14-125-84 4-344 4-71 0-186.5-2T332-2q-19 56-19 125 92 7 234 39 10 49 10 125v211l-385 710q-97 32-164 39zm531 346l397 277q98-53 133-164l-10-47-461-178q-44 41-59 112z"/><glyph unicode="Þ" horiz-adv-x="1187" d="M45 123q75 8 178 39 10 49 10 125v641q0 155-10 282-103 31-178 39 0 70 16 125 41 0 139-2t158-2q263 0 347 4 17-56 14-125-115-31-223-39-7-61-7-114 138 18 285 18 102 0 179-29.5t121-82 65.5-117T1161 745q0-77-41-160t-106-149.5T860.5 326 684 283q-106 0-197 18 0-80 11-139 107-8 221-39 3-69-14-125-86 4-347 4-60 0-158-2T61-2Q45 53 45 123zm442 344q65-6 148-6 60 0 120 16.5t72 28.5q34 32 56 81t22 105q0 45-12 87.5T856 860t-69.5 61T684 944q-106 0-197-12V467z"/><glyph unicode="ß" horiz-adv-x="1353" d="M63 117q89 9 164 35 9 67 9 114v551q-61 17-150 27-17 63-6 114 78 21 156 29v14q0 254 127 411t327 157q129 0 229-40.5t160-126.5 60-206q0-48-24.5-97.5T1055 1008t-70-81-59.5-82.5T901 764q0-37 23.5-66t61-49.5 83-40.5 91-46 83-58 61-83 23.5-116q0-158-111.5-243T926-23q-203 0-338 58 0 160 39 307 67 25 143 0 3-77 21-186 52-25 147-25 84 0 113.5 26t29.5 91q0 53-37 87.5T928 403q-50 20-82.5 36t-70 42-59 54.5-36 71.5-14.5 95q0 55 24.5 112.5t59 103.5 69.5 86 59.5 71.5T903 1124q0 120-66.5 196.5T670 1397q-45 0-78.5-11t-44.5-24q-27-38-46.5-132.5T481 1016V18L461-2q-40 4-92 4-63 0-158-2T78-2Q63 36 63 117z"/><glyph unicode="à" horiz-adv-x="1056" d="M63 225q0 80 52 149t139 117 178 80.5T623 625q-3 109-36 168t-108 59q-85 0-139-12-16-56-16-158-81-40-156-20-59 97-59 235 190 111 415 111 44 0 85-6.5t90-28 85-56 60-96.5 24-143V307q0-81 9-149 45 6 131 26 36-32 36-82-56-56-130.5-93.5T770-29q-34 0-67.5 39.5T647 115Q568 50 485.5 11.5T332-27q-127 0-198 65.5T63 225zm115 1227l15 45q97 54 225 51l217-381q-29-67-109-80zM317 289q0-53 36-90t102-37q73 0 168 71v230q-89-10-168-30t-97-34-29.5-47-11.5-63z"/><glyph unicode="á" horiz-adv-x="1056" d="M63 225q0 80 52 149t139 117 178 80.5T623 625q-3 109-36 168t-108 59q-85 0-139-12-16-56-16-158-81-40-156-20-59 97-59 235 190 111 415 111 44 0 85-6.5t90-28 85-56 60-96.5 24-143V307q0-81 9-149 45 6 131 26 36-32 36-82-56-56-130.5-93.5T770-29q-34 0-67.5 39.5T647 115Q568 50 485.5 11.5T332-27q-127 0-198 65.5T63 225zm254 64q0-53 36-90t102-37q73 0 168 71v230q-89-10-168-30t-97-34-29.5-47-11.5-63zm35 866l207 342q113 27 256 27l21-56-387-389q-69 9-97 76z"/><glyph unicode="â" horiz-adv-x="1056" d="M63 225q0 80 52 149t139 117 178 80.5T623 625q-3 109-36 168t-108 59q-85 0-139-12-16-56-16-158-81-40-156-20-59 97-59 235 190 111 415 111 44 0 85-6.5t90-28 85-56 60-96.5 24-143V307q0-81 9-149 45 6 131 26 36-32 36-82-56-56-130.5-93.5T770-29q-34 0-67.5 39.5T647 115Q568 50 485.5 11.5T332-27q-127 0-198 65.5T63 225zm107 922l225 352q79 20 164 17l246-363q-30-55-94-80l-234 223-217-223q-65 19-90 74zm147-858q0-53 36-90t102-37q73 0 168 71v230q-89-10-168-30t-97-34-29.5-47-11.5-63z"/><glyph unicode="ã" horiz-adv-x="1056" d="M63 225q0 80 52 149t139 117 178 80.5T623 625q-3 109-36 168t-108 59q-85 0-139-12-16-56-16-158-81-40-156-20-59 97-59 235 190 111 415 111 44 0 85-6.5t90-28 85-56 60-96.5 24-143V307q0-81 9-149 45 6 131 26 36-32 36-82-56-56-130.5-93.5T770-29q-34 0-67.5 39.5T647 115Q568 50 485.5 11.5T332-27q-127 0-198 65.5T63 225zm41 1002q49 91 123.5 149t141.5 58q44 0 93.5-30t95-59.5T637 1315q24 0 63.5 27t77.5 69q58-15 90-74-53-94-128-153.5T598 1124q-34 0-73.5 18.5t-68.5 41-63 41-59 18.5-64-26.5-77-69.5q-68 21-89 80zm213-938q0-53 36-90t102-37q73 0 168 71v230q-89-10-168-30t-97-34-29.5-47-11.5-63z"/><glyph unicode="ä" horiz-adv-x="1056" d="M63 225q0 80 52 149t139 117 178 80.5T623 625q-3 109-36 168t-108 59q-85 0-139-12-16-56-16-158-81-40-156-20-59 97-59 235 190 111 415 111 44 0 85-6.5t90-28 85-56 60-96.5 24-143V307q0-81 9-149 45 6 131 26 36-32 36-82-56-56-130.5-93.5T770-29q-34 0-67.5 39.5T647 115Q568 50 485.5 11.5T332-27q-127 0-198 65.5T63 225zm78 1016q0 64 44 117t108 53q48 0 88.5-35t40.5-84q0-64-45-115.5T270 1124q-51 0-90 34.5t-39 82.5zm176-952q0-53 36-90t102-37q73 0 168 71v230q-89-10-168-30t-97-34-29.5-47-11.5-63zm232 952q0 63 45 116.5t106 53.5q52 0 90.5-34.5T829 1292q0-66-43-116.5T678 1124q-47 0-88 35t-41 82z"/><glyph unicode="å" horiz-adv-x="1056" d="M63 225q0 80 52 149t139 117 178 80.5T623 625q-3 109-36 168t-108 59q-85 0-139-12-16-56-16-158-81-40-156-20-59 97-59 235 190 111 415 111 44 0 85-6.5t90-28 85-56 60-96.5 24-143V307q0-81 9-149 45 6 131 26 36-32 36-82-56-56-130.5-93.5T770-29q-34 0-67.5 39.5T647 115Q568 50 485.5 11.5T332-27q-127 0-198 65.5T63 225zm183 1090q0 85 77.5 157t174.5 72q108 0 167.5-55.5T725 1321q0-83-78-156t-174-73q-107 0-167 56t-60 167zm71-1026q0-53 36-90t102-37q73 0 168 71v230q-89-10-168-30t-97-34-29.5-47-11.5-63zm80 1036q0-36 27-66t63-30q41 0 64 18 22 11 22 66 0 37-27 65.5t-63 28.5q-43 0-63-16-23-18-23-66z"/><glyph unicode="æ" horiz-adv-x="1554" d="M63 225q0 56 25 106.5t70 89.5 99.5 72 120 58T502 594t121 31q-2 53-9.5 92t-23 70.5-43.5 48-68 16.5q-85 0-139-12-16-56-16-158-81-40-156-20-59 97-59 235 190 111 415 111 76 0 150.5-31T795 874q137 134 299 134 87 0 155-24.5t110-63.5 69.5-92 38-105 10.5-107q0-74-15-118l-22-21q-204 4-373 4H872q5-60 21.5-114t46-102 80.5-76.5 117-28.5q119 0 297 71 39-33 45-104-81-63-195.5-109.5T1069-29q-256 0-371 189-83-80-182.5-133.5T332-27q-127 0-198 65.5T63 225zm254 64q0-53 35.5-90T455 162q83 0 198 96-28 95-28 205-90-10-169-29.5T358 399q-18-14-29.5-46.5T317 289zm557 325h168q44 0 187 7 0 48-7 84.5t-24.5 69-52.5 50-86 17.5q-73 0-122-62t-63-166z"/><glyph unicode="ç" horiz-adv-x="952" d="M70 473q0 75 21 150.5T153.5 767t98 120 133 83 162.5 31q195 0 344-69-6-191-53-299-98-26-158 8-4 117-12 176-48 10-129 10-40 0-80-8t-56-24q-37-42-60.5-114.5T319 530q0-64 13-124.5t41.5-118T455 195t125-35q114 0 284 69 39-36 45-106-67-54-162-96T561-25l-22-59q100-3 156.5-46.5T752-244q0-108-111-197T375-559q-41 41-35 98 195 80 195 176 0 38-35 64t-97 22l-20 21 72 153Q324-13 236 57T109 232 70 473z"/><glyph unicode="è" horiz-adv-x="999" d="M70 467q0 132 59 255.5T297.5 927t241.5 81q87 0 155-24.5T804 920t69.5-92 38-105T922 616q0-74-15-118l-22-21q-238 4-428 4H317q5-60 21.5-114t46-102 80.5-76.5T582 160q119 0 297 71 39-33 45-104-81-63-195.5-109.5T514-29Q401-29 314 9.5T174.5 116 96 272.5 70 467zm151 985l15 45q97 54 225 51l217-381q-29-67-109-80zm101-838h106q157 0 246 7 0 48-7 84.5t-24.5 69-52.5 50-86 17.5q-25 0-57.5-10.5T401 807q-63-80-79-193z"/><glyph unicode="é" horiz-adv-x="999" d="M70 467q0 132 59 255.5T297.5 927t241.5 81q87 0 155-24.5T804 920t69.5-92 38-105T922 616q0-74-15-118l-22-21q-238 4-428 4H317q5-60 21.5-114t46-102 80.5-76.5T582 160q119 0 297 71 39-33 45-104-81-63-195.5-109.5T514-29Q401-29 314 9.5T174.5 116 96 272.5 70 467zm252 147h106q157 0 246 7 0 48-7 84.5t-24.5 69-52.5 50-86 17.5q-25 0-57.5-10.5T401 807q-63-80-79-193zm73 541l207 342q113 27 256 27l21-56-387-389q-69 9-97 76z"/><glyph unicode="ê" horiz-adv-x="999" d="M70 467q0 132 59 255.5T297.5 927t241.5 81q87 0 155-24.5T804 920t69.5-92 38-105T922 616q0-74-15-118l-22-21q-238 4-428 4H317q5-60 21.5-114t46-102 80.5-76.5T582 160q119 0 297 71 39-33 45-104-81-63-195.5-109.5T514-29Q401-29 314 9.5T174.5 116 96 272.5 70 467zm143 680l225 352q79 20 164 17l246-363q-30-55-94-80l-234 223-217-223q-65 19-90 74zm109-533h106q157 0 246 7 0 48-7 84.5t-24.5 69-52.5 50-86 17.5q-25 0-57.5-10.5T401 807q-63-80-79-193z"/><glyph unicode="ë" horiz-adv-x="999" d="M70 467q0 132 59 255.5T297.5 927t241.5 81q87 0 155-24.5T804 920t69.5-92 38-105T922 616q0-74-15-118l-22-21q-238 4-428 4H317q5-60 21.5-114t46-102 80.5-76.5T582 160q119 0 297 71 39-33 45-104-81-63-195.5-109.5T514-29Q401-29 314 9.5T174.5 116 96 272.5 70 467zm114 774q0 64 44 117t108 53q48 0 88.5-35t40.5-84q0-64-45-115.5T313 1124q-51 0-90 34.5t-39 82.5zm138-627h106q157 0 246 7 0 48-7 84.5t-24.5 69-52.5 50-86 17.5q-25 0-57.5-10.5T401 807q-63-80-79-193zm270 627q0 63 45 116.5t106 53.5q52 0 90.5-34.5T872 1292q0-66-43-116.5T721 1124q-47 0-88 35t-41 82z"/><glyph unicode="ì" horiz-adv-x="684" d="M39 1462l14 45q98 50 228 47l202-391q-30-67-110-76zM61 117q80 8 164 37 8 55 8 112v529q-91 24-161 32-17 59-9 107 181 64 402 74l22-21q-8-273-8-590v-90q0-79 6-153 92-10 154-37 0-85-12-119-110 4-267 4-65 0-157.5-2T76-2Q61 36 61 117z"/><glyph unicode="í" horiz-adv-x="684" d="M61 117q80 8 164 37 8 55 8 112v529q-91 24-161 32-17 59-9 107 181 64 402 74l22-21q-8-273-8-590v-90q0-79 6-153 92-10 154-37 0-85-12-119-110 4-267 4-65 0-157.5-2T76-2Q61 36 61 117zm138 1042l194 350q92 25 256 33l23-55-375-402q-68 9-98 74z"/><glyph unicode="î" horiz-adv-x="684" d="M27 1159l217 352q79 20 164 17l237-363q-33-57-96-75l-223 221-209-224q-65 16-90 72zM61 117q80 8 164 37 8 55 8 112v529q-91 24-161 32-17 59-9 107 181 64 402 74l22-21q-8-273-8-590v-90q0-79 6-153 92-10 154-37 0-85-12-119-110 4-267 4-65 0-157.5-2T76-2Q61 36 61 117z"/><glyph unicode="ï" horiz-adv-x="684" d="M-10 1241q0 64 43.5 117t107.5 53q48 0 88.5-35t40.5-84q0-64-44.5-115.5T119 1124q-51 0-90 34.5t-39 82.5zM61 117q80 8 164 37 8 55 8 112v529q-91 24-161 32-17 59-9 107 181 64 402 74l22-21q-8-273-8-590v-90q0-79 6-153 92-10 154-37 0-85-12-119-110 4-267 4-65 0-157.5-2T76-2Q61 36 61 117zm336 1124q0 62 45.5 116t106.5 54q52 0 90.5-34.5T678 1292q0-65-43.5-116T526 1124q-47 0-88 35t-41 82z"/><glyph unicode="ð" horiz-adv-x="1103" d="M70 461q0 144 62 269.5T299 930t225 74q119 0 215-99-41 185-164 330l-231-152q-67 55-82 146l215 114q-54 51-164 140 12 69 72 98 134-73 238-151l227 153q67-58 82-145l-195-107q151-148 218-324t67-389q0-184-58-329.5T790.5 57 520-29q-110 0-197 39.5T181.5 118t-83 155.5T70 461zm249 67q0-65 13-129t40-122.5 74.5-95T555 145q35 0 73 11t50 24q48 52 67.5 132.5T768 518l-2-8q-3 147-75 235.5T528 834q-33 0-69.5-9T408 799q-40-43-64.5-115T319 528z"/><glyph unicode="ñ" horiz-adv-x="1280" d="M61 117q89 9 164 35 8 60 8 114v525q-73 22-161 32-20 61-9 109 159 59 343 74l26-17q17-50 31-106 159 125 325 125 133 0 219.5-81.5T1094 686V307q0-79 6-153 91-10 153-37 0-87-14-119-106 4-262 4-56 0-138.5-2T725-2q-12 40-12 119 79 15 127 35 8 60 8 114v316q0 59-6 99t-23.5 75.5-53 53T676 827q-89 0-197-67V307q0-79 6-153 85-10 144-37 0-82-13-119-106 4-256 4-65 0-157.5-2T76-2Q61 36 61 117zm205 1110q49 92 123 149.5t141 57.5q35 0 74-18.5t68-41 64-41 63-18.5q24 0 63.5 27t77.5 69q58-15 90-74-53-94-128-153.5T760 1124q-34 0-73.5 18.5t-68.5 41-63 41-59 18.5-64.5-26.5T354 1147q-67 21-88 80z"/><glyph unicode="ò" horiz-adv-x="1087" d="M70 473q0 96 33.5 190T197 834.5 351.5 960t205.5 48q153 0 258.5-66.5t154-177.5 48.5-258q0-96-33.5-190t-94-171.5T735.5 19 530-29q-224 0-342 137.5T70 473zm157 979l15 45q97 54 225 51l217-381q-29-67-109-80zm92-926q0-64 13.5-127.5t41-122 77-95T565 145q33 0 69 9t48 26q38 45 62 117.5T768 453q0 64-13.5 127.5t-41 122-77 95T522 834q-33 0-68.5-8.5T406 801q-38-45-62.5-118.5T319 526z"/><glyph unicode="ó" horiz-adv-x="1087" d="M70 473q0 96 33.5 190T197 834.5 351.5 960t205.5 48q153 0 258.5-66.5t154-177.5 48.5-258q0-96-33.5-190t-94-171.5T735.5 19 530-29q-224 0-342 137.5T70 473zm249 53q0-64 13.5-127.5t41-122 77-95T565 145q33 0 69 9t48 26q38 45 62 117.5T768 453q0 64-13.5 127.5t-41 122-77 95T522 834q-33 0-68.5-8.5T406 801q-38-45-62.5-118.5T319 526zm82 629l207 342q113 27 256 27l21-56-387-389q-69 9-97 76z"/><glyph unicode="ô" horiz-adv-x="1087" d="M70 473q0 96 33.5 190T197 834.5 351.5 960t205.5 48q153 0 258.5-66.5t154-177.5 48.5-258q0-96-33.5-190t-94-171.5T735.5 19 530-29q-224 0-342 137.5T70 473zm163 674l226 352q79 20 164 17l245-363q-30-55-94-80l-233 223-217-223q-66 19-91 74zm86-621q0-64 13.5-127.5t41-122 77-95T565 145q33 0 69 9t48 26q38 45 62 117.5T768 453q0 64-13.5 127.5t-41 122-77 95T522 834q-33 0-68.5-8.5T406 801q-38-45-62.5-118.5T319 526z"/><glyph unicode="õ" horiz-adv-x="1087" d="M70 473q0 96 33.5 190T197 834.5 351.5 960t205.5 48q153 0 258.5-66.5t154-177.5 48.5-258q0-96-33.5-190t-94-171.5T735.5 19 530-29q-224 0-342 137.5T70 473zm98 754q49 92 123 149.5t141 57.5q44 0 93.5-30t95-59.5T700 1315q24 0 64 27t78 69q58-15 90-74-53-94-128-153.5T662 1124q-43 0-93.5 30t-95.5 59.5-76 29.5q-25 0-64-26.5t-77-69.5q-67 21-88 80zm151-701q0-64 13.5-127.5t41-122 77-95T565 145q33 0 69 9t48 26q38 45 62 117.5T768 453q0 64-13.5 127.5t-41 122-77 95T522 834q-33 0-68.5-8.5T406 801q-38-45-62.5-118.5T319 526z"/><glyph unicode="ö" horiz-adv-x="1087" d="M70 473q0 96 33.5 190T197 834.5 351.5 960t205.5 48q153 0 258.5-66.5t154-177.5 48.5-258q0-96-33.5-190t-94-171.5T735.5 19 530-29q-224 0-342 137.5T70 473zm135 768q0 64 43.5 117t107.5 53q48 0 88.5-35t40.5-84q0-64-44.5-115.5T334 1124q-51 0-90 34.5t-39 82.5zm114-715q0-64 13.5-127.5t41-122 77-95T565 145q33 0 69 9t48 26q38 45 62 117.5T768 453q0 64-13.5 127.5t-41 122-77 95T522 834q-33 0-68.5-8.5T406 801q-38-45-62.5-118.5T319 526zm293 715q0 62 45.5 116t106.5 54q52 0 90.5-34.5T893 1292q0-65-43.5-116T741 1124q-47 0-88 35t-41 82z"/><glyph unicode="÷" horiz-adv-x="1105" d="M133 451q-31 79 0 174h844q26-88 0-174H133zm291-238q0 49 38.5 83t92.5 34q53 0 90-34t37-83q0-53-37-90t-90-37q-54 0-92.5 37.5T424 213zm0 651q0 47 38.5 82t92.5 35q52 0 89.5-34.5T682 864q0-54-37-91.5T555 735q-54 0-92.5 37.5T424 864z"/><glyph unicode="ø" horiz-adv-x="1087" d="M70 473q0 96 33.5 190T197 834.5 351.5 960t205.5 48q71 0 150-21l71 146q83-14 123-56l-72-145q94-65 141.5-175t47.5-251q0-96-33.5-190t-94-171.5T735.5 19 530-29q-80 0-157 23l-70-146q-76 9-129 64l72 143Q70 185 70 473zm249 53q0-133 43-233l256 516q-52 25-96 25-103 0-153-84.5T319 526zm142-354q49-27 104-27 103 0 153 84.5T768 453q0 142-51 247z"/><glyph unicode="ù" horiz-adv-x="1241" d="M27 862q0 72 14 119 34 0 125.5-2t159.5-2h90l20-21q-4-190-4-544 0-250 137-250 86 0 219 127v530q-67 27-153 43 0 72 14 119 35 0 124.5-2t156.5-2h88l22-21q-6-174-6-542V307q0-89 8-149 47 6 132 26 36-32 36-82-56-56-131-93.5T936-29q-40 0-74.5 46.5T807 135Q654-29 485-29q-141 0-220 85.5T186 307v512q-65 26-159 43zm235 590l14 45q97 54 226 51l217-381q-29-67-109-80z"/><glyph unicode="ú" horiz-adv-x="1241" d="M27 862q0 72 14 119 34 0 125.5-2t159.5-2h90l20-21q-4-190-4-544 0-250 137-250 86 0 219 127v530q-67 27-153 43 0 72 14 119 35 0 124.5-2t156.5-2h88l22-21q-6-174-6-542V307q0-89 8-149 47 6 132 26 36-32 36-82-56-56-131-93.5T936-29q-40 0-74.5 46.5T807 135Q654-29 485-29q-141 0-220 85.5T186 307v512q-65 26-159 43zm409 293l207 342q113 27 256 27l21-56-388-389q-68 9-96 76z"/><glyph unicode="û" horiz-adv-x="1241" d="M27 862q0 72 14 119 34 0 125.5-2t159.5-2h90l20-21q-4-190-4-544 0-250 137-250 86 0 219 127v530q-67 27-153 43 0 72 14 119 35 0 124.5-2t156.5-2h88l22-21q-6-174-6-542V307q0-89 8-149 47 6 132 26 36-32 36-82-56-56-131-93.5T936-29q-40 0-74.5 46.5T807 135Q654-29 485-29q-141 0-220 85.5T186 307v512q-65 26-159 43zm239 285l226 352q79 20 163 17l246-363q-30-55-94-80l-234 223-217-223q-65 19-90 74z"/><glyph unicode="ü" horiz-adv-x="1241" d="M27 862q0 72 14 119 34 0 125.5-2t159.5-2h90l20-21q-4-190-4-544 0-250 137-250 86 0 219 127v530q-67 27-153 43 0 72 14 119 35 0 124.5-2t156.5-2h88l22-21q-6-174-6-542V307q0-89 8-149 47 6 132 26 36-32 36-82-56-56-131-93.5T936-29q-40 0-74.5 46.5T807 135Q654-29 485-29q-141 0-220 85.5T186 307v512q-65 26-159 43zm198 379q0 64 44 117t108 53q48 0 88.5-35t40.5-84q0-64-45-115.5T354 1124q-51 0-90 34.5t-39 82.5zm408 0q0 63 45 116.5t106 53.5q52 0 90.5-34.5T913 1292q0-66-43-116.5T762 1124q-47 0-88 35t-41 82z"/><glyph unicode="ý" horiz-adv-x="1159" d="M25 862q0 68 14 119 24 0 96-2t119-2q25 0 121.5 2t171.5 2q17-51 10-119l-137-37 166-471 2-170h6l219 643-143 35q0 73 16 119 34 0 121.5-2t144.5-2q54 0 172 4 17-61 11-119-51-25-125-35L715 18q-46-125-88.5-217.5t-94-169.5T423-486t-122-40q-146 0-231 47-6 78 41 131h28q261 0 367 270l31 78h-80L152 827q-47 23-127 35zm442 293l207 342q113 27 256 27l20-56-387-389q-68 9-96 76z"/><glyph unicode="þ" horiz-adv-x="1142" d="M-10-397q89 9 164 35 8 60 8 114v1604q-97 26-162 33-16 56-8 106 184 64 403 74l21-21q-8-273-8-590v-57q135 100 294 100 166 0 268.5-134T1073 508q0-94-33-188.5T950.5 149 810 25 633-23q-112 0-225 66v-250q0-79 6-153 130-7 241-37 0-82-12-117-226 4-352 4-64 0-156.5-2T4-514q-14 35-14 117zm418 647q48-43 107.5-70.5T633 152q63 0 107.5 46T804 310t19 143q0 96-24 178t-75 136-120 54q-80 0-196-63V250z"/><glyph unicode="ÿ" horiz-adv-x="1159" d="M25 862q0 68 14 119 24 0 96-2t119-2q25 0 121.5 2t171.5 2q17-51 10-119l-137-37 166-471 2-170h6l219 643-143 35q0 73 16 119 34 0 121.5-2t144.5-2q54 0 172 4 17-61 11-119-51-25-125-35L715 18q-46-125-88.5-217.5t-94-169.5T423-486t-122-40q-146 0-231 47-6 78 41 131h28q261 0 367 270l31 78h-80L152 827q-47 23-127 35zm231 379q0 64 44 117t108 53q48 0 88.5-35t40.5-84q0-64-45-115.5T385 1124q-51 0-90 34.5t-39 82.5zm408 0q0 63 45 116.5t106 53.5q52 0 90.5-34.5T944 1292q0-66-43-116.5T793 1124q-47 0-88 35t-41 82z"/><glyph unicode="Œ" horiz-adv-x="1880" d="M70 662q0 105 28.5 210t85.5 199 134.5 167T501 1354t222 43q111 0 278-27h271q354 0 481 4l21-22q6-212-23-377-87-18-154 0-6 118-30 225h-398V782q93 0 383 9l21-21q-3-88-21-152l-383 9V172h424q45 127 74 252 69 11 150-12 0-174-23-392l-20-22q-152 4-545 4H981Q796-25 686-25q-195 0-336.5 92.5T139 313.5 70 662zm266 79q0-117 25-217t75.5-180.5 136-127T770 170q84 0 150 10v1014q-79 8-183 8-72 0-145.5-18t-99.5-43q-64-61-110-163t-46-237z"/><glyph unicode="œ" horiz-adv-x="1699" d="M70 473q0 96 33.5 190T197 834.5 351.5 960t205.5 48q226 0 352-166 66 77 150.5 121.5T1237 1008q87 0 155-24.5t110-63.5 69.5-92 38-105 10.5-107q0-77-14-118l-21-21q-204 4-375 4h-194q5-60 21-114t46-102 80.5-76.5T1280 160q119 0 297 71 39-33 45-104-81-63-195.5-109.5T1212-29q-222 0-344 162Q726-29 530-29q-224 0-342 137.5T70 473zm249 53q0-64 13.5-127.5t41-122 77-95T565 145q103 0 153 84.5T768 453v24q-2 62-17 122t-43 114.5-76.5 87.5T522 834q-103 0-153-84.5T319 526zm699 88h168q42 0 186 7 0 48-7 84.5t-24.5 69-52.5 50-86 17.5q-73 0-121.5-62T1018 614z"/><glyph unicode="Ÿ" horiz-adv-x="1359" d="M8 1247q0 66 17 127 42 0 145-2t168-2q225 0 299 4 15-58 12-125l-176-37 264-487 256 487-186 37q0 68 14 125 38 0 125-2t137-2q189 0 250 4 16-62 13-125-77-31-152-39L811 506V332q0-99 8-170 107-8 221-39 3-69-14-125-84 4-344 4-71 0-186.5-2T332-2q-19 56-19 125 92 7 234 39 10 49 10 125v211l-385 710q-97 32-164 39zm377 379q0 62 43.5 115t106.5 53q46 0 83-34t37-83q0-61-41.5-109.5T512 1516q-49 0-88 32.5t-39 77.5zm412 0q0 61 43 114.5t102 53.5q51 0 89-33.5t38-83.5q0-62-42.5-110T920 1516q-45 0-84 33t-39 77z"/><glyph unicode="ˆ" horiz-adv-x="849" d="M109 1147l225 352q79 20 164 17l245-363q-30-55-94-80l-233 223-217-223q-65 19-90 74z"/><glyph unicode="˜" horiz-adv-x="849" d="M43 1227q49 92 123 149.5t141 57.5q44 0 93.5-30t95-59.5T575 1315q24 0 64 27t78 69q58-15 90-74-53-94-128-153.5T537 1124q-43 0-93.5 30t-95.5 59.5-76 29.5q-25 0-64-26.5t-77-69.5q-67 21-88 80z"/><glyph horiz-adv-x="948"/><glyph horiz-adv-x="1896"/><glyph horiz-adv-x="948"/><glyph horiz-adv-x="1896"/><glyph horiz-adv-x="632"/><glyph horiz-adv-x="474"/><glyph horiz-adv-x="316"/><glyph horiz-adv-x="316"/><glyph horiz-adv-x="237"/><glyph horiz-adv-x="379"/><glyph horiz-adv-x="105"/><glyph unicode="‐" horiz-adv-x="780" d="M131 418q-18 88 4 178l510 10q22-94 2-180z"/><glyph unicode="‑" horiz-adv-x="780" d="M131 418q-18 88 4 178l510 10q22-94 2-180z"/><glyph unicode="‒" horiz-adv-x="780" d="M131 418q-18 88 4 178l510 10q22-94 2-180z"/><glyph unicode="–" horiz-adv-x="999" d="M111 430q-15 82 0 162h778q15-82 0-162H111z"/><glyph unicode="—" horiz-adv-x="2048" d="M203 430q-18 80 0 162h1642q18-80 0-162H203z"/><glyph unicode="‘" horiz-adv-x="489" d="M76 1231q0 106 93.5 223T379 1626q47-18 59-67-125-132-125-238 0-85 86-111-7-65-55-107t-111-42q-71 0-114 47t-43 123z"/><glyph unicode="’" horiz-adv-x="489" d="M51 1126q125 132 125 238 0 85-86 111 7 65 55 107t111 42q71 0 114.5-47t43.5-123q0-106-93.5-223T111 1059q-48 19-60 67z"/><glyph unicode="‚" horiz-adv-x="501" d="M51-248Q176-116 176-10q0 84-86 110 7 65 55.5 107.5T256 250q71 0 114.5-47T414 80q0-106-93.5-223T111-315q-48 19-60 67z"/><glyph unicode="“" horiz-adv-x="909" d="M76 1231q0 106 93.5 223T379 1626q47-18 59-67-125-132-125-238 0-85 86-111-7-65-55-107t-111-42q-71 0-114 47t-43 123zm420 0q0 106 93.5 223T799 1626q47-18 59-67-125-132-125-238 0-85 86-111-7-65-55-107t-111-42q-71 0-114 47t-43 123z"/><glyph unicode="”" horiz-adv-x="909" d="M51 1126q125 132 125 238 0 85-86 111 7 65 55 107t111 42q71 0 114.5-47t43.5-123q0-106-93.5-223T111 1059q-48 19-60 67zm420 0q125 132 125 238 0 85-86 111 7 65 55 107t111 42q71 0 114.5-47t43.5-123q0-106-94-223t-210-172q-47 18-59 67z"/><glyph unicode="„" horiz-adv-x="921" d="M51-248Q176-116 176-10q0 84-86 110 7 65 55.5 107.5T256 250q71 0 114.5-47T414 80q0-106-93.5-223T111-315q-48 19-60 67zm420 0Q596-116 596-10q0 84-86 110 7 65 55.5 107.5T676 250q71 0 114.5-47T834 80q0-106-94-223T530-315q-47 18-59 67z"/><glyph unicode="•" horiz-adv-x="1069" d="M309 508q0 89 66 149t160 60q95 0 160-60t65-149q0-91-65-155t-160-64q-94 0-160 64t-66 155z"/><glyph unicode="…" horiz-adv-x="1783" d="M123 143q0 70 50 117t124 47 124-47 50-117q0-72-50.5-122T297-29 173.5 21 123 143zm594 0q0 70 50 117t124 47 124-47 50-117q0-72-50.5-122T891-29 767.5 21 717 143zm596 0q0 70 50 117t124 47 124-47 50-117q0-72-50.5-122T1487-29t-123.5 50-50.5 122z"/><glyph horiz-adv-x="379"/><glyph unicode="‹" horiz-adv-x="735" d="M98 453q-6 57 15 122l415 404q63-20 103-82L360 516l281-373Q605 75 524 43z"/><glyph unicode="›" horiz-adv-x="737" d="M94 879q39 71 119 98l424-410q6-61-14-123L207 41q-67 24-101 84l269 381z"/><glyph horiz-adv-x="474"/><glyph unicode="€" horiz-adv-x="974" d="M59 354q-15 60 0 121h84v23q0 48 4 73H59q-15 58 0 119h115q49 157 165.5 260T618 1053q164 0 285-45-3-189-41-297-69-12-133 10-5 72-18 149-43 9-113 9-87 0-149-31-15-9-37.5-53T375 690h254q16-48 0-119H360v-14q0-55 2-82h267q16-49 0-121H387q61-202 238-202 61 0 108 14 16 96 21 166 65 21 139 12 25-119 25-307-167-60-318-60-184 0-297 102.5T156 354H59z"/><glyph unicode="™" horiz-adv-x="1511" d="M49 1364l17 16h804l119-313 6-100h9l124 407h283q13-41 8-82l-78-20 25-383 82-19q9-45-6-82h-295q-15 37-6 82l76 19-17 244v102h-6l-129-436q-73-15-139-15l-113 340-16 115h-6l-25-348 63-21q6-41-6-82H582q-13 36-7 82l70 21 25 381H438V891l88-21q0-52-6-82H201q-12 40-6 84l94 19v381H168l-12-133q-49-18-90 0z"/><glyph unicode="" horiz-adv-x="983" d="M0 0v983h983V0H0z"/></font>
</defs>
</svg>
