<?xml version="1.0" standalone="no"?>
<!DOCTYPE svg PUBLIC "-//W3C//DTD SVG 1.1//EN" "http://www.w3.org/Graphics/SVG/1.1/DTD/svg11.dtd" >
<svg xmlns="http://www.w3.org/2000/svg">
<metadata></metadata>
<defs>
<font id="skolar_sbsemibold" horiz-adv-x="1435" >
<font-face units-per-em="2048" ascent="1536" descent="-512" />
<missing-glyph horiz-adv-x="428" />
<glyph unicode="&#xfb01;" horiz-adv-x="1355" d="M53 117q89 9 164 35q8 60 8 112v553q-78 19 -149 27q-15 47 -8 114q75 23 157 29v12q0 257 132 413.5t362 156.5q121 0 250.5 -26t222.5 -70q-3 -178 -68 -306q-84 -21 -184 0q-30 81 -33 205q-95 25 -211 25q-59 0 -101.5 -11t-53.5 -26q-29 -37 -49.5 -126t-20.5 -222 v-29h225q155 0 441 25l22 -21q-8 -271 -8 -581v-101q0 -77 6 -151q92 -10 154 -37q0 -82 -13 -119q-110 4 -266 4q-65 0 -157.5 -2t-126.5 -2q-15 38 -15 119q69 7 164 35q8 49 8 104v561h-434v-510q0 -77 6 -153q90 -7 154 -37q0 -78 -13 -119q-168 4 -266 4q-64 0 -155 -2 t-129 -2q-15 38 -15 119z" />
<glyph unicode="&#xfb02;" horiz-adv-x="1343" d="M53 117q80 8 164 37q8 60 8 112v551q-59 17 -149 27q-18 54 -8 114q92 24 157 29v14q0 259 125 413.5t324 154.5q116 0 241 -33q124 28 218 33l22 -21q-8 -273 -8 -590v-651q0 -79 6 -153q92 -10 154 -37q0 -82 -13 -119q-110 4 -268 4q-63 0 -156 -2t-127 -2 q-14 35 -14 119q89 9 164 35q8 60 8 114v1077q-120 54 -225 54q-53 0 -91 -10.5t-48 -24.5q-26 -38 -46 -130t-20 -216v-35l248 -2q0 -91 -8 -162h-240v-510q0 -79 6 -153q88 -7 154 -37q0 -82 -13 -119q-140 4 -278 4q-62 0 -150.5 -2t-121.5 -2q-15 38 -15 119z" />
<glyph unicode="&#xfb03;" horiz-adv-x="2035" d="M53 117q89 9 164 35q8 60 8 112v553q-59 17 -149 27q-18 54 -8 114q91 24 157 29q7 154 75.5 271.5t181 179t251.5 61.5q177 0 338 -51q127 121 332 121q122 0 252 -26t223 -70q-3 -178 -68 -306q-84 -21 -184 0q-30 81 -33 205q-95 25 -213 25q-61 0 -103.5 -11 t-53.5 -26q-30 -37 -51 -125.5t-21 -222.5v-29h225q155 0 441 25l22 -21q-8 -271 -8 -581v-101q0 -77 6 -151q92 -10 154 -37q0 -82 -13 -119q-110 4 -266 4q-65 0 -158 -2t-127 -2q-14 35 -14 119q69 7 164 35q8 49 8 104v561h-434v-510q0 -77 6 -153q90 -7 154 -37 q0 -78 -13 -119q-168 4 -266 4q-64 0 -155 -2t-129 -2q-15 38 -15 119q89 9 164 35q8 60 8 112v553h-434v-512q0 -81 6 -151q90 -7 154 -37q0 -82 -13 -119q-168 4 -266 4q-65 0 -156 -2t-128 -2q-15 38 -15 119zM471 983h434v16q0 152 47 273q-134 55 -252 55 q-50 0 -89 -10t-50 -23q-33 -40 -60 -122t-30 -189z" />
<glyph unicode="&#xfb04;" horiz-adv-x="2023" d="M53 117q89 9 164 35q8 60 8 112v553q-59 17 -149 27q-18 54 -8 114q91 24 157 29q7 154 75.5 271.5t181 179t251.5 61.5q170 0 328 -49q122 119 293 119q116 0 241 -33q125 28 217 33l23 -21q-8 -273 -8 -590v-651q0 -79 6 -153q92 -10 154 -37q0 -82 -13 -119 q-110 4 -268 4q-63 0 -156 -2t-127 -2q-14 35 -14 119q89 9 164 35q8 60 8 114v1077q-120 54 -225 54q-53 0 -91 -10.5t-48 -24.5q-26 -38 -46 -130t-20 -216v-33l248 -2q0 -93 -8 -164h-240v-510q0 -79 6 -153q88 -7 154 -37q0 -82 -13 -119q-140 4 -278 4q-62 0 -150.5 -2 t-121.5 -2q-15 38 -15 119q80 8 164 37q8 60 8 112v551h-434v-512q0 -81 6 -151q90 -7 154 -37q0 -82 -13 -119q-168 4 -266 4q-65 0 -156 -2t-128 -2q-15 38 -15 119zM471 983h434v18q0 158 45 271q-134 55 -250 55q-50 0 -89 -10t-50 -23q-33 -40 -60 -122t-30 -189z" />
<glyph horiz-adv-x="0" />
<glyph horiz-adv-x="0" />
<glyph horiz-adv-x="682" />
<glyph unicode="&#xd;" horiz-adv-x="0" />
<glyph unicode=" "  horiz-adv-x="428" />
<glyph unicode="&#x09;" horiz-adv-x="428" />
<glyph unicode="&#xa0;" horiz-adv-x="428" />
<glyph unicode="!" horiz-adv-x="620" d="M160 117q0 56 43.5 94.5t107.5 38.5q62 0 105 -39t43 -94q0 -58 -43.5 -102t-104.5 -44q-63 0 -107 44t-44 102zM160 1169q0 117 12 193q79 14 139 14q58 0 144 -14q8 -63 8 -186q0 -281 -70 -797q-48 -10 -84 -10q-38 0 -71 10q-78 502 -78 790z" />
<glyph unicode="&#x22;" horiz-adv-x="800" d="M76 1573q89 29 221 26l20 -20q-11 -302 -45 -510q-67 -28 -137 -16q-53 295 -59 520zM463 1573q89 29 221 26l21 -20q-11 -294 -46 -510q-67 -28 -137 -16q-53 295 -59 520z" />
<glyph unicode="#" horiz-adv-x="1212" d="M76 197q-17 87 0 163h217l43 248h-189q-11 32 -11 79t11 85h218l38 213q41 3 88.5 -6.5t79.5 -26.5l-32 -180h239l39 213q41 3 88.5 -6.5t79.5 -26.5l-33 -180h183q9 -35 9 -83.5t-9 -80.5h-211l-45 -248h186q19 -72 0 -163h-215l-37 -215q-41 -3 -88.5 5t-79.5 23 l33 187h-242l-37 -217q-39 -3 -88 6t-80 24l33 187h-188zM465 360h242l43 248h-240z" />
<glyph unicode="$" horiz-adv-x="946" d="M63 72q5 151 41 278q59 18 138 -6q8 -108 18 -166q66 -23 137 -28v305l-47 16q-50 17 -92.5 39.5t-84 55t-65.5 77t-24 96.5q0 67 28 120.5t76 86.5t104.5 53t121.5 27v141q62 23 133 0v-139q164 -7 295 -55q-2 -130 -27 -250q-83 -18 -137 8q-6 67 -21 135 q-77 13 -110 15v-263l86 -28q248 -87 248 -254q0 -128 -95.5 -222t-255.5 -112v-139q-75 -18 -133 0v137q-225 10 -334 72zM319 778q0 -59 95 -106v205q-37 -3 -54 -11q-41 -32 -41 -88zM530 158q47 8 64 20q45 34 45 107q0 61 -109 118v-245z" />
<glyph unicode="%" horiz-adv-x="1499" d="M37 1014q0 94 39.5 180.5t118 144.5t176.5 58q75 0 135 -29.5t96.5 -79.5t56 -113.5t19.5 -134.5q0 -93 -39.5 -179t-118 -144t-176.5 -58q-147 0 -227 102.5t-80 252.5zM248 1055q0 -106 31 -176t86 -70q41 0 57 16q47 63 47 176q0 106 -31.5 176t-87.5 70 q-39 0 -57 -18q-45 -61 -45 -174zM254 45l870 1378q72 -18 125 -84l-872 -1374q-83 26 -123 80zM821 332q0 70 23 137.5t64.5 122.5t105.5 89t139 34q146 0 226.5 -104t80.5 -253q0 -69 -23.5 -136.5t-65.5 -122t-106 -88.5t-139 -34q-146 0 -225.5 103t-79.5 252zM1030 373 q0 -106 31.5 -176t87.5 -70q39 0 55 16q47 63 47 176q0 106 -31 176t-87 70q-18 0 -34.5 -6t-21.5 -12q-47 -63 -47 -174z" />
<glyph unicode="&#x26;" horiz-adv-x="1538" d="M41 324q0 260 291 415q-92 161 -92 271q0 97 36 175.5t95.5 126t132 72.5t149.5 25q128 0 212.5 -75t84.5 -201q0 -116 -75 -222.5t-240 -187.5q127 -174 340 -371q153 181 180 357q-68 24 -156 34q0 75 17 121q38 0 128 -3t142 -3q76 0 211 6q12 -35 12 -112 q-58 -31 -153 -45q-68 -236 -271 -451q135 -109 218 -109q80 0 172 33q44 -31 51 -98q-64 -43 -152.5 -72.5t-163.5 -29.5q-128 0 -305 124q-184 -141 -428 -141q-120 0 -218.5 43t-158 126.5t-59.5 191.5zM295 401q0 -106 84 -177.5t207 -71.5q109 0 200 45 q-222 195 -378 424q-113 -99 -113 -220zM477 1069q0 -98 84 -240q81 59 118.5 119.5t37.5 106.5q0 68 -34.5 116t-86.5 48q-27 0 -54 -8t-36 -19q-11 -15 -20 -49.5t-9 -73.5z" />
<glyph unicode="'" horiz-adv-x="413" d="M76 1573q89 29 221 26l20 -20q-11 -302 -45 -510q-67 -28 -137 -16q-53 295 -59 520z" />
<glyph unicode="(" horiz-adv-x="714" d="M154 662q0 277 96 549.5t311 564.5q93 -18 131 -84q-151 -280 -213.5 -531t-62.5 -514q0 -515 276 -1022q-51 -67 -135 -82q-212 292 -307.5 567t-95.5 552z" />
<glyph unicode=")" horiz-adv-x="714" d="M23 -371q150 279 213 532.5t63 512.5q0 517 -276 1024q50 63 135 78q212 -290 307.5 -564.5t95.5 -552.5q0 -276 -96.5 -550.5t-310.5 -565.5q-91 18 -131 86z" />
<glyph unicode="*" horiz-adv-x="804" d="M39 1212q-3 96 55 185q60 -21 136.5 -64.5t127.5 -79.5q-105 165 -139 273q82 53 184 47q13 -63 15 -161t-4 -142q1 2 22.5 40t33 57t33.5 53.5t42 61t39 46.5q79 -42 131 -137q-85 -78 -256 -162q210 6 307 -17q5 -90 -53 -182q-111 36 -269 144q37 -55 80 -133.5 t62 -141.5q-82 -53 -185 -47q-26 122 -10 303q-2 -3 -23 -40t-33 -56.5t-33 -53.5t-40.5 -60t-38.5 -46q-83 42 -133 137q89 78 256 160q-213 -6 -307 16z" />
<glyph unicode="+" horiz-adv-x="1105" d="M133 451q-31 79 0 174h332v336q87 26 174 0v-336h338q26 -88 0 -174h-338v-334q-81 -31 -174 0v334h-332z" />
<glyph unicode="," horiz-adv-x="593" d="M78 -227q56 58 96.5 131t40.5 133q0 87 -88 119q7 68 56.5 110.5t115.5 42.5q81 0 129.5 -48t48.5 -126q0 -118 -104.5 -247t-233.5 -185q-25 8 -42.5 27t-18.5 43z" />
<glyph unicode="-" horiz-adv-x="780" d="M131 418q-18 88 4 178l510 10q22 -94 2 -180z" />
<glyph unicode="." horiz-adv-x="593" d="M123 143q0 70 50 117t124 47t124 -47t50 -117q0 -72 -50.5 -122t-123.5 -50t-123.5 50t-50.5 122z" />
<glyph unicode="/" horiz-adv-x="892" d="M41 -141l602 1583q104 -14 188 -74l-598 -1579q-113 15 -192 70z" />
<glyph unicode="0" horiz-adv-x="1177" d="M72 532q0 74 18.5 147t59 142t98.5 121.5t142.5 84.5t184.5 32q99 0 186 -33t149 -88.5t107 -128t67 -152t22 -159.5q0 -74 -19 -147t-59.5 -142t-98 -121.5t-142.5 -84.5t-185 -32q-99 0 -186 33t-149 88.5t-106.5 128t-66.5 152t-22 159.5zM324 489q0 -89 28.5 -168.5 t69.5 -127.5q18 -21 59.5 -34.5t81.5 -13.5q78 0 136.5 33.5t91 91.5t48 126t15.5 147q0 89 -27.5 169.5t-68.5 125.5q-18 21 -60 34t-84 13q-77 0 -135 -33.5t-91 -90.5t-48.5 -125.5t-15.5 -146.5z" />
<glyph unicode="1" horiz-adv-x="782" d="M49 950q207 80 486 103l22 -21q-8 -273 -8 -586v-133q0 -81 6 -157q119 -10 203 -37q0 -82 -17 -121q-136 4 -315 4q-75 0 -186 -2t-152 -2q-18 36 -18 121q119 9 225 39q8 52 8 114v566h-235q-19 53 -19 112z" />
<glyph unicode="2" horiz-adv-x="989" d="M66 938q82 51 186 86t201 35q171 0 274.5 -84.5t103.5 -218.5q0 -260 -405 -523l-109 -67v-6h390q34 80 63 209q70 11 150 -9q5 -137 -17 -342l-22 -20q-125 4 -488 4h-270q-45 60 -49 180q96 58 179 118t160 128.5t122 138.5t45 129q0 79 -55.5 134t-145.5 55 q-49 0 -100 -15q-15 -79 -15 -196q-79 -28 -147 -15q-51 145 -51 279z" />
<glyph unicode="3" horiz-adv-x="913" d="M18 938q82 52 191.5 86.5t218.5 34.5q168 0 270.5 -82.5t102.5 -216.5q0 -93 -63 -174t-169 -129q136 -26 209.5 -100.5t73.5 -182.5q0 -224 -200 -369t-597 -176q-35 48 -24 117q154 30 278.5 79.5t207.5 125t83 160.5q0 93 -66 148.5t-163 55.5q-49 0 -95 -4l-22 19 q-15 82 22 162q113 2 194 66.5t81 156.5q0 73 -55 121.5t-146 48.5q-57 0 -119 -15q-14 -74 -14 -192q-78 -28 -147 -14q-52 145 -52 274z" />
<glyph unicode="4" horiz-adv-x="1032" d="M23 236l524 768q116 38 237 38l23 -20v-776l225 -17q0 -86 -14 -157h-211v-394q-91 -33 -211 -36l-23 20v410h-507q-43 59 -43 164zM231 244h342v577h-4l-55 -172z" />
<glyph unicode="5" horiz-adv-x="874" d="M31 -254q149 33 270.5 87t202 136t80.5 174q0 116 -68 187t-182 71q-116 0 -215 -26l-21 22v611l21 20h190q149 0 461 4l21 -20q-3 -80 -21 -154h-434v-293q64 6 123 6q158 0 267.5 -100t109.5 -260q0 -114 -47.5 -211t-141 -174.5t-244.5 -128.5t-348 -68 q-32 50 -24 117z" />
<glyph unicode="6" horiz-adv-x="1079" d="M78 524q0 67 10 133t35.5 139t64.5 139t101 131t141 117.5t188.5 95t239.5 67.5q40 -34 43 -109q-133 -48 -230 -100.5t-172.5 -120t-117.5 -153t-51 -189.5h6q138 166 309 166q167 0 275 -106.5t108 -272.5q0 -114 -44 -209.5t-115.5 -155.5t-160 -92.5t-180.5 -32.5 q-97 0 -176 38.5t-129 97.5t-83.5 135t-47.5 146.5t-14 135.5zM334 506q21 -154 89 -257.5t161 -103.5q38 0 74.5 11.5t52.5 23.5q31 25 51 84t20 133q0 116 -60 190.5t-140 74.5q-129 0 -248 -156z" />
<glyph unicode="7" horiz-adv-x="950" d="M31 1012l20 20q222 -4 441 -4h382q46 -51 56 -151q-296 -595 -535 -1256q-158 3 -227 96l-4 31l561 1110h-496q-22 -124 -28 -264q-32 -10 -75.5 -10t-72.5 10q-27 190 -22 418z" />
<glyph unicode="8" horiz-adv-x="1081" d="M74 301q0 215 272 348v6q-116 65 -175.5 133.5t-59.5 151.5t41.5 159.5t105.5 128.5t142 83.5t151 31.5q187 0 294 -81.5t107 -198.5q0 -97 -62.5 -175.5t-172.5 -133.5v-9q142 -71 218.5 -151t76.5 -180q0 -83 -39 -163t-106 -143t-166.5 -102t-211.5 -39 q-198 0 -306.5 84t-108.5 250zM305 346q0 -57 21 -99t56.5 -64t74.5 -32t82 -10q53 0 105.5 15.5t68.5 29.5q53 50 53 148q0 37 -20 70.5t-60.5 65t-82.5 56t-105 56.5q-91 -43 -142 -104.5t-51 -131.5zM358 1024q0 -59 55 -107.5t165 -105.5q143 91 143 186q0 68 -58 120 t-141 52q-35 0 -72.5 -10.5t-48.5 -19.5q-43 -40 -43 -115z" />
<glyph unicode="9" horiz-adv-x="1079" d="M53 569q0 92 28.5 172t77 137.5t112.5 99t135.5 61.5t144.5 20q97 0 176.5 -40t129 -101.5t83.5 -140t47.5 -151t13.5 -139.5q0 -70 -10 -138.5t-35.5 -144.5t-64.5 -145t-101 -136.5t-141 -122t-188.5 -99t-239.5 -70.5q-40 37 -43 111q136 51 235 108t174.5 131 t116 168t46.5 209h-5q-140 -168 -311 -168q-167 0 -274 106.5t-107 272.5zM297 635q0 -117 60.5 -190.5t140.5 -73.5q126 0 243 151q-21 156 -86.5 259.5t-156.5 103.5q-40 0 -77 -10.5t-52 -22.5q-32 -27 -52 -86t-20 -131z" />
<glyph unicode=":" horiz-adv-x="593" d="M127 135q0 64 50 109t120 45q71 0 120.5 -45t49.5 -109q0 -68 -50 -116t-120 -48q-69 0 -119.5 48.5t-50.5 115.5zM127 825q0 64 50 109t120 45q71 0 120.5 -45t49.5 -109q0 -68 -50 -115.5t-120 -47.5q-69 0 -119.5 48t-50.5 115z" />
<glyph unicode=";" horiz-adv-x="593" d="M72 -227q56 58 96.5 131t40.5 133q0 87 -88 119q7 67 55.5 110t110.5 43q85 0 134.5 -47.5t49.5 -126.5q0 -117 -105 -245.5t-235 -186.5q-56 20 -59 70zM127 825q0 64 50 109t120 45q71 0 120.5 -45t49.5 -109q0 -68 -50 -115.5t-120 -47.5q-69 0 -119.5 48t-50.5 115z " />
<glyph unicode="&#x3c;" horiz-adv-x="1105" d="M88 477q-23 77 0 164l868 410q63 -63 74 -156l-723 -336l723 -334q-9 -87 -76 -157z" />
<glyph unicode="=" horiz-adv-x="1105" d="M133 270q-31 81 0 174h844q26 -87 0 -174h-844zM133 629q-30 80 0 176h844q26 -89 0 -176h-844z" />
<glyph unicode="&#x3e;" horiz-adv-x="1105" d="M72 221l723 336l-721 334q6 84 73 160l867 -410q23 -80 0 -164l-869 -409q-61 58 -73 153z" />
<glyph unicode="?" horiz-adv-x="854" d="M63 1313q56 36 159 63t204 27q195 0 296 -98t101 -256q0 -76 -27.5 -143t-70.5 -115t-86.5 -87t-86.5 -77.5t-60 -67.5t-17 -156q-34 -22 -94 -29t-111 3q-32 118 -32 205q0 32 24 66t60.5 62t79 61.5t79 64t60.5 69.5t24 78q0 95 -59 165.5t-148 70.5q-33 0 -73 -7 q-30 -116 -37 -211q-82 -23 -150 -10q-35 146 -35 322zM229 117q0 56 43.5 94.5t106.5 38.5q61 0 104 -38.5t43 -94.5q0 -58 -43 -102t-104 -44q-62 0 -106 44t-44 102z" />
<glyph unicode="@" horiz-adv-x="1914" d="M76 393q0 198 73 372.5t202.5 302t318.5 201.5t411 74q170 0 316 -63t244 -168t153 -243t55 -287q0 -272 -163 -441.5t-418 -169.5q-40 0 -75 45.5t-56 116.5q-144 -162 -279 -162q-109 0 -186.5 68t-113.5 178.5t-36 251.5q0 225 127 381t295 156q221 0 420 -113v-590 q0 -81 6 -149q65 0 130 34t87 72q60 103 60 252q0 187 -80.5 336.5t-228.5 235t-337 85.5q-128 0 -271.5 -49.5t-192.5 -95.5q-236 -219 -236 -553q0 -195 80.5 -352t222 -245.5t316.5 -88.5q103 0 173.5 11.5t170.5 43.5q48 -42 45 -114q-200 -119 -455 -119 q-161 0 -304.5 59t-247.5 161.5t-165 249.5t-61 316zM766 526q0 -149 46 -257.5t122 -108.5q66 0 184 125v497q-81 49 -155 49q-45 0 -77 -9.5t-42 -22.5q-33 -41 -55.5 -117t-22.5 -156z" />
<glyph unicode="A" d="M10 123q67 7 164 39l420 1188q101 32 237 32l441 -1220q74 -8 151 -39q1 -11 1 -22q0 -55 -13 -103q-70 4 -287 4q-59 0 -159.5 -2t-143.5 -2q-16 55 -16 125l194 37l-92 256q-182 10 -313 10h-141l-91 -266l181 -37v-20q0 -53 -13 -105q-74 4 -262 4q-46 0 -126 -2 t-115 -2q-17 58 -17 125zM504 580h346l-137 387l-8 186h-5z" />
<glyph unicode="B" horiz-adv-x="1253" d="M45 123q75 8 178 39q10 49 10 160v606q0 155 -10 282q-103 31 -178 39q0 70 16 125q41 0 139 -2t158 -2q84 0 215 5t177 5q152 0 253 -91t101 -226q0 -89 -47 -168t-154 -131q147 -36 226 -122.5t79 -195.5q0 -82 -36.5 -162.5t-102 -145.5t-167.5 -105.5t-222 -40.5 q-48 0 -151 5t-171 5q-60 0 -158 -2t-139 -2q-16 55 -16 125zM487 170h136q69 0 125 6.5t82 14t34 14.5q80 66 80 198q0 106 -83.5 168t-225.5 62h-148v-463zM487 801h101q128 0 189 57.5t61 140.5q0 87 -54 147t-133 60q-5 0 -164 -6v-399z" />
<glyph unicode="C" horiz-adv-x="1232" d="M70 662q0 107 27.5 212t85.5 200.5t138.5 169t194.5 116.5t246 43q221 0 389 -60q0 -220 -47 -385q-25 -4 -50 -4q-51 0 -98 17q-5 95 -26 225q-73 12 -207 12q-69 0 -140.5 -16.5t-97.5 -38.5q-29 -25 -60 -74t-60 -141t-29 -193q0 -123 25.5 -226t76.5 -183.5 t137.5 -126t200.5 -45.5q103 0 180 18q20 127 29 250q49 16 100 16q26 0 52 -4q30 -158 30 -399q-214 -76 -440 -76q-161 0 -288 54t-207 149t-121 219.5t-41 270.5z" />
<glyph unicode="D" horiz-adv-x="1398" d="M45 123q75 8 178 39q10 49 10 125v641q0 155 -10 282q-103 31 -178 39q0 70 16 125q41 0 139 -2t158 -2q72 0 208 5t196 5q135 0 243 -50.5t178.5 -141t108 -214t37.5 -269.5q0 -134 -46 -261.5t-127 -228t-203.5 -162t-264.5 -61.5q-42 0 -151 5t-179 5q-60 0 -158 -2 t-139 -2q-16 55 -16 125zM487 170h179q71 0 147 16t102 37q148 117 148 400q0 88 -14.5 171t-46 158t-76.5 131.5t-110 89.5t-142 33q-69 0 -187 -4v-1032z" />
<glyph unicode="E" horiz-adv-x="1202" d="M45 123q75 8 178 39q10 49 10 125v641q0 152 -10 282q-103 31 -178 39q0 70 16 125q41 0 139 -2t158 -2h236q354 0 481 4l23 -22q1 -36 1 -70q0 -177 -26 -307q-42 -9 -79.5 -9t-71.5 9q-9 119 -33 225h-402v-418q92 0 387 9l23 -21q-3 -92 -23 -152q-203 6 -387 9v-455 h428q45 127 74 252q23 4 46 4q50 0 104 -16q0 -174 -23 -392l-20 -22q-127 4 -482 4h-252q-61 0 -160.5 -2t-140.5 -2q-16 55 -16 125z" />
<glyph unicode="F" horiz-adv-x="1114" d="M45 123q75 8 178 39q10 49 10 160v606q0 155 -10 282q-103 31 -178 39q0 70 16 125q41 0 140 -2t159 -2h236q354 0 481 4l21 -22q1 -39 1 -76q0 -180 -24 -326q-42 -9 -80.5 -9t-72.5 9q-6 125 -31 250h-404v-446q130 0 392 8l20 -21q-3 -91 -20 -151q-132 4 -392 8v-266 q0 -90 9 -170q109 -8 223 -39v-20q0 -57 -14 -105q-86 4 -343 4q-61 0 -160 -2t-141 -2q-16 55 -16 125z" />
<glyph unicode="G" horiz-adv-x="1386" d="M70 662q0 107 27.5 212t86 201t140.5 168.5t199.5 116t254.5 43.5q227 0 398 -60v-23q0 -190 -48 -349q-28 -4 -54 -4q-52 0 -97 16q-6 113 -27 225q-89 13 -207 13q-80 0 -153.5 -17t-100.5 -39q-30 -27 -63 -77t-63.5 -145t-30.5 -198q0 -125 26.5 -231t79.5 -188.5 t140 -129t200 -46.5q78 0 166 12v41q0 155 -10 282q-109 31 -201 39q0 69 19 125q39 0 134.5 -2t162.5 -2q225 0 282 4q13 -48 13 -103q0 -11 -1 -22q-73 -31 -147 -39q-8 -91 -8 -307v-96q-281 -113 -512 -113q-146 0 -263 54t-191 149t-113 220t-39 270z" />
<glyph unicode="H" horiz-adv-x="1572" d="M45 123q75 8 178 39q10 49 10 153v613q0 155 -10 282q-103 31 -178 39q0 70 16 125q41 0 139 -2t158 -2q219 0 291 4q13 -52 13 -105v-20q-84 -31 -166 -39q-9 -123 -9 -311v-100h603v129q0 143 -11 282q-103 31 -178 39q0 67 17 125q41 0 138.5 -2t157.5 -2q219 0 291 4 q13 -52 13 -105v-20q-84 -31 -166 -39q-9 -123 -9 -311v-567q0 -90 9 -170q82 -8 166 -39v-20q0 -53 -13 -105q-72 4 -291 4q-60 0 -157.5 -2t-138.5 -2q-17 58 -17 125q75 8 178 39q11 67 11 153v303q-253 15 -402 15h-201v-301q0 -90 9 -170q82 -8 166 -39v-20 q0 -53 -13 -105q-72 4 -291 4q-60 0 -158 -2t-139 -2q-16 55 -16 125z" />
<glyph unicode="I" horiz-adv-x="718" d="M45 123q75 8 178 39q10 49 10 125v641q0 155 -10 282q-103 31 -178 39q0 70 16 125q41 0 139 -2t158 -2q219 0 291 4q13 -52 13 -105v-20q-84 -31 -166 -39q-9 -114 -9 -282v-596q0 -90 9 -170q82 -8 166 -39v-20q0 -53 -13 -105q-72 4 -291 4q-60 0 -158 -2t-139 -2 q-16 55 -16 125z" />
<glyph unicode="J" horiz-adv-x="671" d="M-111 -313q163 63 242.5 160t79.5 257v824q0 155 -10 282q-103 31 -178 39q0 70 16 125q41 0 139.5 -2t159.5 -2q217 0 289 4q13 -48 13 -103q0 -11 -1 -22q-84 -31 -166 -39q-8 -101 -8 -282v-852q0 -242 -141.5 -369t-395.5 -147q-40 45 -40 109q0 9 1 18z" />
<glyph unicode="K" horiz-adv-x="1415" d="M45 123q75 8 178 39q10 49 10 153v613q0 155 -10 282q-103 31 -178 39q0 70 16 125q41 0 139 -2t158 -2q219 0 291 4q13 -52 13 -105v-20q-84 -31 -166 -39q-9 -123 -9 -311v-186l476 499l-172 35q0 72 16 127q44 0 134.5 -2t139.5 -2q197 0 265 4q12 -48 12 -103v-22 q-81 -31 -154 -39l-393 -401l426 -647q93 -13 162 -39v-21q0 -56 -13 -106q-80 4 -253 4h-111l-395 618l-140 -141v-145q0 -90 9 -170q82 -8 166 -39v-20q0 -53 -13 -105q-72 4 -291 4q-60 0 -158 -2t-139 -2q-16 55 -16 125z" />
<glyph unicode="L" horiz-adv-x="1161" d="M45 123q75 8 178 39q10 49 10 125v641q0 155 -10 282q-103 31 -178 39q0 70 16 125q43 0 144.5 -2t163.5 -2q254 0 336 4q14 -48 14 -105v-20q-115 -31 -223 -39q-9 -114 -9 -282v-756h428q45 149 74 291q23 4 48 4q48 0 106 -16q0 -198 -23 -431l-22 -22q-127 4 -482 4 h-258q-60 0 -158 -2t-139 -2q-16 55 -16 125z" />
<glyph unicode="M" horiz-adv-x="1892" d="M25 123q80 8 180 41l100 1046q-111 32 -182 39q0 70 16 125q40 0 129 -2t140 -2q164 0 272 -6l244 -854l4 -211h6l289 1065q111 6 247 6q217 0 287 4q13 -48 13 -103q0 -11 -1 -22q-85 -31 -167 -39l96 -1048q86 -8 170 -39v-20q0 -53 -13 -105q-70 4 -286 4 q-59 0 -155 -2t-136 -2q-16 55 -16 125l180 39l-78 827l8 209h-6l-332 -1175q-104 -33 -237 -33l-281 999l-20 209h-7l-98 -1034l168 -41q1 -11 1 -22q0 -55 -13 -103q-72 4 -268 4q-37 0 -117 -2t-121 -2q-16 55 -16 125z" />
<glyph unicode="N" horiz-adv-x="1525" d="M45 123q75 8 178 39q10 49 10 125v641q0 155 -10 282q-103 31 -178 39q0 70 16 125q43 0 136 -2t141 -2q146 0 207 -8l528 -905l51 -209h6v680q0 155 -10 282q-103 31 -178 39q0 70 16 125q44 0 135 -2t134 -2q184 0 256 4q13 -48 13 -103q0 -11 -1 -22q-84 -31 -166 -39 q-8 -101 -8 -282v-905q-139 -33 -281 -33l-559 956l-51 209h-6v-823q0 -99 8 -170q82 -8 166 -39v-22q0 -55 -12 -103q-72 4 -260 4q-42 0 -131 -2t-134 -2q-16 55 -16 125z" />
<glyph unicode="O" horiz-adv-x="1417" d="M70 662q0 107 29 213.5t86 202.5t135 170t184 117.5t225 43.5q194 0 336 -93t212.5 -249.5t70.5 -355.5q0 -107 -29 -214.5t-86.5 -203t-135 -169.5t-183.5 -117.5t-224 -43.5q-149 0 -268 54t-195 149t-116.5 221.5t-40.5 274.5zM336 745q0 -120 24 -223.5t71.5 -186 t129 -130t187.5 -47.5q53 0 115 20.5t83 42.5q56 62 95.5 166t39.5 240q0 121 -23.5 224t-70.5 185.5t-128 130t-187 47.5q-54 0 -116 -20t-85 -43q-56 -62 -95.5 -166t-39.5 -240z" />
<glyph unicode="P" horiz-adv-x="1200" d="M45 123q75 8 178 39q10 49 10 125v641q0 155 -10 282q-103 31 -178 39q0 70 16 125q41 0 139 -2t158 -2q74 0 209.5 5t184.5 5q102 0 182 -31.5t129 -85.5t74.5 -122.5t25.5 -147.5q0 -90 -42.5 -180.5t-113 -160.5t-168.5 -114t-202 -44q-90 0 -150 8v-170q0 -90 9 -170 q109 -8 223 -39v-20q0 -57 -14 -105q-86 4 -343 4q-61 0 -160 -2t-141 -2q-16 55 -16 125zM487 678q39 -4 127 -4q45 0 94 10.5t77 21.5t34 17q78 68 78 221q0 65 -21.5 122t-73 98.5t-124.5 41.5q-69 0 -191 -4v-524z" />
<glyph unicode="Q" horiz-adv-x="1417" d="M70 662q0 107 29 213.5t86 202.5t135 170t184 117.5t225 43.5q194 0 336 -93t212.5 -249.5t70.5 -355.5q0 -156 -58.5 -304.5t-173.5 -263.5t-264 -157q144 -170 334 -170q62 0 114 8q29 -42 29 -94q0 -21 -4 -43q-137 -58 -352 -58q-82 0 -179.5 87.5t-224.5 256.5 q-160 27 -274 125t-169.5 242.5t-55.5 321.5zM336 745q0 -120 24 -223.5t71.5 -186t129 -130t187.5 -47.5q53 0 115 20.5t83 42.5q56 62 95.5 166t39.5 240q0 121 -23.5 224t-70.5 185.5t-128 130t-187 47.5q-54 0 -116 -20t-85 -43q-56 -62 -95.5 -166t-39.5 -240z" />
<glyph unicode="R" horiz-adv-x="1327" d="M45 123q75 8 178 39q10 49 10 160v606q0 155 -10 282q-103 31 -178 39q0 70 16 125q41 0 139 -2t158 -2q73 0 208 5t186 5q102 0 182.5 -28.5t129 -77.5t74 -109.5t25.5 -128.5q0 -116 -71.5 -225t-188.5 -174l236 -475q98 -12 170 -39v-21q0 -56 -13 -106q-82 4 -256 4 h-116l-269 565h-10q-70 0 -158 10v-243q0 -90 9 -170q82 -8 166 -39v-20q0 -53 -13 -105q-72 4 -291 4q-60 0 -158 -2t-139 -2q-16 55 -16 125zM487 748q49 -5 125 -5q45 0 92.5 9t75 18t33.5 14q82 63 82 193q0 97 -57.5 163t-159.5 66q-69 0 -191 -4v-454z" />
<glyph unicode="S" horiz-adv-x="1110" d="M66 66q6 201 49 376q28 8 58 8q45 0 93 -18q6 -113 27 -244q91 -36 242 -36q56 0 108.5 16.5t65.5 26.5q59 56 59 172q0 123 -209 206l-156 62q-63 25 -110.5 52t-97 70t-76.5 104t-27 136q0 85 29 155t76.5 115.5t111.5 77t131 45t138 13.5q99 0 213.5 -21t201.5 -57 q-3 -192 -37 -334q-38 -9 -70 -9q-46 0 -79 19q-6 100 -27 195q-88 27 -217 27q-49 0 -97.5 -9.5t-59.5 -17.5q-52 -45 -52 -129q0 -37 18.5 -69.5t52 -57.5t64.5 -42t72 -34l172 -71q301 -121 301 -355q0 -97 -34.5 -182.5t-96.5 -149.5t-155 -100.5t-205 -36.5 q-139 0 -267.5 26.5t-209.5 70.5z" />
<glyph unicode="T" horiz-adv-x="1294" d="M27 1354l20 20q127 -4 481 -4h236q354 0 481 4l23 -20q1 -33 1 -64q0 -191 -26 -354q-44 -9 -81.5 -9t-69.5 9q-5 119 -33 264h-285v-868q0 -99 8 -170q108 -8 222 -39v-19q0 -56 -15 -106q-86 4 -344 4q-71 0 -186.5 -2t-163.5 -2q-21 54 -21 125q94 7 236 39 q10 49 10 125v913h-287q-25 -148 -30 -264q-37 -10 -75.5 -10t-78.5 10q-24 162 -24 329q0 44 2 89z" />
<glyph unicode="U" horiz-adv-x="1443" d="M12 1249q0 67 17 125q41 0 138.5 -2t158.5 -2q216 0 288 4q13 -52 13 -105v-20q-84 -31 -166 -39q-6 -76 -6 -282v-365q0 -217 73.5 -317.5t239.5 -100.5q68 0 130 22.5t85 47.5q16 19 30.5 47t30 93.5t15.5 144.5v428q0 155 -10 282q-102 31 -179 39q0 67 17 125 q43 0 134 -2t140 -2q182 0 254 4q13 -48 13 -103q0 -11 -1 -22q-85 -31 -165 -39q-9 -114 -9 -282v-385q0 -127 -31.5 -230t-97 -182.5t-175.5 -123.5t-257 -44q-245 0 -368 122.5t-123 393.5v449q0 143 -11 282q-103 31 -178 39z" />
<glyph unicode="V" d="M8 1249q0 67 17 125q41 0 138.5 -2t158.5 -2q218 0 290 4q13 -52 13 -105v-20l-181 -37l283 -796l10 -197h6l338 993l-194 37q0 68 14 125q39 0 126 -2t134 -2q185 0 248 4q11 -50 11 -101q0 -12 -1 -24q-77 -31 -151 -39l-420 -1187q-104 -33 -238 -33l-438 1220 q-97 32 -164 39z" />
<glyph unicode="W" horiz-adv-x="2015" d="M8 1249q0 67 17 125q41 0 138.5 -2t155.5 -2q219 0 291 4q13 -52 13 -105v-20l-183 -37l199 -786l8 -205h4l281 1131q102 30 248 30l237 -954l6 -205h7l235 994l-192 34q0 61 12 123q39 0 125 -2t133 -2q183 0 246 4q11 -50 11 -101q0 -12 -1 -24q-77 -31 -152 -39 l-305 -1187q-104 -33 -266 -33l-223 854l-13 219h-6l-262 -1040q-46 -15 -125.5 -24t-148.5 -9l-326 1220q-97 32 -164 39z" />
<glyph unicode="X" horiz-adv-x="1390" d="M6 123q72 7 176 39l359 530l-359 518q-97 32 -164 39q0 67 17 125q41 0 142 -2t165 -2q231 0 307 4q13 -51 13 -125l-166 -37l247 -358l238 358l-164 35q0 70 14 127q38 0 121.5 -2t128.5 -2q185 0 248 4q11 -50 11 -101q0 -12 -1 -24q-77 -31 -151 -39l-344 -501 l381 -547q72 -8 153 -39v-22q0 -55 -12 -103q-74 4 -309 4q-66 0 -169.5 -2t-144.5 -2q-16 55 -16 125l184 37l-268 385l-254 -385l160 -37q1 -11 1 -22q0 -55 -13 -103q-72 4 -261 4q-46 0 -129.5 -2t-123.5 -2q-17 58 -17 125z" />
<glyph unicode="Y" horiz-adv-x="1359" d="M8 1247q0 66 17 127q42 0 145 -2t168 -2q225 0 299 4q13 -48 13 -103q0 -11 -1 -22l-176 -37l264 -487l256 487l-186 37q0 68 14 125q38 0 125 -2t137 -2q189 0 250 4q13 -52 13 -105v-20q-77 -31 -152 -39l-383 -704v-174q0 -99 8 -170q107 -8 221 -39v-20 q0 -57 -14 -105q-84 4 -344 4q-71 0 -186.5 -2t-163.5 -2q-19 56 -19 125q92 7 234 39q10 49 10 125v211l-385 710q-97 32 -164 39z" />
<glyph unicode="Z" horiz-adv-x="1220" d="M51 162l729 1038h-475q-26 -136 -33 -225q-40 -10 -78 -9.5t-73 9.5q-26 132 -26 309q0 34 1 70l23 20q127 -4 481 -4h442q56 -71 70 -160l-735 -1038h545q42 119 73 252q22 4 46 4q50 0 106 -16q0 -175 -23 -394l-22 -20q-127 4 -481 4h-543q-28 70 -28 136q0 12 1 24z " />
<glyph unicode="[" horiz-adv-x="745" d="M225 -408v2130l21 21q298 -6 493 -6q15 -79 0 -158q-112 -16 -288 -20v-1803q176 -4 288 -20q12 -79 0 -158q-185 0 -493 -6z" />
<glyph unicode="\" horiz-adv-x="892" d="M61 1368q84 59 189 74l602 -1583q-79 -55 -190 -70z" />
<glyph unicode="]" horiz-adv-x="745" d="M6 -264q112 16 289 20v1803q-177 4 -289 20q-15 79 0 158q196 0 494 6l20 -21v-2130l-20 -20q-308 6 -494 6q-12 79 0 158z" />
<glyph unicode="^" horiz-adv-x="1040" d="M117 858l334 508q61 12 131 12l342 -520q-48 -72 -129 -96l-281 358l-283 -358q-81 28 -114 96z" />
<glyph unicode="_" horiz-adv-x="1024" d="M0 -102h1024v-156h-1024v156z" />
<glyph unicode="`" horiz-adv-x="849" d="M117 1452l14 45q97 54 225 51l217 -381q-29 -68 -108 -80z" />
<glyph unicode="a" horiz-adv-x="1056" d="M63 225q0 80 52 149t139 117t178 80.5t191 53.5q-3 109 -36 168t-108 59q-85 0 -139 -12q-16 -56 -16 -158q-54 -27 -105 -27q-26 0 -51 7q-59 97 -59 235q190 111 415 111q44 0 85 -6.5t90 -28t85 -56t60 -96.5t24 -143v-371q0 -81 9 -149q45 6 131 26q36 -32 36 -82 q-56 -56 -130.5 -93.5t-143.5 -37.5q-34 0 -67.5 39.5t-55.5 104.5q-79 -65 -161.5 -103.5t-153.5 -38.5q-127 0 -198 65.5t-71 186.5zM317 289q0 -53 36 -90t102 -37q73 0 168 71v230q-89 -10 -168 -30t-97 -34t-29.5 -47t-11.5 -63z" />
<glyph unicode="b" horiz-adv-x="1148" d="M-2 1495q181 64 403 74l21 -21q-8 -273 -8 -590v-55q137 98 293 98q167 0 269.5 -134.5t102.5 -360.5q0 -128 -55.5 -250.5t-158.5 -203.5t-226 -81q-159 0 -309 103q-97 -89 -158 -115q-60 15 -78 68q74 112 74 239v1090q-97 26 -162 33q-11 37 -11 72q0 17 3 34z M414 240q47 -42 106.5 -68.5t116.5 -26.5q31 0 62.5 12t41.5 25q38 49 62 120.5t24 148.5q0 97 -24 179.5t-75 136.5t-120 54q-79 0 -194 -61v-520z" />
<glyph unicode="c" horiz-adv-x="952" d="M70 473q0 75 21 150.5t62.5 143.5t98 120t133 83t162.5 31q195 0 344 -69q-6 -191 -53 -299q-42 -11 -78 -11q-46 0 -80 19q-4 117 -12 176q-48 10 -129 10q-40 0 -80 -8t-56 -24q-37 -42 -60.5 -114.5t-23.5 -150.5q0 -64 13 -124.5t41.5 -118t81.5 -92.5t125 -35 q114 0 284 69q39 -36 45 -106q-76 -61 -188 -106.5t-211 -45.5q-113 0 -198.5 38.5t-137.5 107.5t-78 158.5t-26 197.5z" />
<glyph unicode="d" horiz-adv-x="1167" d="M70 469q0 110 37.5 209.5t98.5 169.5t141.5 111.5t164.5 41.5q99 0 211 -49v404q-106 26 -172 33q-11 37 -11 72q0 17 3 34q187 64 413 74l21 -21q-8 -273 -8 -590v-651q0 -81 6 -149q51 7 131 26q37 -29 37 -82q-56 -56 -131 -93.5t-142 -37.5q-41 0 -76 48.5t-55 121.5 q-159 -170 -305 -170q-118 0 -202 68t-123 178.5t-39 251.5zM319 526q0 -149 51 -257.5t136 -108.5q75 0 217 135v498q-97 34 -193 34q-97 0 -124 -30q-36 -41 -61.5 -117.5t-25.5 -153.5z" />
<glyph unicode="e" horiz-adv-x="999" d="M70 467q0 132 59 255.5t168.5 204.5t241.5 81q87 0 155 -24.5t110 -63.5t69.5 -92t38 -105t10.5 -107q0 -74 -15 -118l-22 -21q-238 4 -428 4h-140q5 -60 21.5 -114t46 -102t80.5 -76.5t117 -28.5q119 0 297 71q39 -33 45 -104q-81 -63 -195.5 -109.5t-214.5 -46.5 q-113 0 -200 38.5t-139.5 106.5t-78.5 156.5t-26 194.5zM322 614h106q157 0 246 7q0 48 -7 84.5t-24.5 69t-52.5 50t-86 17.5q-25 0 -57.5 -10.5t-45.5 -24.5q-63 -80 -79 -193z" />
<glyph unicode="f" horiz-adv-x="776" d="M53 117q89 9 164 35q8 60 8 114v551q-59 17 -149 27q-12 35 -12 72q0 21 4 42q92 24 157 29v14q0 254 125.5 411t319.5 157q150 0 297 -68q-3 -178 -54 -303q-39 -9 -72 -9q-46 0 -81 17q0 94 -12 180q-53 11 -95 11q-40 0 -72.5 -11.5t-43.5 -23.5q-27 -38 -46.5 -132.5 t-19.5 -213.5v-35l248 -2q0 -91 -8 -162h-240v-510q0 -79 6 -153q137 -7 242 -37q0 -85 -12 -119q-226 4 -355 4q-64 0 -155 -2t-129 -2q-15 38 -15 119z" />
<glyph unicode="g" horiz-adv-x="1069" d="M37 -266q0 162 203 278q-25 29 -25 82q0 86 111 207q-111 29 -173.5 107.5t-62.5 203.5q0 71 28 139t81 124.5t138.5 91t190.5 34.5q125 0 213 -43q86 96 238 172q78 -51 94 -163q-70 -35 -229 -84q74 -86 74 -211q0 -72 -28 -139.5t-81 -123.5t-142 -90t-200 -34h-14 q-21 -37 -21 -74t8 -45q12 -14 207 -14q165 0 264 -74.5t99 -200.5q0 -207 -150.5 -316.5t-423.5 -109.5q-86 0 -156 18t-114 46.5t-74 66.5t-42.5 76t-12.5 76zM264 -205q0 -70 56.5 -120t179.5 -50q164 0 241 49q17 11 32 56.5t15 89.5q0 129 -247 129q-130 0 -205 16 q-72 -78 -72 -170zM322 666q0 -93 51 -156.5t131 -63.5q33 0 67.5 8.5t46.5 16.5q25 16 46.5 67t21.5 101q0 77 -54 139t-140 62q-30 0 -63.5 -6.5t-45.5 -14.5q-25 -21 -43 -64.5t-18 -88.5z" />
<glyph unicode="h" horiz-adv-x="1245" d="M27 117q87 9 163 35q9 67 9 114v1090q-97 26 -162 33q-12 35 -12 68q0 19 4 38q181 64 401 74l23 -21q-9 -308 -9 -590v-32q157 82 310 82q132 0 218.5 -81.5t86.5 -240.5v-379q0 -79 6 -153q93 -10 154 -37q0 -85 -15 -119q-106 4 -262 4q-56 0 -138.5 -2t-113.5 -2 q-12 30 -12 119q79 15 127 35q8 60 8 114v316q0 60 -6 100t-23.5 75.5t-53 52.5t-89.5 17q-102 0 -197 -39v-481q0 -67 7 -153q84 -10 143 -37q0 -85 -12 -119q-106 4 -256 4q-65 0 -158 -2t-127 -2q-14 35 -14 119z" />
<glyph unicode="i" horiz-adv-x="684" d="M61 117q80 8 164 37q8 55 8 112v529q-91 24 -161 32q-12 40 -12 75q0 16 3 32q181 64 402 74l22 -21q-8 -273 -8 -590v-90q0 -79 6 -153q92 -10 154 -37q0 -85 -12 -119q-110 4 -267 4q-65 0 -157.5 -2t-126.5 -2q-15 38 -15 119zM180 1296q0 68 52 130.5t118 62.5 q58 0 104 -38.5t46 -96.5q0 -70 -51 -130.5t-121 -60.5q-54 0 -101 39t-47 94z" />
<glyph unicode="j" horiz-adv-x="618" d="M-12 -449q105 78 161 199t56 305v740q-90 24 -162 32q-11 38 -11 73q0 17 3 34q181 64 403 74l21 -21q-8 -320 -8 -606v-354q0 -129 -35 -230t-96 -166t-129.5 -105t-151.5 -63q-51 26 -51 88zM152 1296q0 68 52 130.5t120 62.5q57 0 102 -38.5t45 -96.5 q0 -70 -51 -130.5t-121 -60.5q-54 0 -100.5 39t-46.5 94z" />
<glyph unicode="k" horiz-adv-x="1232" d="M27 117q87 9 163 35q9 67 9 114v1090q-97 26 -162 33q-12 35 -12 68q0 19 4 38q181 64 401 74l23 -21q-9 -308 -9 -590v-380l162 53l176 196l-141 35q0 73 16 119q29 0 131.5 -2t174.5 -2q70 0 188 4q12 -37 12 -117q-96 -34 -159 -41l-236 -256q123 -233 223 -348 q41 -46 72.5 -64t81.5 -18q33 0 63 6q25 -40 25 -81q0 -12 -2 -23q-36 -21 -126 -41.5t-169 -20.5q-173 0 -356 496l-136 -33v-133q0 -67 7 -153q90 -10 153 -37q0 -85 -12 -119q-110 4 -266 4q-65 0 -158 -2t-127 -2q-14 35 -14 119z" />
<glyph unicode="l" horiz-adv-x="641" d="M27 117q87 9 163 35q9 67 9 114v1090q-97 26 -162 33q-12 35 -12 68q0 19 4 38q181 64 401 74l23 -21q-9 -308 -9 -590v-651q0 -67 7 -153q90 -10 153 -37q0 -85 -12 -119q-110 4 -270 4q-62 0 -154.5 -2t-126.5 -2q-14 35 -14 119z" />
<glyph unicode="m" horiz-adv-x="1820" d="M61 117q89 9 164 35q8 60 8 114v525q-73 22 -161 32q-13 38 -13 72q0 19 4 37q159 59 343 74l26 -17q15 -44 29 -100q143 119 297 119q184 0 258 -140q158 140 321 140q135 0 217 -81t82 -241v-379q0 -79 6 -153q93 -10 154 -37q0 -87 -14 -119q-106 4 -264 4 q-55 0 -137.5 -2t-114.5 -2q-11 37 -11 119q74 14 127 35q9 67 9 114v316q0 59 -5.5 99t-20.5 75.5t-45.5 53t-78.5 17.5q-98 0 -190 -61q6 -38 6 -80v-379q0 -55 4 -153q68 -13 115 -37q0 -82 -13 -119q-94 4 -225 4q-56 0 -136.5 -2t-105.5 -2q-14 35 -14 119 q75 17 121 35q8 60 8 114v316q0 47 -3 80t-12 66.5t-25 53.5t-43.5 32.5t-65.5 12.5q-93 0 -183 -55v-465q0 -79 6 -153q72 -10 121 -37q0 -81 -10 -119q-98 4 -236 4q-65 0 -157.5 -2t-126.5 -2q-15 38 -15 119z" />
<glyph unicode="n" horiz-adv-x="1280" d="M61 117q89 9 164 35q8 60 8 114v525q-73 22 -161 32q-13 39 -13 73q0 19 4 36q159 59 343 74l26 -17q17 -50 31 -106q159 125 325 125q133 0 219.5 -81.5t86.5 -240.5v-379q0 -79 6 -153q91 -10 153 -37q0 -87 -14 -119q-106 4 -262 4q-56 0 -138.5 -2t-113.5 -2 q-12 40 -12 119q79 15 127 35q8 60 8 114v316q0 59 -6 99t-23.5 75.5t-53 53t-89.5 17.5q-89 0 -197 -67v-453q0 -79 6 -153q85 -10 144 -37q0 -82 -13 -119q-106 4 -256 4q-65 0 -157.5 -2t-126.5 -2q-15 38 -15 119z" />
<glyph unicode="o" horiz-adv-x="1087" d="M70 473q0 96 33.5 190t93.5 171.5t154.5 125.5t205.5 48q153 0 258.5 -66.5t154 -177.5t48.5 -258q0 -96 -33.5 -190t-94 -171.5t-155 -125.5t-205.5 -48q-224 0 -342 137.5t-118 364.5zM319 526q0 -64 13.5 -127.5t41 -122t77 -95t114.5 -36.5q33 0 69 9t48 26 q38 45 62 117.5t24 155.5q0 64 -13.5 127.5t-41 122t-77 95t-114.5 36.5q-33 0 -68.5 -8.5t-47.5 -24.5q-38 -45 -62.5 -118.5t-24.5 -156.5z" />
<glyph unicode="p" horiz-adv-x="1183" d="M33 -397q89 9 164 35q8 60 8 114v1039q-72 22 -162 32q-12 38 -12 72q0 19 4 37q160 59 342 74l26 -17l27 -94q141 113 311 113q167 0 270 -135t103 -361q0 -128 -55.5 -250.5t-158.5 -203.5t-226 -81q-112 0 -223 68v-252q0 -79 6 -153q130 -7 241 -37q0 -82 -12 -117 q-226 4 -354 4q-64 0 -155.5 -2t-129.5 -2q-14 35 -14 117zM451 246q46 -42 105.5 -68t117.5 -26q31 0 61.5 11.5t40.5 24.5q40 49 64 120.5t24 148.5q0 97 -24 179.5t-75 136.5t-120 54q-79 0 -194 -61v-520z" />
<glyph unicode="q" horiz-adv-x="1138" d="M70 473q0 112 37.5 212.5t99 170.5t141.5 111t164 41q75 0 155.5 -28t141.5 -71q95 88 160 111q56 -14 73 -66q-73 -112 -73 -266v-895q0 -79 6 -153q90 -10 153 -37q0 -82 -12 -117q-210 6 -264 6q-61 0 -177.5 -3t-166.5 -3q-14 35 -14 117q126 10 221 35q8 60 8 114 v299q-159 -74 -289 -74q-118 0 -202 68t-123 178t-39 250zM319 530q0 -97 22 -178t68.5 -133.5t110.5 -52.5q82 0 203 31v602q-100 35 -188 35q-100 0 -129 -33q-36 -42 -61.5 -117.5t-25.5 -153.5z" />
<glyph unicode="r" horiz-adv-x="964" d="M61 117q89 9 164 35q8 60 8 114v525q-73 22 -161 32q-13 39 -13 73q0 19 4 36q159 59 345 74l24 -17q27 -68 45 -170q129 182 289 182q104 0 180 -28q0 -233 -39 -375q-40 -14 -78.5 -14t-74.5 14q-14 143 -29 211q-14 2 -43 2q-111 0 -203 -156v-348q0 -79 6 -153 q154 -11 242 -37q0 -87 -14 -119q-148 4 -351 4q-65 0 -158.5 -2t-127.5 -2q-15 38 -15 119z" />
<glyph unicode="s" horiz-adv-x="899" d="M70 35q0 160 39 307q34 12 70.5 12t74.5 -12q2 -70 18 -186q55 -25 160 -25q90 0 122 26t32 91q0 47 -32.5 77t-98.5 58q-21 9 -61 24.5t-63 25t-58 26.5t-56 31.5t-45.5 37t-38 46.5t-22.5 56.5t-9 69.5q0 65 23 117.5t60.5 86t87.5 56t102.5 32t107.5 9.5 q208 0 332 -38q0 -152 -39 -277q-36 -9 -69 -9q-40 0 -76 13q-10 86 -33 156q-43 16 -104 16q-54 0 -87.5 -7.5t-47.5 -24t-17.5 -30t-3.5 -36.5q0 -37 27 -66t70.5 -49.5t96 -40.5t105.5 -46t96.5 -58t70.5 -83t27 -116q0 -158 -114 -243t-297 -85q-212 0 -350 58z" />
<glyph unicode="t" horiz-adv-x="784" d="M31 958q79 24 159 29l97 281q16 1 33 1q57 0 114 -16v-272l324 -2q1 -19 1 -37q0 -67 -9 -125h-316v-448q0 -215 96 -215q90 0 199 41q41 -41 41 -108v-9q-66 -45 -159 -76t-191 -31q-232 0 -232 295v551q-62 17 -149 27q-12 35 -12 72q0 21 4 42z" />
<glyph unicode="u" horiz-adv-x="1241" d="M27 862q0 72 14 119q34 0 125.5 -2t159.5 -2h90l20 -21q-4 -190 -4 -544q0 -250 137 -250q86 0 219 127v530q-67 27 -153 43q0 72 14 119q35 0 124.5 -2t156.5 -2h88l22 -21q-6 -174 -6 -542v-107q0 -89 8 -149q47 6 132 26q36 -32 36 -82q-56 -56 -131 -93.5t-143 -37.5 q-40 0 -74.5 46.5t-54.5 117.5q-153 -164 -322 -164q-141 0 -220 85.5t-79 250.5v512q-65 26 -159 43z" />
<glyph unicode="v" horiz-adv-x="1159" d="M25 862q0 68 14 119q24 0 96 -2t119 -2q25 0 121.5 2t171.5 2q12 -36 12 -81q0 -18 -2 -38l-137 -37l166 -471l2 -170h6l219 643l-143 35q0 73 16 119q34 0 121.5 -2t144.5 -2q54 0 172 4q13 -45 13 -89q0 -15 -2 -30q-51 -25 -125 -35l-297 -804q-125 -33 -252 -33 l-309 837q-47 23 -127 35z" />
<glyph unicode="w" horiz-adv-x="1708" d="M25 862q0 68 14 119q24 0 95 -2t114 -2q35 0 129.5 2t157.5 2q12 -36 12 -81q0 -18 -2 -38l-142 -37l136 -471l4 -170h6l190 777q104 28 289 28l150 -635l4 -170h6l182 643l-143 35q0 73 16 119q34 0 119.5 -2t142.5 -2q54 0 168 4q14 -44 14 -90q0 -14 -1 -29 q-51 -25 -125 -35l-256 -804q-122 -33 -275 -33l-141 606l-6 176h-6l-187 -749q-122 -33 -270 -33l-273 837q-58 25 -122 35z" />
<glyph unicode="x" horiz-adv-x="1185" d="M20 117q84 11 148 35l272 362l-250 313q-50 21 -145 35q0 68 14 119q25 0 105 -2t125 -2q29 0 64 0.5t96 1.5t116 2q12 -36 12 -81q0 -18 -2 -38l-98 -31l170 -213l150 209l-109 35q0 70 17 119q28 0 108.5 -2t140.5 -2t162 4q14 -42 14 -88q0 -15 -2 -31 q-53 -25 -131 -35l-252 -331l275 -344q85 -10 141 -35q1 -16 1 -31q0 -46 -13 -88q-126 4 -201 4q-82 0 -185 -2t-130 -2q-17 49 -17 119l113 35l-188 235l-170 -235l127 -35q1 -13 1 -24q0 -55 -12 -95q-208 4 -231 4q-42 0 -118.5 -2t-102.5 -2q-15 54 -15 119z" />
<glyph unicode="y" horiz-adv-x="1159" d="M25 862q0 68 14 119q24 0 96 -2t119 -2q25 0 121.5 2t171.5 2q12 -36 12 -81q0 -18 -2 -38l-137 -37l166 -471l2 -170h6l219 643l-143 35q0 73 16 119q34 0 121.5 -2t144.5 -2q54 0 172 4q13 -45 13 -89q0 -15 -2 -30q-51 -25 -125 -35l-295 -809q-46 -125 -88.5 -217.5 t-94 -169.5t-109.5 -117t-122 -40q-146 0 -231 47q-1 9 -1 17q0 67 42 114h28q261 0 367 270l31 78h-80l-305 827q-47 23 -127 35z" />
<glyph unicode="z" horiz-adv-x="1001" d="M72 170l559 661h-338q-26 -109 -33 -190q-40 -8 -75.5 -8t-67.5 8q-17 138 -17 278v42l19 20q125 -4 469 -4h291q47 -73 47 -152l-576 -675h385q44 106 68 223q27 4 54 4q46 0 93 -12q1 -28 1 -58q0 -126 -17 -289l-21 -20q-125 4 -479 4h-325q-37 72 -37 168z" />
<glyph unicode="{" horiz-adv-x="868" d="M143 715q148 80 228 149q10 12 10 90q0 64 -8 218.5t-8 193.5q0 83 36.5 152.5t102 119.5t148 84.5t182.5 55.5q52 -41 55 -127q-189 -87 -244 -156q-13 -16 -26 -93t-13 -124v-412q0 -55 -56 -101t-161 -95q96 -36 156.5 -86.5t60.5 -106.5v-438q0 -48 13 -122t26 -91 q53 -69 242 -154q15 -86 -56 -135q-100 22 -182 58t-147 87t-101 122t-36 155q0 41 8 187t8 204q0 70 -10 82q-90 97 -207 152q-21 64 -21 131z" />
<glyph unicode="|" horiz-adv-x="641" d="M219 -426v2167h203v-2167h-203z" />
<glyph unicode="}" horiz-adv-x="868" d="M-20 -336q187 86 243 156q13 16 26 93t13 124v412q0 55 55.5 100.5t159.5 95.5q-95 36 -155 86.5t-60 106.5v438q0 48 -13 122t-26 91q-52 69 -241 153q-15 88 55 136q100 -22 182.5 -58t147.5 -87t101 -122t36 -155q0 -41 -8.5 -187t-8.5 -204q0 -68 11 -82 q90 -97 207 -152q20 -61 20 -131q-145 -78 -227 -149q-11 -14 -11 -91q0 -64 8.5 -218t8.5 -193q0 -83 -36.5 -152.5t-102 -119.5t-148 -84.5t-182.5 -55.5q-52 41 -55 127z" />
<glyph unicode="~" horiz-adv-x="1024" d="M57 489q64 70 148.5 125.5t142.5 55.5q46 0 98 -17.5t90.5 -38t87.5 -38t89 -17.5q38 0 95.5 25t104.5 59q63 -43 66 -113q-63 -70 -148 -125t-143 -55t-123.5 28t-128 55.5t-112.5 27.5q-38 0 -96.5 -25t-104.5 -59q-63 43 -66 112z" />
<glyph unicode="&#xa1;" horiz-adv-x="620" d="M158 -195q0 286 69 795q48 10 86 10q37 0 70 -10q78 -483 78 -788q0 -134 -12 -193q-72 -16 -138 -16q-80 0 -145 16q-8 60 -8 186zM164 864q0 58 42 101t103 43q64 0 108 -43t44 -101q0 -57 -44 -96t-108 -39q-61 0 -103 39t-42 96z" />
<glyph unicode="&#xa2;" horiz-adv-x="940" d="M63 498q0 114 46 222.5t138.5 191t211.5 106.5v164q59 22 133 0v-158q165 -5 301 -68q-6 -191 -53 -299q-91 -26 -148 9q-4 117 -12 176q-25 4 -88 8v-666q96 2 266 70q39 -36 45 -107q-59 -47 -143 -86.5t-168 -56.5v-166q-75 -18 -133 0v160q-101 7 -178 48.5 t-124 109.5t-70.5 154t-23.5 188zM307 555q0 -108 36.5 -205t115.5 -139v633q-48 -11 -62 -25q-39 -42 -64.5 -114t-25.5 -150z" />
<glyph unicode="&#xa3;" horiz-adv-x="952" d="M31 168q93 11 132.5 83t45.5 208h-111q-24 75 0 147h113q14 192 123.5 319.5t273.5 127.5q125 0 271 -47q0 -185 -39 -310q-69 -9 -142 11q-7 94 -22 167q-37 9 -94 9q-32 0 -62 -10t-39 -23q-34 -50 -41 -244h203q25 -66 0 -147h-209q-20 -172 -158 -269h392 q37 89 63 195q76 9 152 -12q8 -161 -19 -355l-20 -20q-121 4 -461 4h-332q-25 84 -20 166z" />
<glyph unicode="&#xa4;" horiz-adv-x="978" d="M90 840q26 57 90 90l142 -113q76 51 167 51q90 0 166 -45l140 111q26 -10 50.5 -35t39.5 -55l-111 -139q49 -77 49 -170q0 -85 -47 -164l113 -142q-27 -59 -90 -90l-142 113q-76 -51 -168 -51q-83 0 -165 45l-140 -111q-27 12 -51 36.5t-37 53.5l109 140q-49 77 -49 170 q0 84 47 163zM330 535q0 -70 45.5 -118t113.5 -48t114 48t46 118t-45.5 117.5t-114.5 47.5q-68 0 -113.5 -47.5t-45.5 -117.5z" />
<glyph unicode="&#xa5;" horiz-adv-x="980" d="M29 913q0 57 12 119q33 0 103 -2t110 -2q152 0 213 4q10 -46 10 -119l-115 -24l166 -246l168 244l-108 26q0 67 8 119q27 0 88 -2t92 -2q25 0 84 2t82 2q8 -35 8 -119q-51 -19 -112 -28l-174 -256h174q19 -51 0 -121h-232v-96h232q19 -50 0 -121h-232v-19q0 -69 6 -125 q112 -9 193 -30q3 -61 -12 -119q-78 4 -301 4q-62 0 -164 -2t-144 -2q-16 52 -16 119q77 4 205 30q8 36 8 95v49h-231q-15 60 0 121h231v96h-231q-14 59 0 121h163l-182 256q-55 20 -102 28z" />
<glyph unicode="&#xa6;" horiz-adv-x="632" d="M215 66v1183h203v-1183h-203z" />
<glyph unicode="&#xa7;" horiz-adv-x="987" d="M53 526q0 99 53.5 178t151.5 152q-119 94 -119 223q0 83 36.5 148t95 102t123.5 55.5t130 18.5q186 0 346 -57q-3 -166 -39 -295q-80 -19 -141 8q-3 96 -14 170q-67 24 -168 24q-34 0 -66 -7.5t-39 -14.5q-43 -40 -43 -109q0 -45 31.5 -83t82.5 -67t112 -56.5t122 -59 t112 -68t82.5 -89.5t31.5 -117q0 -100 -54 -179.5t-153 -152.5q119 -93 119 -221q0 -83 -36.5 -148t-95 -102t-123 -55.5t-128.5 -18.5q-189 0 -346 57q3 176 39 295q79 19 139 -8q3 -78 16 -170q67 -24 168 -24q33 0 65.5 7.5t39.5 14.5q41 38 41 109q0 45 -31.5 83t-82 67 t-111.5 56.5t-122 59t-111.5 68t-82 89.5t-31.5 117zM276 582q0 -35 18.5 -64.5t57.5 -56.5t74 -46t96 -48.5t94 -47.5q95 109 95 207q0 29 -15 55.5t-37 46.5t-60 42.5t-69.5 37.5t-80.5 38.5t-80 39.5q-93 -104 -93 -204z" />
<glyph unicode="&#xa8;" horiz-adv-x="849" d="M80 1241q0 64 43.5 117t107.5 53q48 0 88.5 -35t40.5 -84q0 -64 -44.5 -115.5t-106.5 -52.5q-51 0 -90 34.5t-39 82.5zM487 1241q0 62 45.5 116t106.5 54q52 0 90.5 -34.5t38.5 -84.5q0 -65 -43.5 -116t-108.5 -52q-47 0 -88 35t-41 82z" />
<glyph unicode="&#xa9;" horiz-adv-x="1533" d="M63 662q0 192 93.5 354t255.5 256t354 94t354 -94t256 -256t94 -354t-94 -354.5t-256 -256.5t-354 -94q-144 0 -274.5 55.5t-224 150t-149 225t-55.5 274.5zM225 662q0 -151 71 -278.5t195.5 -202.5t274.5 -75q151 0 276 74.5t196 202t71 279.5q0 151 -71 278t-196 202 t-276 75t-275.5 -74.5t-195 -201.5t-70.5 -279zM383 655q0 56 16 112.5t50.5 108.5t82.5 92.5t116.5 64.5t148.5 24q141 0 229 -37q0 -153 -27 -246q-58 -11 -122 10q-2 36 -15 113q-31 8 -102 8q-74 0 -98 -16q-20 -12 -45 -64.5t-25 -126.5q0 -123 52.5 -194.5 t150.5 -71.5q53 0 86 10l14 127q68 21 127 11q18 -99 18 -252q-113 -47 -266 -47q-190 0 -290.5 105t-100.5 269z" />
<glyph unicode="&#xaa;" horiz-adv-x="751" d="M68 805q0 47 35 88.5t93 72.5t117.5 52.5t124.5 36.5q-7 112 -78 112q-48 0 -88 -6q-12 -35 -12 -74q-60 -31 -121 -22q-42 58 -45 143q136 76 314 76q31 0 60.5 -4t64.5 -17.5t60.5 -34.5t42.5 -59t17 -88v-290q54 7 90 14q29 -19 29 -60q-42 -42 -97 -69t-112 -27 q-54 0 -96 72q-114 -74 -223 -74q-176 0 -176 158zM281 850q0 -26 19 -45t50 -19q38 0 90 27v119q-125 -14 -137 -23q-22 -18 -22 -59z" />
<glyph unicode="&#xab;" horiz-adv-x="1234" d="M98 453q-6 57 15 122l415 404q63 -20 103 -82l-271 -381l281 -373q-36 -68 -117 -100zM596 453q-6 59 14 122l416 404q62 -19 102 -82l-270 -381l281 -373q-36 -68 -117 -100z" />
<glyph unicode="&#xac;" horiz-adv-x="1105" d="M92 451q-27 85 0 174h903v-625q-95 -23 -174 0v451h-729z" />
<glyph unicode="&#xad;" horiz-adv-x="780" d="M131 418q-18 88 4 178l510 10q22 -94 2 -180z" />
<glyph unicode="&#xae;" horiz-adv-x="1079" d="M20 1090q0 138 70.5 254.5t190.5 183.5t260 67q139 0 258 -67t189.5 -183.5t70.5 -254.5q0 -139 -70.5 -255.5t-189.5 -183.5t-258 -67q-141 0 -260.5 67t-190 183.5t-70.5 255.5zM162 1090q0 -158 110.5 -267.5t268.5 -109.5q156 0 266.5 109.5t110.5 267.5 q0 156 -110.5 266t-266.5 110q-158 0 -268.5 -109.5t-110.5 -266.5zM317 950l64 15v288l-64 17q-3 50 9 80l260 2q74 0 112.5 -41t38.5 -99q0 -82 -90 -135q18 -36 30 -57t34.5 -41.5t46.5 -20.5q5 0 35 5q18 -25 22 -68q-55 -33 -133 -33q-38 0 -80 59t-63 126l-39 4v-84 l45 -17q7 -45 -4 -76h-213q-14 29 -11 76zM500 1139h28q43 0 58.5 15t15.5 44q0 23 -15 38t-42 15h-45v-112z" />
<glyph unicode="&#xaf;" horiz-adv-x="849" d="M131 1137q-31 93 0 180h584q36 -88 0 -180h-584z" />
<glyph unicode="&#xb0;" horiz-adv-x="745" d="M68 1065q0 126 89.5 215.5t215.5 89.5t215.5 -89.5t89.5 -215.5t-89.5 -215.5t-215.5 -89.5t-215.5 89.5t-89.5 215.5zM209 1065q0 -71 47.5 -119.5t116.5 -48.5t116.5 48.5t47.5 119.5t-47.5 119.5t-116.5 48.5t-116.5 -48.5t-47.5 -119.5z" />
<glyph unicode="&#xb1;" horiz-adv-x="1105" d="M150 0q-27 82 0 174h808q26 -87 0 -174h-808zM150 575q-27 83 0 175h315v301q87 26 174 0v-301h319q26 -88 0 -175h-319v-294q-81 -31 -174 0v294h-315z" />
<glyph unicode="&#xb2;" horiz-adv-x="765" d="M78 1020q175 106 267.5 186t92.5 144q0 51 -26 83.5t-68 32.5q-33 0 -57 -6q-24 -73 -27 -157q-65 -12 -125 0q-34 99 -37 249q147 66 293 66q118 0 194.5 -68t76.5 -149q0 -94 -75 -181.5t-196 -152.5l-102 -55h377q21 -72 0 -148l-19 -18q-94 4 -358 4h-185 q-26 65 -26 170z" />
<glyph unicode="&#xb3;" horiz-adv-x="768" d="M84 1552q147 66 299 66q113 0 192.5 -52t79.5 -128q0 -54 -33 -96t-90 -66q79 -19 118.5 -69t39.5 -115q0 -101 -98 -181t-246 -80q-132 0 -260 39q0 142 25 254q55 12 114 6q16 -92 33 -141q31 -8 78 -8q28 0 61 7t43 13q31 20 31 72q0 39 -35.5 65.5t-87.5 26.5 q-29 0 -43 -2l-18 17q-3 70 24 133q61 0 93 24.5t32 55.5t-27 52t-71 21q-36 0 -72 -4q-21 -50 -24 -125q-58 -14 -121 0q-37 88 -37 215z" />
<glyph unicode="&#xb4;" horiz-adv-x="849" d="M291 1155l207 342q113 27 256 27l20 -56l-387 -389q-68 9 -96 76z" />
<glyph unicode="&#xb5;" horiz-adv-x="1220" d="M160 -498q8 339 8 801v655q105 31 229 31l21 -20q-4 -174 -4 -545q0 -116 39.5 -189t101.5 -73q93 0 213 123v673q109 31 229 31l23 -20q-6 -174 -6 -553v-109q0 -81 6 -149q51 7 131 26q37 -29 37 -82q-56 -56 -131 -93.5t-142 -37.5q-40 0 -73.5 44t-53.5 112 q-128 -156 -241 -156q-127 0 -187 123h-6q7 -347 68 -563q-111 -53 -242 -53z" />
<glyph unicode="&#xb6;" horiz-adv-x="1177" d="M31 854q0 109 48.5 207t129 166.5t187 108.5t220.5 40q42 0 133 -3t144 -3q183 0 242 4q15 -59 12 -125q-84 -31 -166 -39q-8 -101 -8 -276v-756q0 -139 -46.5 -258.5t-124 -199t-177 -124.5t-205.5 -45q-80 0 -156 17t-123 51q0 136 90 229l29 11q41 -43 101 -69 t118 -26q122 0 174 39q26 20 46 102.5t20 217.5v272q-81 -22 -205 -22q-64 0 -130.5 19t-130 59t-113 95.5t-79.5 135.5t-30 172zM442 920q0 -150 65.5 -252.5t158.5 -102.5h53v652q-18 2 -60 2q-96 0 -149 -41q-25 -17 -46.5 -88t-21.5 -170z" />
<glyph unicode="&#xb7;" horiz-adv-x="614" d="M143 477q0 68 52 130.5t120 62.5q57 0 102.5 -38.5t45.5 -96.5q0 -70 -51 -130.5t-121 -60.5q-54 0 -101 39t-47 94z" />
<glyph unicode="&#xb8;" horiz-adv-x="849" d="M240 -461q194 80 194 176q0 38 -34.5 64t-96.5 22l-20 21l102 219h104l-51 -125q100 -3 156.5 -46.5t56.5 -113.5q0 -108 -111 -197t-266 -118q-40 40 -34 98z" />
<glyph unicode="&#xb9;" horiz-adv-x="651" d="M84 948q56 2 137 23q6 37 6 78v415h-129q-17 44 -12 97q152 52 340 61l16 -20v-529q0 -36 4 -102q62 -5 132 -23q0 -54 -11 -102q-41 4 -235 4q-64 0 -137.5 -2t-100.5 -2q-10 44 -10 102z" />
<glyph unicode="&#xba;" horiz-adv-x="747" d="M63 956q0 79 40 153t121 124.5t184 50.5q161 0 243 -85t82 -224q0 -58 -23.5 -115.5t-66 -104.5t-109 -76.5t-145.5 -29.5q-159 0 -242.5 83.5t-83.5 223.5zM283 985q0 -48 11.5 -92t41 -78.5t72.5 -34.5q49 0 65 19q43 53 43 147q0 47 -12 91.5t-42 79t-73 34.5 q-48 0 -61 -16q-45 -58 -45 -150z" />
<glyph unicode="&#xbb;" horiz-adv-x="1236" d="M94 879q39 71 119 98l424 -410q6 -61 -14 -123l-416 -403q-67 24 -101 84l269 381zM594 879q39 71 119 98l424 -410q6 -59 -15 -123l-415 -403q-67 24 -101 84l268 381z" />
<glyph unicode="&#xbc;" horiz-adv-x="1880" d="M154 768q56 2 137 23q6 37 6 77v416h-129q-17 43 -12 96q155 53 340 62l16 -21v-528q0 -36 4 -102q61 -5 131 -23q0 -58 -10 -102q-41 4 -236 4q-64 0 -137 -2t-100 -2q-10 44 -10 102zM446 45l871 1378q72 -18 125 -84l-873 -1374q-83 26 -123 80zM1161 377l334 438 q109 0 199 -37v-405l131 -11q5 -60 -6 -118h-125v-176q-89 -29 -191 -29l-16 18v187h-293q-36 52 -33 133zM1311 369h176v235z" />
<glyph unicode="&#xbd;" horiz-adv-x="1880" d="M154 768q56 2 137 23q6 37 6 77v416h-129q-17 43 -12 96q155 53 340 62l16 -21v-528q0 -36 4 -102q61 -5 131 -23q0 -58 -10 -102q-41 4 -236 4q-64 0 -137 -2t-100 -2q-10 44 -10 102zM446 45l871 1378q72 -18 125 -84l-873 -1374q-83 26 -123 80zM1184 225 q175 106 267.5 186t92.5 144q0 52 -26 84.5t-68 32.5q-33 0 -57 -6q-24 -73 -27 -158q-65 -12 -125 0q-34 99 -37 250q145 65 293 65q118 0 194 -68t76 -149q0 -94 -74.5 -181.5t-195.5 -152.5l-102 -55h377q20 -71 0 -147l-19 -19q-94 4 -358 4h-185q-26 65 -26 170z" />
<glyph unicode="&#xbe;" horiz-adv-x="1880" d="M90 1372q147 66 299 66q113 0 193 -52.5t80 -128.5q0 -54 -33 -95.5t-90 -65.5q79 -19 118 -69t39 -116q0 -101 -98 -180.5t-246 -79.5q-132 0 -260 39q0 142 25 254q55 12 114 6q16 -92 33 -141q31 -8 78 -8q28 0 61 7t43 13q31 20 31 72q0 39 -35.5 65.5t-87.5 26.5 q-29 0 -43 -2l-18 16q-3 71 24 134q61 0 93 24t32 55t-27.5 52.5t-70.5 21.5q-36 0 -72 -4q-21 -50 -24 -125q-58 -14 -121 0q-37 88 -37 215zM446 45l871 1378q72 -18 125 -84l-873 -1374q-83 26 -123 80zM1161 377l334 438q109 0 199 -37v-405l131 -11q5 -60 -6 -118h-125 v-176q-89 -29 -191 -29l-16 18v187h-293q-36 52 -33 133zM1311 369h176v235z" />
<glyph unicode="&#xbf;" horiz-adv-x="854" d="M31 -68q0 64 19.5 120t48.5 95t67.5 76t73 62.5t67.5 55t49 52.5q23 38 23 182q36 23 95 30t110 -3q32 -101 32 -205q0 -35 -33.5 -73t-81.5 -73t-96.5 -72t-82 -84.5t-33.5 -96.5q0 -96 59 -167t148 -71q33 0 73 7q30 115 37 213q78 22 150 8q35 -146 35 -322 q-56 -36 -159 -63t-204 -27q-195 0 -296 98t-101 258zM328 864q0 58 43 101t104 43q62 0 106 -43t44 -101q0 -57 -43.5 -96t-106.5 -39q-62 0 -104.5 39t-42.5 96z" />
<glyph unicode="&#xc0;" d="M10 123q67 7 164 39l420 1188q101 32 237 32l441 -1220q74 -8 151 -39q3 -67 -12 -125q-70 4 -287 4q-59 0 -159.5 -2t-143.5 -2q-16 55 -16 125l194 37l-92 256q-182 10 -313 10h-141l-91 -266l181 -37q3 -63 -13 -125q-74 4 -262 4q-46 0 -126 -2t-115 -2 q-17 58 -17 125zM373 1729q34 100 143 155l383 -287q-3 -73 -61 -110l-453 194zM504 580h346l-137 387l-8 186h-5z" />
<glyph unicode="&#xc1;" d="M10 123q67 7 164 39l420 1188q101 32 237 32l441 -1220q74 -8 151 -39q3 -67 -12 -125q-70 4 -287 4q-59 0 -159.5 -2t-143.5 -2q-16 55 -16 125l194 37l-92 256q-182 10 -313 10h-141l-91 -266l181 -37q3 -63 -13 -125q-74 4 -262 4q-46 0 -126 -2t-115 -2 q-17 58 -17 125zM504 580h346l-137 387l-8 186h-5zM541 1593l397 277q98 -53 133 -164l-10 -47l-461 -178q-44 41 -59 112z" />
<glyph unicode="&#xc2;" d="M10 123q67 7 164 39l420 1188q101 32 237 32l441 -1220q74 -8 151 -39q3 -67 -12 -125q-70 4 -287 4q-59 0 -159.5 -2t-143.5 -2q-16 55 -16 125l194 37l-92 256q-182 10 -313 10h-141l-91 -266l181 -37q3 -63 -13 -125q-74 4 -262 4q-46 0 -126 -2t-115 -2 q-17 58 -17 125zM373 1563l274 270q70 12 148 12l288 -272q-24 -65 -86 -107l-276 174l-272 -174q-59 39 -76 97zM504 580h346l-137 387l-8 186h-5z" />
<glyph unicode="&#xc3;" d="M10 123q67 7 164 39l420 1188q101 32 237 32l441 -1220q74 -8 151 -39q3 -67 -12 -125q-70 4 -287 4q-59 0 -159.5 -2t-143.5 -2q-16 55 -16 125l194 37l-92 256q-182 10 -313 10h-141l-91 -266l181 -37q3 -63 -13 -125q-74 4 -262 4q-46 0 -126 -2t-115 -2 q-17 58 -17 125zM360 1602q47 89 119 145.5t137 56.5q41 0 89.5 -29.5t93 -59t75.5 -29.5q23 0 62.5 27.5t73.5 68.5q62 -21 86 -76q-49 -91 -121 -148t-137 -57q-42 0 -91 29.5t-93 58.5t-72 29q-24 0 -63 -26t-75 -68q-67 22 -84 78zM504 580h346l-137 387l-8 186h-5z" />
<glyph unicode="&#xc4;" d="M10 123q67 7 164 39l420 1188q101 32 237 32l441 -1220q74 -8 151 -39q3 -67 -12 -125q-70 4 -287 4q-59 0 -159.5 -2t-143.5 -2q-16 55 -16 125l194 37l-92 256q-182 10 -313 10h-141l-91 -266l181 -37q3 -63 -13 -125q-74 4 -262 4q-46 0 -126 -2t-115 -2 q-17 58 -17 125zM387 1626q0 62 43.5 115t106.5 53q46 0 83 -34t37 -83q0 -61 -41.5 -109.5t-101.5 -51.5q-49 0 -88 32.5t-39 77.5zM504 580h346l-137 387l-8 186h-5zM799 1626q0 61 43 114.5t102 53.5q51 0 89 -33.5t38 -83.5q0 -62 -42.5 -110t-106.5 -51q-45 0 -84 33 t-39 77z" />
<glyph unicode="&#xc5;" d="M10 123q67 7 164 39l420 1188q101 32 237 32l441 -1220q74 -8 151 -39q3 -67 -12 -125q-70 4 -287 4q-59 0 -159.5 -2t-143.5 -2q-16 55 -16 125l194 37l-92 256q-182 10 -313 10h-141l-91 -266l181 -37q3 -63 -13 -125q-74 4 -262 4q-46 0 -126 -2t-115 -2 q-17 58 -17 125zM492 1671q0 83 76 154t173 71q107 0 166.5 -54.5t59.5 -164.5q0 -80 -77 -151.5t-173 -71.5q-107 0 -166 54.5t-59 162.5zM504 580h346l-137 387l-8 186h-5zM641 1681q0 -35 27 -64.5t63 -29.5q35 0 64 19q22 18 22 63q0 36 -27 65t-63 29q-39 0 -63 -16 q-8 -7 -15.5 -25.5t-7.5 -40.5z" />
<glyph unicode="&#xc6;" horiz-adv-x="1849" d="M8 123q67 7 164 39l467 1044l-178 43q0 70 16 125q44 0 129.5 -2t130.5 -2h506q352 0 479 4l23 -22q6 -222 -25 -377q-87 -18 -151 0q-9 119 -33 225h-397v-459q93 0 383 9l20 -21q-3 -91 -20 -151l-383 8v-414h424q42 119 73 252q69 11 150 -12q0 -174 -23 -392l-20 -22 q-127 4 -481 4h-246q-60 0 -159 -2t-140 -2q-17 58 -17 125q77 8 179 39q10 49 10 125v299h-338l-191 -426l181 -37q3 -63 -13 -125q-74 4 -262 4q-46 0 -126 -2t-115 -2q-17 58 -17 125zM621 741h268v457h-66z" />
<glyph unicode="&#xc7;" horiz-adv-x="1232" d="M70 662q0 107 27.5 212t85.5 200.5t138.5 169t194.5 116.5t246 43q221 0 389 -60q0 -220 -47 -385q-78 -12 -148 13q-5 95 -26 225q-73 12 -207 12q-69 0 -140.5 -16.5t-97.5 -38.5q-29 -25 -60 -74t-60 -141t-29 -193q0 -123 25.5 -226t76.5 -183.5t137.5 -126 t200.5 -45.5q103 0 180 18q20 127 29 250q73 24 152 12q30 -158 30 -399q-203 -73 -432 -76l-20 -53q100 -3 156.5 -46.5t56.5 -113.5q0 -108 -111 -197t-266 -118q-41 41 -35 98q195 80 195 176q0 38 -34.5 64t-96.5 22l-21 21l72 153q-183 20 -311.5 117.5t-189 243 t-60.5 326.5z" />
<glyph unicode="&#xc8;" horiz-adv-x="1202" d="M45 123q75 8 178 39q10 49 10 125v641q0 152 -10 282q-103 31 -178 39q0 70 16 125q41 0 139 -2t158 -2h236q354 0 481 4l23 -22q6 -222 -25 -377q-83 -18 -151 0q-9 119 -33 225h-402v-418q92 0 387 9l23 -21q-3 -92 -23 -152q-203 6 -387 9v-455h428q45 127 74 252 q70 11 150 -12q0 -174 -23 -392l-20 -22q-127 4 -482 4h-252q-61 0 -160.5 -2t-140.5 -2q-16 55 -16 125zM266 1729q34 100 144 155l383 -287q-3 -72 -62 -110l-452 194z" />
<glyph unicode="&#xc9;" horiz-adv-x="1202" d="M45 123q75 8 178 39q10 49 10 125v641q0 152 -10 282q-103 31 -178 39q0 70 16 125q41 0 139 -2t158 -2h236q354 0 481 4l23 -22q6 -222 -25 -377q-83 -18 -151 0q-9 119 -33 225h-402v-418q92 0 387 9l23 -21q-3 -92 -23 -152q-203 6 -387 9v-455h428q45 127 74 252 q70 11 150 -12q0 -174 -23 -392l-20 -22q-127 4 -482 4h-252q-61 0 -160.5 -2t-140.5 -2q-16 55 -16 125zM434 1593l397 277q99 -54 134 -164l-11 -47l-460 -178q-45 42 -60 112z" />
<glyph unicode="&#xca;" horiz-adv-x="1202" d="M45 123q75 8 178 39q10 49 10 125v641q0 152 -10 282q-103 31 -178 39q0 70 16 125q41 0 139 -2t158 -2h236q354 0 481 4l23 -22q6 -222 -25 -377q-83 -18 -151 0q-9 119 -33 225h-402v-418q92 0 387 9l23 -21q-3 -92 -23 -152q-203 6 -387 9v-455h428q45 127 74 252 q70 11 150 -12q0 -174 -23 -392l-20 -22q-127 4 -482 4h-252q-61 0 -160.5 -2t-140.5 -2q-16 55 -16 125zM266 1563l275 270q71 12 147 12l289 -272q-24 -65 -86 -107l-277 174l-272 -174q-59 39 -76 97z" />
<glyph unicode="&#xcb;" horiz-adv-x="1202" d="M45 123q75 8 178 39q10 49 10 125v641q0 152 -10 282q-103 31 -178 39q0 70 16 125q41 0 139 -2t158 -2h236q354 0 481 4l23 -22q6 -222 -25 -377q-83 -18 -151 0q-9 119 -33 225h-402v-418q92 0 387 9l23 -21q-3 -92 -23 -152q-203 6 -387 9v-455h428q45 127 74 252 q70 11 150 -12q0 -174 -23 -392l-20 -22q-127 4 -482 4h-252q-61 0 -160.5 -2t-140.5 -2q-16 55 -16 125zM281 1626q0 62 43 115t106 53q46 0 83.5 -34t37.5 -83q0 -61 -41.5 -109.5t-101.5 -51.5q-49 0 -88 32.5t-39 77.5zM692 1626q0 61 43.5 114.5t102.5 53.5 q51 0 89 -33.5t38 -83.5q0 -62 -43 -110t-107 -51q-45 0 -84 33t-39 77z" />
<glyph unicode="&#xcc;" horiz-adv-x="718" d="M4 1729q34 100 143 155l383 -287q-3 -73 -61 -110l-453 194zM45 123q75 8 178 39q10 49 10 125v641q0 155 -10 282q-103 31 -178 39q0 70 16 125q41 0 139 -2t158 -2q219 0 291 4q16 -62 13 -125q-84 -31 -166 -39q-9 -114 -9 -282v-596q0 -90 9 -170q82 -8 166 -39 q3 -63 -13 -125q-72 4 -291 4q-60 0 -158 -2t-139 -2q-16 55 -16 125z" />
<glyph unicode="&#xcd;" horiz-adv-x="718" d="M45 123q75 8 178 39q10 49 10 125v641q0 155 -10 282q-103 31 -178 39q0 70 16 125q41 0 139 -2t158 -2q219 0 291 4q16 -62 13 -125q-84 -31 -166 -39q-9 -114 -9 -282v-596q0 -90 9 -170q82 -8 166 -39q3 -63 -13 -125q-72 4 -291 4q-60 0 -158 -2t-139 -2 q-16 55 -16 125zM172 1593l397 277q98 -53 133 -164l-10 -47l-461 -178q-44 41 -59 112z" />
<glyph unicode="&#xce;" horiz-adv-x="718" d="M4 1563l275 270q71 12 147 12l289 -272q-24 -65 -86 -107l-277 174l-272 -174q-59 39 -76 97zM45 123q75 8 178 39q10 49 10 125v641q0 155 -10 282q-103 31 -178 39q0 70 16 125q41 0 139 -2t158 -2q219 0 291 4q16 -62 13 -125q-84 -31 -166 -39q-9 -114 -9 -282v-596 q0 -90 9 -170q82 -8 166 -39q3 -63 -13 -125q-72 4 -291 4q-60 0 -158 -2t-139 -2q-16 55 -16 125z" />
<glyph unicode="&#xcf;" horiz-adv-x="718" d="M18 1626q0 62 43.5 115t106.5 53q46 0 83.5 -34t37.5 -83q0 -61 -42 -109.5t-102 -51.5q-49 0 -88 32.5t-39 77.5zM45 123q75 8 178 39q10 49 10 125v641q0 155 -10 282q-103 31 -178 39q0 70 16 125q41 0 139 -2t158 -2q219 0 291 4q16 -62 13 -125q-84 -31 -166 -39 q-9 -114 -9 -282v-596q0 -90 9 -170q82 -8 166 -39q3 -63 -13 -125q-72 4 -291 4q-60 0 -158 -2t-139 -2q-16 55 -16 125zM430 1626q0 61 43 114.5t102 53.5q51 0 89 -33.5t38 -83.5q0 -62 -42.5 -110t-106.5 -51q-45 0 -84 33t-39 77z" />
<glyph unicode="&#xd0;" horiz-adv-x="1402" d="M49 123q75 8 178 39q11 54 11 125v334h-177q-23 80 0 155h177v152q0 143 -11 282q-103 31 -178 39q0 67 17 125q41 0 138.5 -2t157.5 -2q72 0 208 5t196 5q135 0 243 -50.5t178.5 -141t108 -214t37.5 -269.5q0 -134 -46 -261.5t-127 -228t-203.5 -162t-264.5 -61.5 q-42 0 -151 5t-179 5q-60 0 -157.5 -2t-138.5 -2q-17 58 -17 125zM492 170h178q71 0 147.5 16t102.5 37q147 116 147 400q0 88 -14.5 171t-46 158t-76.5 131.5t-110 89.5t-142 33q-68 0 -186 -4v-426h215q20 -78 0 -155h-215v-451z" />
<glyph unicode="&#xd1;" horiz-adv-x="1525" d="M45 123q75 8 178 39q10 49 10 125v641q0 155 -10 282q-103 31 -178 39q0 70 16 125q43 0 136 -2t141 -2q146 0 207 -8l528 -905l51 -209h6v680q0 155 -10 282q-103 31 -178 39q0 70 16 125q44 0 135 -2t134 -2q184 0 256 4q15 -58 12 -125q-84 -31 -166 -39 q-8 -101 -8 -282v-905q-139 -33 -281 -33l-559 956l-51 209h-6v-823q0 -99 8 -170q82 -8 166 -39q3 -67 -12 -125q-72 4 -260 4q-42 0 -131 -2t-134 -2q-16 55 -16 125zM420 1602q47 89 119 145.5t137 56.5q41 0 89.5 -29.5t93 -59t75.5 -29.5q22 0 61.5 27t73.5 69 q62 -21 86 -76q-49 -91 -121 -148t-137 -57q-42 0 -91 29.5t-93 58.5t-72 29q-24 0 -62.5 -26t-74.5 -68q-67 22 -84 78z" />
<glyph unicode="&#xd2;" horiz-adv-x="1417" d="M70 662q0 107 29 213.5t86 202.5t135 170t184 117.5t225 43.5q194 0 336 -93t212.5 -249.5t70.5 -355.5q0 -107 -29 -214.5t-86.5 -203t-135 -169.5t-183.5 -117.5t-224 -43.5q-149 0 -268 54t-195 149t-116.5 221.5t-40.5 274.5zM336 745q0 -120 24 -223.5t71.5 -186 t129 -130t187.5 -47.5q53 0 115 20.5t83 42.5q56 62 95.5 166t39.5 240q0 121 -23.5 224t-70.5 185.5t-128 130t-187 47.5q-54 0 -116 -20t-85 -43q-56 -62 -95.5 -166t-39.5 -240zM362 1729q34 100 144 155l383 -287q-3 -72 -62 -110l-452 194z" />
<glyph unicode="&#xd3;" horiz-adv-x="1417" d="M70 662q0 107 29 213.5t86 202.5t135 170t184 117.5t225 43.5q194 0 336 -93t212.5 -249.5t70.5 -355.5q0 -107 -29 -214.5t-86.5 -203t-135 -169.5t-183.5 -117.5t-224 -43.5q-149 0 -268 54t-195 149t-116.5 221.5t-40.5 274.5zM336 745q0 -120 24 -223.5t71.5 -186 t129 -130t187.5 -47.5q53 0 115 20.5t83 42.5q56 62 95.5 166t39.5 240q0 121 -23.5 224t-70.5 185.5t-128 130t-187 47.5q-54 0 -116 -20t-85 -43q-56 -62 -95.5 -166t-39.5 -240zM530 1593l398 277q98 -53 133 -164l-10 -47l-461 -178q-45 42 -60 112z" />
<glyph unicode="&#xd4;" horiz-adv-x="1417" d="M70 662q0 107 29 213.5t86 202.5t135 170t184 117.5t225 43.5q194 0 336 -93t212.5 -249.5t70.5 -355.5q0 -107 -29 -214.5t-86.5 -203t-135 -169.5t-183.5 -117.5t-224 -43.5q-149 0 -268 54t-195 149t-116.5 221.5t-40.5 274.5zM336 745q0 -120 24 -223.5t71.5 -186 t129 -130t187.5 -47.5q53 0 115 20.5t83 42.5q56 62 95.5 166t39.5 240q0 121 -23.5 224t-70.5 185.5t-128 130t-187 47.5q-54 0 -116 -20t-85 -43q-56 -62 -95.5 -166t-39.5 -240zM362 1563l275 270q71 12 147 12l289 -272q-24 -65 -86 -107l-276 174l-273 -174 q-59 39 -76 97z" />
<glyph unicode="&#xd5;" horiz-adv-x="1417" d="M70 662q0 107 29 213.5t86 202.5t135 170t184 117.5t225 43.5q194 0 336 -93t212.5 -249.5t70.5 -355.5q0 -107 -29 -214.5t-86.5 -203t-135 -169.5t-183.5 -117.5t-224 -43.5q-149 0 -268 54t-195 149t-116.5 221.5t-40.5 274.5zM336 745q0 -120 24 -223.5t71.5 -186 t129 -130t187.5 -47.5q53 0 115 20.5t83 42.5q56 62 95.5 166t39.5 240q0 121 -23.5 224t-70.5 185.5t-128 130t-187 47.5q-54 0 -116 -20t-85 -43q-56 -62 -95.5 -166t-39.5 -240zM350 1602q47 89 119 145.5t137 56.5q41 0 89.5 -29.5t93 -59t75.5 -29.5q22 0 61.5 27 t73.5 69q62 -21 86 -76q-49 -91 -121 -148t-137 -57q-42 0 -91 29.5t-93 58.5t-72 29q-24 0 -62.5 -26t-74.5 -68q-67 22 -84 78z" />
<glyph unicode="&#xd6;" horiz-adv-x="1417" d="M70 662q0 107 29 213.5t86 202.5t135 170t184 117.5t225 43.5q194 0 336 -93t212.5 -249.5t70.5 -355.5q0 -107 -29 -214.5t-86.5 -203t-135 -169.5t-183.5 -117.5t-224 -43.5q-149 0 -268 54t-195 149t-116.5 221.5t-40.5 274.5zM336 745q0 -120 24 -223.5t71.5 -186 t129 -130t187.5 -47.5q53 0 115 20.5t83 42.5q56 62 95.5 166t39.5 240q0 121 -23.5 224t-70.5 185.5t-128 130t-187 47.5q-54 0 -116 -20t-85 -43q-56 -62 -95.5 -166t-39.5 -240zM377 1626q0 62 43 115t106 53q46 0 83.5 -34t37.5 -83q0 -61 -41.5 -109.5t-101.5 -51.5 q-49 0 -88 32.5t-39 77.5zM788 1626q0 61 43.5 114.5t102.5 53.5q51 0 89 -33.5t38 -83.5q0 -62 -43 -110t-107 -51q-45 0 -84 33t-39 77z" />
<glyph unicode="&#xd7;" horiz-adv-x="1105" d="M172 793q46 71 123 122l256 -258l258 258q71 -44 125 -120l-260 -260l258 -256q-53 -77 -125 -121l-256 254l-254 -254q-70 41 -123 123l254 254z" />
<glyph unicode="&#xd8;" horiz-adv-x="1417" d="M70 662q0 107 29 213.5t86 202.5t135 170t184 117.5t225 43.5q143 0 266 -55l86 159q84 -6 131 -65l-92 -174q110 -93 169 -240t59 -323q0 -107 -29 -214.5t-86.5 -203t-135 -169.5t-183.5 -117.5t-224 -43.5q-147 0 -270 55l-88 -161q-87 19 -127 73l88 168 q-109 92 -166 239.5t-57 324.5zM336 745q0 -252 96 -411l442 821q-88 59 -202 59q-54 0 -116 -20t-85 -43q-56 -62 -95.5 -166t-39.5 -240zM539 217q86 -59 209 -59q53 0 115 20.5t83 42.5q56 62 95.5 166t39.5 240q0 256 -98 413z" />
<glyph unicode="&#xd9;" horiz-adv-x="1443" d="M12 1249q0 67 17 125q41 0 138.5 -2t158.5 -2q216 0 288 4q16 -62 13 -125q-84 -31 -166 -39q-6 -76 -6 -282v-365q0 -217 73.5 -317.5t239.5 -100.5q68 0 130 22.5t85 47.5q16 19 30.5 47t30 93.5t15.5 144.5v428q0 155 -10 282q-102 31 -179 39q0 67 17 125 q43 0 134 -2t140 -2q182 0 254 4q15 -58 12 -125q-85 -31 -165 -39q-9 -114 -9 -282v-385q0 -127 -31.5 -230t-97 -182.5t-175.5 -123.5t-257 -44q-245 0 -368 122.5t-123 393.5v449q0 143 -11 282q-103 31 -178 39zM393 1729q34 100 144 155l383 -287q-3 -72 -62 -110 l-452 194z" />
<glyph unicode="&#xda;" horiz-adv-x="1443" d="M12 1249q0 67 17 125q41 0 138.5 -2t158.5 -2q216 0 288 4q16 -62 13 -125q-84 -31 -166 -39q-6 -76 -6 -282v-365q0 -217 73.5 -317.5t239.5 -100.5q68 0 130 22.5t85 47.5q16 19 30.5 47t30 93.5t15.5 144.5v428q0 155 -10 282q-102 31 -179 39q0 67 17 125 q43 0 134 -2t140 -2q182 0 254 4q15 -58 12 -125q-85 -31 -165 -39q-9 -114 -9 -282v-385q0 -127 -31.5 -230t-97 -182.5t-175.5 -123.5t-257 -44q-245 0 -368 122.5t-123 393.5v449q0 143 -11 282q-103 31 -178 39zM561 1593l397 277q99 -54 134 -164l-11 -47l-460 -178 q-45 42 -60 112z" />
<glyph unicode="&#xdb;" horiz-adv-x="1443" d="M12 1249q0 67 17 125q41 0 138.5 -2t158.5 -2q216 0 288 4q16 -62 13 -125q-84 -31 -166 -39q-6 -76 -6 -282v-365q0 -217 73.5 -317.5t239.5 -100.5q68 0 130 22.5t85 47.5q16 19 30.5 47t30 93.5t15.5 144.5v428q0 155 -10 282q-102 31 -179 39q0 67 17 125 q43 0 134 -2t140 -2q182 0 254 4q15 -58 12 -125q-85 -31 -165 -39q-9 -114 -9 -282v-385q0 -127 -31.5 -230t-97 -182.5t-175.5 -123.5t-257 -44q-245 0 -368 122.5t-123 393.5v449q0 143 -11 282q-103 31 -178 39zM393 1563l275 270q70 12 147 12l289 -272 q-24 -65 -86 -107l-277 174l-272 -174q-59 39 -76 97z" />
<glyph unicode="&#xdc;" horiz-adv-x="1443" d="M12 1249q0 67 17 125q41 0 138.5 -2t158.5 -2q216 0 288 4q16 -62 13 -125q-84 -31 -166 -39q-6 -76 -6 -282v-365q0 -217 73.5 -317.5t239.5 -100.5q68 0 130 22.5t85 47.5q16 19 30.5 47t30 93.5t15.5 144.5v428q0 155 -10 282q-102 31 -179 39q0 67 17 125 q43 0 134 -2t140 -2q182 0 254 4q15 -58 12 -125q-85 -31 -165 -39q-9 -114 -9 -282v-385q0 -127 -31.5 -230t-97 -182.5t-175.5 -123.5t-257 -44q-245 0 -368 122.5t-123 393.5v449q0 143 -11 282q-103 31 -178 39zM408 1626q0 62 43 115t106 53q46 0 83.5 -34t37.5 -83 q0 -61 -41.5 -109.5t-101.5 -51.5q-49 0 -88 32.5t-39 77.5zM819 1626q0 61 43.5 114.5t102.5 53.5q51 0 89 -33.5t38 -83.5q0 -62 -43 -110t-107 -51q-45 0 -84 33t-39 77z" />
<glyph unicode="&#xdd;" horiz-adv-x="1359" d="M8 1247q0 66 17 127q42 0 145 -2t168 -2q225 0 299 4q15 -58 12 -125l-176 -37l264 -487l256 487l-186 37q0 68 14 125q38 0 125 -2t137 -2q189 0 250 4q16 -62 13 -125q-77 -31 -152 -39l-383 -704v-174q0 -99 8 -170q107 -8 221 -39q3 -69 -14 -125q-84 4 -344 4 q-71 0 -186.5 -2t-163.5 -2q-19 56 -19 125q92 7 234 39q10 49 10 125v211l-385 710q-97 32 -164 39zM539 1593l397 277q98 -53 133 -164l-10 -47l-461 -178q-44 41 -59 112z" />
<glyph unicode="&#xde;" horiz-adv-x="1187" d="M45 123q75 8 178 39q10 49 10 125v641q0 155 -10 282q-103 31 -178 39q0 70 16 125q41 0 139 -2t158 -2q263 0 347 4q17 -56 14 -125q-115 -31 -223 -39q-7 -61 -7 -114q138 18 285 18q102 0 179 -29.5t121 -82t65.5 -117t21.5 -140.5q0 -77 -41 -160t-106 -149.5 t-153.5 -109.5t-176.5 -43q-106 0 -197 18q0 -80 11 -139q107 -8 221 -39q3 -69 -14 -125q-86 4 -347 4q-60 0 -158 -2t-139 -2q-16 55 -16 125zM487 467q65 -6 148 -6q60 0 120 16.5t72 28.5q34 32 56 81t22 105q0 45 -12 87.5t-37 80.5t-69.5 61t-102.5 23 q-106 0 -197 -12v-465z" />
<glyph unicode="&#xdf;" horiz-adv-x="1353" d="M63 117q89 9 164 35q9 67 9 114v551q-61 17 -150 27q-17 63 -6 114q78 21 156 29v14q0 254 127 411t327 157q129 0 229 -40.5t160 -126.5t60 -206q0 -48 -24.5 -97.5t-59.5 -90.5t-70 -81t-59.5 -82.5t-24.5 -80.5q0 -37 23.5 -66t61 -49.5t83 -40.5t91 -46t83 -58 t61 -83t23.5 -116q0 -158 -111.5 -243t-289.5 -85q-203 0 -338 58q0 160 39 307q67 25 143 0q3 -77 21 -186q52 -25 147 -25q84 0 113.5 26t29.5 91q0 53 -37 87.5t-116 67.5q-50 20 -82.5 36t-70 42t-59 54.5t-36 71.5t-14.5 95q0 55 24.5 112.5t59 103.5t69.5 86 t59.5 71.5t24.5 48.5q0 120 -66.5 196.5t-166.5 76.5q-45 0 -78.5 -11t-44.5 -24q-27 -38 -46.5 -132.5t-19.5 -213.5v-998l-20 -20q-40 4 -92 4q-63 0 -158 -2t-133 -2q-15 38 -15 119z" />
<glyph unicode="&#xe0;" horiz-adv-x="1056" d="M63 225q0 80 52 149t139 117t178 80.5t191 53.5q-3 109 -36 168t-108 59q-85 0 -139 -12q-16 -56 -16 -158q-81 -40 -156 -20q-59 97 -59 235q190 111 415 111q44 0 85 -6.5t90 -28t85 -56t60 -96.5t24 -143v-371q0 -81 9 -149q45 6 131 26q36 -32 36 -82 q-56 -56 -130.5 -93.5t-143.5 -37.5q-34 0 -67.5 39.5t-55.5 104.5q-79 -65 -161.5 -103.5t-153.5 -38.5q-127 0 -198 65.5t-71 186.5zM178 1452l15 45q97 54 225 51l217 -381q-29 -67 -109 -80zM317 289q0 -53 36 -90t102 -37q73 0 168 71v230q-89 -10 -168 -30t-97 -34 t-29.5 -47t-11.5 -63z" />
<glyph unicode="&#xe1;" horiz-adv-x="1056" d="M63 225q0 80 52 149t139 117t178 80.5t191 53.5q-3 109 -36 168t-108 59q-85 0 -139 -12q-16 -56 -16 -158q-81 -40 -156 -20q-59 97 -59 235q190 111 415 111q44 0 85 -6.5t90 -28t85 -56t60 -96.5t24 -143v-371q0 -81 9 -149q45 6 131 26q36 -32 36 -82 q-56 -56 -130.5 -93.5t-143.5 -37.5q-34 0 -67.5 39.5t-55.5 104.5q-79 -65 -161.5 -103.5t-153.5 -38.5q-127 0 -198 65.5t-71 186.5zM317 289q0 -53 36 -90t102 -37q73 0 168 71v230q-89 -10 -168 -30t-97 -34t-29.5 -47t-11.5 -63zM352 1155l207 342q113 27 256 27 l21 -56l-387 -389q-69 9 -97 76z" />
<glyph unicode="&#xe2;" horiz-adv-x="1056" d="M63 225q0 80 52 149t139 117t178 80.5t191 53.5q-3 109 -36 168t-108 59q-85 0 -139 -12q-16 -56 -16 -158q-81 -40 -156 -20q-59 97 -59 235q190 111 415 111q44 0 85 -6.5t90 -28t85 -56t60 -96.5t24 -143v-371q0 -81 9 -149q45 6 131 26q36 -32 36 -82 q-56 -56 -130.5 -93.5t-143.5 -37.5q-34 0 -67.5 39.5t-55.5 104.5q-79 -65 -161.5 -103.5t-153.5 -38.5q-127 0 -198 65.5t-71 186.5zM170 1147l225 352q79 20 164 17l246 -363q-30 -55 -94 -80l-234 223l-217 -223q-65 19 -90 74zM317 289q0 -53 36 -90t102 -37 q73 0 168 71v230q-89 -10 -168 -30t-97 -34t-29.5 -47t-11.5 -63z" />
<glyph unicode="&#xe3;" horiz-adv-x="1056" d="M63 225q0 80 52 149t139 117t178 80.5t191 53.5q-3 109 -36 168t-108 59q-85 0 -139 -12q-16 -56 -16 -158q-81 -40 -156 -20q-59 97 -59 235q190 111 415 111q44 0 85 -6.5t90 -28t85 -56t60 -96.5t24 -143v-371q0 -81 9 -149q45 6 131 26q36 -32 36 -82 q-56 -56 -130.5 -93.5t-143.5 -37.5q-34 0 -67.5 39.5t-55.5 104.5q-79 -65 -161.5 -103.5t-153.5 -38.5q-127 0 -198 65.5t-71 186.5zM104 1227q49 91 123.5 149t141.5 58q44 0 93.5 -30t95 -59.5t79.5 -29.5q24 0 63.5 27t77.5 69q58 -15 90 -74q-53 -94 -128 -153.5 t-142 -59.5q-34 0 -73.5 18.5t-68.5 41t-63 41t-59 18.5t-64 -26.5t-77 -69.5q-68 21 -89 80zM317 289q0 -53 36 -90t102 -37q73 0 168 71v230q-89 -10 -168 -30t-97 -34t-29.5 -47t-11.5 -63z" />
<glyph unicode="&#xe4;" horiz-adv-x="1056" d="M63 225q0 80 52 149t139 117t178 80.5t191 53.5q-3 109 -36 168t-108 59q-85 0 -139 -12q-16 -56 -16 -158q-81 -40 -156 -20q-59 97 -59 235q190 111 415 111q44 0 85 -6.5t90 -28t85 -56t60 -96.5t24 -143v-371q0 -81 9 -149q45 6 131 26q36 -32 36 -82 q-56 -56 -130.5 -93.5t-143.5 -37.5q-34 0 -67.5 39.5t-55.5 104.5q-79 -65 -161.5 -103.5t-153.5 -38.5q-127 0 -198 65.5t-71 186.5zM141 1241q0 64 44 117t108 53q48 0 88.5 -35t40.5 -84q0 -64 -45 -115.5t-107 -52.5q-51 0 -90 34.5t-39 82.5zM317 289q0 -53 36 -90 t102 -37q73 0 168 71v230q-89 -10 -168 -30t-97 -34t-29.5 -47t-11.5 -63zM549 1241q0 63 45 116.5t106 53.5q52 0 90.5 -34.5t38.5 -84.5q0 -66 -43 -116.5t-108 -51.5q-47 0 -88 35t-41 82z" />
<glyph unicode="&#xe5;" horiz-adv-x="1056" d="M63 225q0 80 52 149t139 117t178 80.5t191 53.5q-3 109 -36 168t-108 59q-85 0 -139 -12q-16 -56 -16 -158q-81 -40 -156 -20q-59 97 -59 235q190 111 415 111q44 0 85 -6.5t90 -28t85 -56t60 -96.5t24 -143v-371q0 -81 9 -149q45 6 131 26q36 -32 36 -82 q-56 -56 -130.5 -93.5t-143.5 -37.5q-34 0 -67.5 39.5t-55.5 104.5q-79 -65 -161.5 -103.5t-153.5 -38.5q-127 0 -198 65.5t-71 186.5zM246 1315q0 85 77.5 157t174.5 72q108 0 167.5 -55.5t59.5 -167.5q0 -83 -78 -156t-174 -73q-107 0 -167 56t-60 167zM317 289 q0 -53 36 -90t102 -37q73 0 168 71v230q-89 -10 -168 -30t-97 -34t-29.5 -47t-11.5 -63zM397 1325q0 -36 27 -66t63 -30q41 0 64 18q22 11 22 66q0 37 -27 65.5t-63 28.5q-43 0 -63 -16q-23 -18 -23 -66z" />
<glyph unicode="&#xe6;" horiz-adv-x="1554" d="M63 225q0 56 25 106.5t70 89.5t99.5 72t120 58t124.5 43t121 31q-2 53 -9.5 92t-23 70.5t-43.5 48t-68 16.5q-85 0 -139 -12q-16 -56 -16 -158q-81 -40 -156 -20q-59 97 -59 235q190 111 415 111q76 0 150.5 -31t120.5 -103q137 134 299 134q87 0 155 -24.5t110 -63.5 t69.5 -92t38 -105t10.5 -107q0 -74 -15 -118l-22 -21q-204 4 -373 4h-195q5 -60 21.5 -114t46 -102t80.5 -76.5t117 -28.5q119 0 297 71q39 -33 45 -104q-81 -63 -195.5 -109.5t-214.5 -46.5q-256 0 -371 189q-83 -80 -182.5 -133.5t-183.5 -53.5q-127 0 -198 65.5 t-71 186.5zM317 289q0 -53 35.5 -90t102.5 -37q83 0 198 96q-28 95 -28 205q-90 -10 -169 -29.5t-98 -34.5q-18 -14 -29.5 -46.5t-11.5 -63.5zM874 614h168q44 0 187 7q0 48 -7 84.5t-24.5 69t-52.5 50t-86 17.5q-73 0 -122 -62t-63 -166z" />
<glyph unicode="&#xe7;" horiz-adv-x="952" d="M70 473q0 75 21 150.5t62.5 143.5t98 120t133 83t162.5 31q195 0 344 -69q-6 -191 -53 -299q-98 -26 -158 8q-4 117 -12 176q-48 10 -129 10q-40 0 -80 -8t-56 -24q-37 -42 -60.5 -114.5t-23.5 -150.5q0 -64 13 -124.5t41.5 -118t81.5 -92.5t125 -35q114 0 284 69 q39 -36 45 -106q-67 -54 -162 -96t-186 -52l-22 -59q100 -3 156.5 -46.5t56.5 -113.5q0 -108 -111 -197t-266 -118q-41 41 -35 98q195 80 195 176q0 38 -35 64t-97 22l-20 21l72 153q-131 12 -219 82t-127 175t-39 241z" />
<glyph unicode="&#xe8;" horiz-adv-x="999" d="M70 467q0 132 59 255.5t168.5 204.5t241.5 81q87 0 155 -24.5t110 -63.5t69.5 -92t38 -105t10.5 -107q0 -74 -15 -118l-22 -21q-238 4 -428 4h-140q5 -60 21.5 -114t46 -102t80.5 -76.5t117 -28.5q119 0 297 71q39 -33 45 -104q-81 -63 -195.5 -109.5t-214.5 -46.5 q-113 0 -200 38.5t-139.5 106.5t-78.5 156.5t-26 194.5zM221 1452l15 45q97 54 225 51l217 -381q-29 -67 -109 -80zM322 614h106q157 0 246 7q0 48 -7 84.5t-24.5 69t-52.5 50t-86 17.5q-25 0 -57.5 -10.5t-45.5 -24.5q-63 -80 -79 -193z" />
<glyph unicode="&#xe9;" horiz-adv-x="999" d="M70 467q0 132 59 255.5t168.5 204.5t241.5 81q87 0 155 -24.5t110 -63.5t69.5 -92t38 -105t10.5 -107q0 -74 -15 -118l-22 -21q-238 4 -428 4h-140q5 -60 21.5 -114t46 -102t80.5 -76.5t117 -28.5q119 0 297 71q39 -33 45 -104q-81 -63 -195.5 -109.5t-214.5 -46.5 q-113 0 -200 38.5t-139.5 106.5t-78.5 156.5t-26 194.5zM322 614h106q157 0 246 7q0 48 -7 84.5t-24.5 69t-52.5 50t-86 17.5q-25 0 -57.5 -10.5t-45.5 -24.5q-63 -80 -79 -193zM395 1155l207 342q113 27 256 27l21 -56l-387 -389q-69 9 -97 76z" />
<glyph unicode="&#xea;" horiz-adv-x="999" d="M70 467q0 132 59 255.5t168.5 204.5t241.5 81q87 0 155 -24.5t110 -63.5t69.5 -92t38 -105t10.5 -107q0 -74 -15 -118l-22 -21q-238 4 -428 4h-140q5 -60 21.5 -114t46 -102t80.5 -76.5t117 -28.5q119 0 297 71q39 -33 45 -104q-81 -63 -195.5 -109.5t-214.5 -46.5 q-113 0 -200 38.5t-139.5 106.5t-78.5 156.5t-26 194.5zM213 1147l225 352q79 20 164 17l246 -363q-30 -55 -94 -80l-234 223l-217 -223q-65 19 -90 74zM322 614h106q157 0 246 7q0 48 -7 84.5t-24.5 69t-52.5 50t-86 17.5q-25 0 -57.5 -10.5t-45.5 -24.5q-63 -80 -79 -193z " />
<glyph unicode="&#xeb;" horiz-adv-x="999" d="M70 467q0 132 59 255.5t168.5 204.5t241.5 81q87 0 155 -24.5t110 -63.5t69.5 -92t38 -105t10.5 -107q0 -74 -15 -118l-22 -21q-238 4 -428 4h-140q5 -60 21.5 -114t46 -102t80.5 -76.5t117 -28.5q119 0 297 71q39 -33 45 -104q-81 -63 -195.5 -109.5t-214.5 -46.5 q-113 0 -200 38.5t-139.5 106.5t-78.5 156.5t-26 194.5zM184 1241q0 64 44 117t108 53q48 0 88.5 -35t40.5 -84q0 -64 -45 -115.5t-107 -52.5q-51 0 -90 34.5t-39 82.5zM322 614h106q157 0 246 7q0 48 -7 84.5t-24.5 69t-52.5 50t-86 17.5q-25 0 -57.5 -10.5t-45.5 -24.5 q-63 -80 -79 -193zM592 1241q0 63 45 116.5t106 53.5q52 0 90.5 -34.5t38.5 -84.5q0 -66 -43 -116.5t-108 -51.5q-47 0 -88 35t-41 82z" />
<glyph unicode="&#xec;" horiz-adv-x="684" d="M39 1462l14 45q98 50 228 47l202 -391q-30 -67 -110 -76zM61 117q80 8 164 37q8 55 8 112v529q-91 24 -161 32q-17 59 -9 107q181 64 402 74l22 -21q-8 -273 -8 -590v-90q0 -79 6 -153q92 -10 154 -37q0 -85 -12 -119q-110 4 -267 4q-65 0 -157.5 -2t-126.5 -2 q-15 38 -15 119z" />
<glyph unicode="&#xed;" horiz-adv-x="684" d="M61 117q80 8 164 37q8 55 8 112v529q-91 24 -161 32q-17 59 -9 107q181 64 402 74l22 -21q-8 -273 -8 -590v-90q0 -79 6 -153q92 -10 154 -37q0 -85 -12 -119q-110 4 -267 4q-65 0 -157.5 -2t-126.5 -2q-15 38 -15 119zM199 1159l194 350q92 25 256 33l23 -55l-375 -402 q-68 9 -98 74z" />
<glyph unicode="&#xee;" horiz-adv-x="684" d="M27 1159l217 352q79 20 164 17l237 -363q-33 -57 -96 -75l-223 221l-209 -224q-65 16 -90 72zM61 117q80 8 164 37q8 55 8 112v529q-91 24 -161 32q-17 59 -9 107q181 64 402 74l22 -21q-8 -273 -8 -590v-90q0 -79 6 -153q92 -10 154 -37q0 -85 -12 -119q-110 4 -267 4 q-65 0 -157.5 -2t-126.5 -2q-15 38 -15 119z" />
<glyph unicode="&#xef;" horiz-adv-x="684" d="M-10 1241q0 64 43.5 117t107.5 53q48 0 88.5 -35t40.5 -84q0 -64 -44.5 -115.5t-106.5 -52.5q-51 0 -90 34.5t-39 82.5zM61 117q80 8 164 37q8 55 8 112v529q-91 24 -161 32q-17 59 -9 107q181 64 402 74l22 -21q-8 -273 -8 -590v-90q0 -79 6 -153q92 -10 154 -37 q0 -85 -12 -119q-110 4 -267 4q-65 0 -157.5 -2t-126.5 -2q-15 38 -15 119zM397 1241q0 62 45.5 116t106.5 54q52 0 90.5 -34.5t38.5 -84.5q0 -65 -43.5 -116t-108.5 -52q-47 0 -88 35t-41 82z" />
<glyph unicode="&#xf0;" horiz-adv-x="1103" d="M70 461q0 144 62 269.5t167 199.5t225 74q119 0 215 -99q-41 185 -164 330l-231 -152q-67 55 -82 146l215 114q-54 51 -164 140q12 69 72 98q134 -73 238 -151l227 153q67 -58 82 -145l-195 -107q151 -148 218 -324t67 -389q0 -184 -58 -329.5t-173.5 -231.5t-270.5 -86 q-110 0 -197 39.5t-141.5 107.5t-83 155.5t-28.5 187.5zM319 528q0 -65 13 -129t40 -122.5t74.5 -95t108.5 -36.5q35 0 73 11t50 24q48 52 67.5 132.5t22.5 205.5l-2 -8q-3 147 -75 235.5t-163 88.5q-33 0 -69.5 -9t-50.5 -26q-40 -43 -64.5 -115t-24.5 -156z" />
<glyph unicode="&#xf1;" horiz-adv-x="1280" d="M61 117q89 9 164 35q8 60 8 114v525q-73 22 -161 32q-20 61 -9 109q159 59 343 74l26 -17q17 -50 31 -106q159 125 325 125q133 0 219.5 -81.5t86.5 -240.5v-379q0 -79 6 -153q91 -10 153 -37q0 -87 -14 -119q-106 4 -262 4q-56 0 -138.5 -2t-113.5 -2q-12 40 -12 119 q79 15 127 35q8 60 8 114v316q0 59 -6 99t-23.5 75.5t-53 53t-89.5 17.5q-89 0 -197 -67v-453q0 -79 6 -153q85 -10 144 -37q0 -82 -13 -119q-106 4 -256 4q-65 0 -157.5 -2t-126.5 -2q-15 38 -15 119zM266 1227q49 92 123 149.5t141 57.5q35 0 74 -18.5t68 -41t64 -41 t63 -18.5q24 0 63.5 27t77.5 69q58 -15 90 -74q-53 -94 -128 -153.5t-142 -59.5q-34 0 -73.5 18.5t-68.5 41t-63 41t-59 18.5t-64.5 -26.5t-77.5 -69.5q-67 21 -88 80z" />
<glyph unicode="&#xf2;" horiz-adv-x="1087" d="M70 473q0 96 33.5 190t93.5 171.5t154.5 125.5t205.5 48q153 0 258.5 -66.5t154 -177.5t48.5 -258q0 -96 -33.5 -190t-94 -171.5t-155 -125.5t-205.5 -48q-224 0 -342 137.5t-118 364.5zM227 1452l15 45q97 54 225 51l217 -381q-29 -67 -109 -80zM319 526 q0 -64 13.5 -127.5t41 -122t77 -95t114.5 -36.5q33 0 69 9t48 26q38 45 62 117.5t24 155.5q0 64 -13.5 127.5t-41 122t-77 95t-114.5 36.5q-33 0 -68.5 -8.5t-47.5 -24.5q-38 -45 -62.5 -118.5t-24.5 -156.5z" />
<glyph unicode="&#xf3;" horiz-adv-x="1087" d="M70 473q0 96 33.5 190t93.5 171.5t154.5 125.5t205.5 48q153 0 258.5 -66.5t154 -177.5t48.5 -258q0 -96 -33.5 -190t-94 -171.5t-155 -125.5t-205.5 -48q-224 0 -342 137.5t-118 364.5zM319 526q0 -64 13.5 -127.5t41 -122t77 -95t114.5 -36.5q33 0 69 9t48 26 q38 45 62 117.5t24 155.5q0 64 -13.5 127.5t-41 122t-77 95t-114.5 36.5q-33 0 -68.5 -8.5t-47.5 -24.5q-38 -45 -62.5 -118.5t-24.5 -156.5zM401 1155l207 342q113 27 256 27l21 -56l-387 -389q-69 9 -97 76z" />
<glyph unicode="&#xf4;" horiz-adv-x="1087" d="M70 473q0 96 33.5 190t93.5 171.5t154.5 125.5t205.5 48q153 0 258.5 -66.5t154 -177.5t48.5 -258q0 -96 -33.5 -190t-94 -171.5t-155 -125.5t-205.5 -48q-224 0 -342 137.5t-118 364.5zM233 1147l226 352q79 20 164 17l245 -363q-30 -55 -94 -80l-233 223l-217 -223 q-66 19 -91 74zM319 526q0 -64 13.5 -127.5t41 -122t77 -95t114.5 -36.5q33 0 69 9t48 26q38 45 62 117.5t24 155.5q0 64 -13.5 127.5t-41 122t-77 95t-114.5 36.5q-33 0 -68.5 -8.5t-47.5 -24.5q-38 -45 -62.5 -118.5t-24.5 -156.5z" />
<glyph unicode="&#xf5;" horiz-adv-x="1087" d="M70 473q0 96 33.5 190t93.5 171.5t154.5 125.5t205.5 48q153 0 258.5 -66.5t154 -177.5t48.5 -258q0 -96 -33.5 -190t-94 -171.5t-155 -125.5t-205.5 -48q-224 0 -342 137.5t-118 364.5zM168 1227q49 92 123 149.5t141 57.5q44 0 93.5 -30t95 -59.5t79.5 -29.5 q24 0 64 27t78 69q58 -15 90 -74q-53 -94 -128 -153.5t-142 -59.5q-43 0 -93.5 30t-95.5 59.5t-76 29.5q-25 0 -64 -26.5t-77 -69.5q-67 21 -88 80zM319 526q0 -64 13.5 -127.5t41 -122t77 -95t114.5 -36.5q33 0 69 9t48 26q38 45 62 117.5t24 155.5q0 64 -13.5 127.5 t-41 122t-77 95t-114.5 36.5q-33 0 -68.5 -8.5t-47.5 -24.5q-38 -45 -62.5 -118.5t-24.5 -156.5z" />
<glyph unicode="&#xf6;" horiz-adv-x="1087" d="M70 473q0 96 33.5 190t93.5 171.5t154.5 125.5t205.5 48q153 0 258.5 -66.5t154 -177.5t48.5 -258q0 -96 -33.5 -190t-94 -171.5t-155 -125.5t-205.5 -48q-224 0 -342 137.5t-118 364.5zM205 1241q0 64 43.5 117t107.5 53q48 0 88.5 -35t40.5 -84q0 -64 -44.5 -115.5 t-106.5 -52.5q-51 0 -90 34.5t-39 82.5zM319 526q0 -64 13.5 -127.5t41 -122t77 -95t114.5 -36.5q33 0 69 9t48 26q38 45 62 117.5t24 155.5q0 64 -13.5 127.5t-41 122t-77 95t-114.5 36.5q-33 0 -68.5 -8.5t-47.5 -24.5q-38 -45 -62.5 -118.5t-24.5 -156.5zM612 1241 q0 62 45.5 116t106.5 54q52 0 90.5 -34.5t38.5 -84.5q0 -65 -43.5 -116t-108.5 -52q-47 0 -88 35t-41 82z" />
<glyph unicode="&#xf7;" horiz-adv-x="1105" d="M133 451q-31 79 0 174h844q26 -88 0 -174h-844zM424 213q0 49 38.5 83t92.5 34q53 0 90 -34t37 -83q0 -53 -37 -90t-90 -37q-54 0 -92.5 37.5t-38.5 89.5zM424 864q0 47 38.5 82t92.5 35q52 0 89.5 -34.5t37.5 -82.5q0 -54 -37 -91.5t-90 -37.5q-54 0 -92.5 37.5 t-38.5 91.5z" />
<glyph unicode="&#xf8;" horiz-adv-x="1087" d="M70 473q0 96 33.5 190t93.5 171.5t154.5 125.5t205.5 48q71 0 150 -21l71 146q83 -14 123 -56l-72 -145q94 -65 141.5 -175t47.5 -251q0 -96 -33.5 -190t-94 -171.5t-155 -125.5t-205.5 -48q-80 0 -157 23l-70 -146q-76 9 -129 64l72 143q-176 130 -176 418zM319 526 q0 -133 43 -233l256 516q-52 25 -96 25q-103 0 -153 -84.5t-50 -223.5zM461 172q49 -27 104 -27q103 0 153 84.5t50 223.5q0 142 -51 247z" />
<glyph unicode="&#xf9;" horiz-adv-x="1241" d="M27 862q0 72 14 119q34 0 125.5 -2t159.5 -2h90l20 -21q-4 -190 -4 -544q0 -250 137 -250q86 0 219 127v530q-67 27 -153 43q0 72 14 119q35 0 124.5 -2t156.5 -2h88l22 -21q-6 -174 -6 -542v-107q0 -89 8 -149q47 6 132 26q36 -32 36 -82q-56 -56 -131 -93.5t-143 -37.5 q-40 0 -74.5 46.5t-54.5 117.5q-153 -164 -322 -164q-141 0 -220 85.5t-79 250.5v512q-65 26 -159 43zM262 1452l14 45q97 54 226 51l217 -381q-29 -67 -109 -80z" />
<glyph unicode="&#xfa;" horiz-adv-x="1241" d="M27 862q0 72 14 119q34 0 125.5 -2t159.5 -2h90l20 -21q-4 -190 -4 -544q0 -250 137 -250q86 0 219 127v530q-67 27 -153 43q0 72 14 119q35 0 124.5 -2t156.5 -2h88l22 -21q-6 -174 -6 -542v-107q0 -89 8 -149q47 6 132 26q36 -32 36 -82q-56 -56 -131 -93.5t-143 -37.5 q-40 0 -74.5 46.5t-54.5 117.5q-153 -164 -322 -164q-141 0 -220 85.5t-79 250.5v512q-65 26 -159 43zM436 1155l207 342q113 27 256 27l21 -56l-388 -389q-68 9 -96 76z" />
<glyph unicode="&#xfb;" horiz-adv-x="1241" d="M27 862q0 72 14 119q34 0 125.5 -2t159.5 -2h90l20 -21q-4 -190 -4 -544q0 -250 137 -250q86 0 219 127v530q-67 27 -153 43q0 72 14 119q35 0 124.5 -2t156.5 -2h88l22 -21q-6 -174 -6 -542v-107q0 -89 8 -149q47 6 132 26q36 -32 36 -82q-56 -56 -131 -93.5t-143 -37.5 q-40 0 -74.5 46.5t-54.5 117.5q-153 -164 -322 -164q-141 0 -220 85.5t-79 250.5v512q-65 26 -159 43zM266 1147l226 352q79 20 163 17l246 -363q-30 -55 -94 -80l-234 223l-217 -223q-65 19 -90 74z" />
<glyph unicode="&#xfc;" horiz-adv-x="1241" d="M27 862q0 72 14 119q34 0 125.5 -2t159.5 -2h90l20 -21q-4 -190 -4 -544q0 -250 137 -250q86 0 219 127v530q-67 27 -153 43q0 72 14 119q35 0 124.5 -2t156.5 -2h88l22 -21q-6 -174 -6 -542v-107q0 -89 8 -149q47 6 132 26q36 -32 36 -82q-56 -56 -131 -93.5t-143 -37.5 q-40 0 -74.5 46.5t-54.5 117.5q-153 -164 -322 -164q-141 0 -220 85.5t-79 250.5v512q-65 26 -159 43zM225 1241q0 64 44 117t108 53q48 0 88.5 -35t40.5 -84q0 -64 -45 -115.5t-107 -52.5q-51 0 -90 34.5t-39 82.5zM633 1241q0 63 45 116.5t106 53.5q52 0 90.5 -34.5 t38.5 -84.5q0 -66 -43 -116.5t-108 -51.5q-47 0 -88 35t-41 82z" />
<glyph unicode="&#xfd;" horiz-adv-x="1159" d="M25 862q0 68 14 119q24 0 96 -2t119 -2q25 0 121.5 2t171.5 2q17 -51 10 -119l-137 -37l166 -471l2 -170h6l219 643l-143 35q0 73 16 119q34 0 121.5 -2t144.5 -2q54 0 172 4q17 -61 11 -119q-51 -25 -125 -35l-295 -809q-46 -125 -88.5 -217.5t-94 -169.5t-109.5 -117 t-122 -40q-146 0 -231 47q-6 78 41 131h28q261 0 367 270l31 78h-80l-305 827q-47 23 -127 35zM467 1155l207 342q113 27 256 27l20 -56l-387 -389q-68 9 -96 76z" />
<glyph unicode="&#xfe;" horiz-adv-x="1142" d="M-10 -397q89 9 164 35q8 60 8 114v1604q-97 26 -162 33q-16 56 -8 106q184 64 403 74l21 -21q-8 -273 -8 -590v-57q135 100 294 100q166 0 268.5 -134t102.5 -359q0 -94 -33 -188.5t-89.5 -170.5t-140.5 -124t-177 -48q-112 0 -225 66v-250q0 -79 6 -153q130 -7 241 -37 q0 -82 -12 -117q-226 4 -352 4q-64 0 -156.5 -2t-130.5 -2q-14 35 -14 117zM408 250q48 -43 107.5 -70.5t117.5 -27.5q63 0 107.5 46t63.5 112t19 143q0 96 -24 178t-75 136t-120 54q-80 0 -196 -63v-508z" />
<glyph unicode="&#xff;" horiz-adv-x="1159" d="M25 862q0 68 14 119q24 0 96 -2t119 -2q25 0 121.5 2t171.5 2q17 -51 10 -119l-137 -37l166 -471l2 -170h6l219 643l-143 35q0 73 16 119q34 0 121.5 -2t144.5 -2q54 0 172 4q17 -61 11 -119q-51 -25 -125 -35l-295 -809q-46 -125 -88.5 -217.5t-94 -169.5t-109.5 -117 t-122 -40q-146 0 -231 47q-6 78 41 131h28q261 0 367 270l31 78h-80l-305 827q-47 23 -127 35zM256 1241q0 64 44 117t108 53q48 0 88.5 -35t40.5 -84q0 -64 -45 -115.5t-107 -52.5q-51 0 -90 34.5t-39 82.5zM664 1241q0 63 45 116.5t106 53.5q52 0 90.5 -34.5t38.5 -84.5 q0 -66 -43 -116.5t-108 -51.5q-47 0 -88 35t-41 82z" />
<glyph unicode="&#x152;" horiz-adv-x="1880" d="M70 662q0 105 28.5 210t85.5 199t134.5 167t182.5 116t222 43q111 0 278 -27h271q354 0 481 4l21 -22q6 -212 -23 -377q-87 -18 -154 0q-6 118 -30 225h-398v-418q93 0 383 9l21 -21q-3 -88 -21 -152l-383 9v-455h424q45 127 74 252q69 11 150 -12q0 -174 -23 -392 l-20 -22q-152 4 -545 4h-248q-185 -27 -295 -27q-195 0 -336.5 92.5t-210.5 246t-69 348.5zM336 741q0 -117 25 -217t75.5 -180.5t136 -127t197.5 -46.5q84 0 150 10v1014q-79 8 -183 8q-72 0 -145.5 -18t-99.5 -43q-64 -61 -110 -163t-46 -237z" />
<glyph unicode="&#x153;" horiz-adv-x="1699" d="M70 473q0 96 33.5 190t93.5 171.5t154.5 125.5t205.5 48q226 0 352 -166q66 77 150.5 121.5t177.5 44.5q87 0 155 -24.5t110 -63.5t69.5 -92t38 -105t10.5 -107q0 -77 -14 -118l-21 -21q-204 4 -375 4h-194q5 -60 21 -114t46 -102t80.5 -76.5t116.5 -28.5q119 0 297 71 q39 -33 45 -104q-81 -63 -195.5 -109.5t-214.5 -46.5q-222 0 -344 162q-142 -162 -338 -162q-224 0 -342 137.5t-118 364.5zM319 526q0 -64 13.5 -127.5t41 -122t77 -95t114.5 -36.5q103 0 153 84.5t50 223.5v14v10q-2 62 -17 122t-43 114.5t-76.5 87.5t-109.5 33 q-103 0 -153 -84.5t-50 -223.5zM1018 614h168q42 0 186 7q0 48 -7 84.5t-24.5 69t-52.5 50t-86 17.5q-73 0 -121.5 -62t-62.5 -166z" />
<glyph unicode="&#x178;" horiz-adv-x="1359" d="M8 1247q0 66 17 127q42 0 145 -2t168 -2q225 0 299 4q15 -58 12 -125l-176 -37l264 -487l256 487l-186 37q0 68 14 125q38 0 125 -2t137 -2q189 0 250 4q16 -62 13 -125q-77 -31 -152 -39l-383 -704v-174q0 -99 8 -170q107 -8 221 -39q3 -69 -14 -125q-84 4 -344 4 q-71 0 -186.5 -2t-163.5 -2q-19 56 -19 125q92 7 234 39q10 49 10 125v211l-385 710q-97 32 -164 39zM385 1626q0 62 43.5 115t106.5 53q46 0 83 -34t37 -83q0 -61 -41.5 -109.5t-101.5 -51.5q-49 0 -88 32.5t-39 77.5zM797 1626q0 61 43 114.5t102 53.5q51 0 89 -33.5 t38 -83.5q0 -62 -42.5 -110t-106.5 -51q-45 0 -84 33t-39 77z" />
<glyph unicode="&#x2c6;" horiz-adv-x="849" d="M109 1147l225 352q79 20 164 17l245 -363q-30 -55 -94 -80l-233 223l-217 -223q-65 19 -90 74z" />
<glyph unicode="&#x2dc;" horiz-adv-x="849" d="M43 1227q49 92 123 149.5t141 57.5q44 0 93.5 -30t95 -59.5t79.5 -29.5q24 0 64 27t78 69q58 -15 90 -74q-53 -94 -128 -153.5t-142 -59.5q-43 0 -93.5 30t-95.5 59.5t-76 29.5q-25 0 -64 -26.5t-77 -69.5q-67 21 -88 80z" />
<glyph unicode="&#x2000;" horiz-adv-x="948" />
<glyph unicode="&#x2001;" horiz-adv-x="1896" />
<glyph unicode="&#x2002;" horiz-adv-x="948" />
<glyph unicode="&#x2003;" horiz-adv-x="1896" />
<glyph unicode="&#x2004;" horiz-adv-x="632" />
<glyph unicode="&#x2005;" horiz-adv-x="474" />
<glyph unicode="&#x2006;" horiz-adv-x="316" />
<glyph unicode="&#x2007;" horiz-adv-x="316" />
<glyph unicode="&#x2008;" horiz-adv-x="237" />
<glyph unicode="&#x2009;" horiz-adv-x="379" />
<glyph unicode="&#x200a;" horiz-adv-x="105" />
<glyph unicode="&#x2010;" horiz-adv-x="780" d="M131 418q-18 88 4 178l510 10q22 -94 2 -180z" />
<glyph unicode="&#x2011;" horiz-adv-x="780" d="M131 418q-18 88 4 178l510 10q22 -94 2 -180z" />
<glyph unicode="&#x2012;" horiz-adv-x="780" d="M131 418q-18 88 4 178l510 10q22 -94 2 -180z" />
<glyph unicode="&#x2013;" horiz-adv-x="999" d="M111 430q-15 82 0 162h778q15 -82 0 -162h-778z" />
<glyph unicode="&#x2014;" horiz-adv-x="2048" d="M203 430q-18 80 0 162h1642q18 -80 0 -162h-1642z" />
<glyph unicode="&#x2018;" horiz-adv-x="489" d="M76 1231q0 106 93.5 223t209.5 172q47 -18 59 -67q-125 -132 -125 -238q0 -85 86 -111q-7 -65 -55 -107t-111 -42q-71 0 -114 47t-43 123z" />
<glyph unicode="&#x2019;" horiz-adv-x="489" d="M51 1126q125 132 125 238q0 85 -86 111q7 65 55 107t111 42q71 0 114.5 -47t43.5 -123q0 -106 -93.5 -223t-209.5 -172q-48 19 -60 67z" />
<glyph unicode="&#x201a;" horiz-adv-x="501" d="M51 -248q125 132 125 238q0 84 -86 110q7 65 55.5 107.5t110.5 42.5q71 0 114.5 -47t43.5 -123q0 -106 -93.5 -223t-209.5 -172q-48 19 -60 67z" />
<glyph unicode="&#x201c;" horiz-adv-x="909" d="M76 1231q0 106 93.5 223t209.5 172q47 -18 59 -67q-125 -132 -125 -238q0 -85 86 -111q-7 -65 -55 -107t-111 -42q-71 0 -114 47t-43 123zM496 1231q0 106 93.5 223t209.5 172q47 -18 59 -67q-125 -132 -125 -238q0 -85 86 -111q-7 -65 -55 -107t-111 -42q-71 0 -114 47 t-43 123z" />
<glyph unicode="&#x201d;" horiz-adv-x="909" d="M51 1126q125 132 125 238q0 85 -86 111q7 65 55 107t111 42q71 0 114.5 -47t43.5 -123q0 -106 -93.5 -223t-209.5 -172q-48 19 -60 67zM471 1126q125 132 125 238q0 85 -86 111q7 65 55 107t111 42q71 0 114.5 -47t43.5 -123q0 -106 -94 -223t-210 -172q-47 18 -59 67z " />
<glyph unicode="&#x201e;" horiz-adv-x="921" d="M51 -248q125 132 125 238q0 84 -86 110q7 65 55.5 107.5t110.5 42.5q71 0 114.5 -47t43.5 -123q0 -106 -93.5 -223t-209.5 -172q-48 19 -60 67zM471 -248q125 132 125 238q0 84 -86 110q7 65 55.5 107.5t110.5 42.5q71 0 114.5 -47t43.5 -123q0 -106 -94 -223t-210 -172 q-47 18 -59 67z" />
<glyph unicode="&#x2022;" horiz-adv-x="1069" d="M309 508q0 89 66 149t160 60q95 0 160 -60t65 -149q0 -91 -65 -155t-160 -64q-94 0 -160 64t-66 155z" />
<glyph unicode="&#x2026;" horiz-adv-x="1783" d="M123 143q0 70 50 117t124 47t124 -47t50 -117q0 -72 -50.5 -122t-123.5 -50t-123.5 50t-50.5 122zM717 143q0 70 50 117t124 47t124 -47t50 -117q0 -72 -50.5 -122t-123.5 -50t-123.5 50t-50.5 122zM1313 143q0 70 50 117t124 47t124 -47t50 -117q0 -72 -50.5 -122 t-123.5 -50t-123.5 50t-50.5 122z" />
<glyph unicode="&#x202f;" horiz-adv-x="379" />
<glyph unicode="&#x2039;" horiz-adv-x="735" d="M98 453q-6 57 15 122l415 404q63 -20 103 -82l-271 -381l281 -373q-36 -68 -117 -100z" />
<glyph unicode="&#x203a;" horiz-adv-x="737" d="M94 879q39 71 119 98l424 -410q6 -61 -14 -123l-416 -403q-67 24 -101 84l269 381z" />
<glyph unicode="&#x205f;" horiz-adv-x="474" />
<glyph unicode="&#x20ac;" horiz-adv-x="974" d="M59 354q-15 60 0 121h84v23q0 48 4 73h-88q-15 58 0 119h115q49 157 165.5 260t278.5 103q164 0 285 -45q-3 -189 -41 -297q-69 -12 -133 10q-5 72 -18 149q-43 9 -113 9q-87 0 -149 -31q-15 -9 -37.5 -53t-36.5 -105h254q16 -48 0 -119h-269v-14q0 -55 2 -82h267 q16 -49 0 -121h-242q61 -202 238 -202q61 0 108 14q16 96 21 166q65 21 139 12q25 -119 25 -307q-167 -60 -318 -60q-184 0 -297 102.5t-147 274.5h-97z" />
<glyph unicode="&#x2122;" horiz-adv-x="1511" d="M49 1364l17 16h804l119 -313l6 -100h9l124 407h283q13 -41 8 -82l-78 -20l25 -383l82 -19q9 -45 -6 -82h-295q-15 37 -6 82l76 19l-17 244v102h-6l-129 -436q-73 -15 -139 -15l-113 340l-16 115h-6l-25 -348l63 -21q6 -41 -6 -82h-241q-13 36 -7 82l70 21l25 381h-232 v-381l88 -21q0 -52 -6 -82h-319q-12 40 -6 84l94 19v381h-121l-12 -133q-49 -18 -90 0z" />
<glyph unicode="&#xe000;" horiz-adv-x="983" d="M0 0v983h983v-983h-983z" />
</font>
</defs>
</svg>
